ISO-10303-21;
HEADER;
FILE_DESCRIPTION (( 'STEP AP214' ),
    '1' );
FILE_NAME ('SO102.02.050 Bottom ring.STEP',
    '2026-09-18T14:25:21',
    ( '' ),
    ( '' ),
    'SwSTEP 2.0',
    'SolidWorks 2021',
    '' );
FILE_SCHEMA (( 'AUTOMOTIVE_DESIGN' ));
ENDSEC;

DATA;
#1 = CARTESIAN_POINT ( 'NONE',  ( 4.800615452657624592E-15, 0.000000000000000000, 39.19999999999999574 ) ) ;
#2 = PRODUCT_DEFINITION_CONTEXT ( 'detailed design', #522, 'design' ) ;
#3 = EDGE_LOOP ( 'NONE', ( #355, #689, #714, #8, #543, #611, #910, #727 ) ) ;
#4 = DIRECTION ( 'NONE',  ( 0.000000000000000000, -1.000000000000000000, 0.000000000000000000 ) ) ;
#5 = EDGE_LOOP ( 'NONE', ( #627, #481, #1003, #775 ) ) ;
#6 = CARTESIAN_POINT ( 'NONE',  ( 41.49999999999999289, -6.009999999999928733, 0.000000000000000000 ) ) ;
#7 = ORIENTED_EDGE ( 'NONE', *, *, #112, .T. ) ;
#8 = ORIENTED_EDGE ( 'NONE', *, *, #622, .T. ) ;
#9 = CARTESIAN_POINT ( 'NONE',  ( 0.000000000000000000, -15.99999999999993072, 0.000000000000000000 ) ) ;
#10 = VECTOR ( 'NONE', #690, 1000.000000000000000 ) ;
#11 = ADVANCED_FACE ( 'NONE', ( #915 ), #795, .F. ) ;
#12 = ORIENTED_EDGE ( 'NONE', *, *, #545, .T. ) ;
#13 = VECTOR ( 'NONE', #1020, 1000.000000000000000 ) ;
#14 = DIRECTION ( 'NONE',  ( -0.000000000000000000, -1.000000000000000000, -0.000000000000000000 ) ) ;
#15 = AXIS2_PLACEMENT_3D ( 'NONE', #55, #1213, #65 ) ;
#16 = CARTESIAN_POINT ( 'NONE',  ( -47.00000000000000000, -15.99999999999994138, -1.700000000000005285 ) ) ;
#17 = ORIENTED_EDGE ( 'NONE', *, *, #1029, .F. ) ;
#18 = EDGE_CURVE ( 'NONE', #327, #787, #438, .T. ) ;
#19 = CARTESIAN_POINT ( 'NONE',  ( 4.555686092828153507E-15, -13.99999999999992895, 37.19999999999999574 ) ) ;
#20 = DIRECTION ( 'NONE',  ( 0.000000000000000000, 0.000000000000000000, -1.000000000000000000 ) ) ;
#21 = CARTESIAN_POINT ( 'NONE',  ( 20.74999999999991473, -15.99999999999994493, -35.94005425705424273 ) ) ;
#22 = ORIENTED_EDGE ( 'NONE', *, *, #836, .T. ) ;
#23 = DIRECTION ( 'NONE',  ( 0.000000000000000000, 0.000000000000000000, -1.000000000000000000 ) ) ;
#24 = SURFACE_SIDE_STYLE ('',( #514 ) ) ;
#25 = ORIENTED_EDGE ( 'NONE', *, *, #112, .F. ) ;
#26 = EDGE_CURVE ( 'NONE', #1168, #232, #146, .T. ) ;
#27 = CYLINDRICAL_SURFACE ( 'NONE', #859, 1.649999999999999467 ) ;
#28 = CIRCLE ( 'NONE', #732, 3.149999999999999911 ) ;
#29 = DIRECTION ( 'NONE',  ( 0.000000000000000000, 0.000000000000000000, -1.000000000000000000 ) ) ;
#30 = AXIS2_PLACEMENT_3D ( 'NONE', #1028, #436, #827 ) ;
#31 = EDGE_LOOP ( 'NONE', ( #406, #862, #1069, #706 ) ) ;
#32 = PLANE ( 'NONE',  #507 ) ;
#33 = CIRCLE ( 'NONE', #15, 1.649999999999998579 ) ;
#34 = AXIS2_PLACEMENT_3D ( 'NONE', #1206, #733, #1118 ) ;
#35 = ADVANCED_FACE ( 'NONE', ( #170 ), #652, .F. ) ;
#36 = CARTESIAN_POINT ( 'NONE',  ( 0.000000000000000000, -6.009999999999929621, 0.000000000000000000 ) ) ;
#37 = ORIENTED_EDGE ( 'NONE', *, *, #339, .F. ) ;
#38 = DIRECTION ( 'NONE',  ( 0.000000000000000000, -1.000000000000000000, 0.000000000000000000 ) ) ;
#39 = VERTEX_POINT ( 'NONE', #129 ) ;
#40 = CARTESIAN_POINT ( 'NONE',  ( -20.74999999999966604, -14.49999999999993960, 35.94005425705439194 ) ) ;
#41 = ORIENTED_EDGE ( 'NONE', *, *, #492, .T. ) ;
#42 = CARTESIAN_POINT ( 'NONE',  ( -20.74999999999966604, -6.009999999999928733, 35.94005425705439194 ) ) ;
#43 = EDGE_CURVE ( 'NONE', #39, #1015, #1066, .T. ) ;
#44 = VERTEX_POINT ( 'NONE', #108 ) ;
#45 = LINE ( 'NONE', #427, #761 ) ;
#46 = DIRECTION ( 'NONE',  ( -0.6123724356957895854, -0.7071067811865483499, 0.3535533905932805587 ) ) ;
#47 = FACE_OUTER_BOUND ( 'NONE', #784, .T. ) ;
#48 = PLANE ( 'NONE',  #822 ) ;
#49 = EDGE_CURVE ( 'NONE', #854, #764, #216, .T. ) ;
#50 = VERTEX_POINT ( 'NONE', #519 ) ;
#51 = CYLINDRICAL_SURFACE ( 'NONE', #935, 37.19999999999999574 ) ;
#52 = AXIS2_PLACEMENT_3D ( 'NONE', #351, #530, #848 ) ;
#53 = CIRCLE ( 'NONE', #528, 1.649999999999999023 ) ;
#54 = CIRCLE ( 'NONE', #894, 45.00000000000000000 ) ;
#55 = CARTESIAN_POINT ( 'NONE',  ( -41.49999999999999289, -6.009999999999928733, 0.000000000000000000 ) ) ;
#56 = DIRECTION ( 'NONE',  ( -0.000000000000000000, -1.000000000000000000, 0.000000000000000000 ) ) ;
#57 = EDGE_LOOP ( 'NONE', ( #17, #1227 ) ) ;
#58 = CARTESIAN_POINT ( 'NONE',  ( 0.000000000000000000, 0.000000000000000000, 0.000000000000000000 ) ) ;
#59 = ORIENTED_EDGE ( 'NONE', *, *, #1091, .T. ) ;
#60 = LINE ( 'NONE', #1189, #633 ) ;
#61 = CARTESIAN_POINT ( 'NONE',  ( 5.510910596163089556E-15, -6.009999999999929621, 45.00000000000000000 ) ) ;
#62 = CARTESIAN_POINT ( 'NONE',  ( -47.00000000000000000, -6.009999999999928733, -1.700000000000005285 ) ) ;
#63 = EDGE_CURVE ( 'NONE', #709, #741, #181, .T. ) ;
#64 = VERTEX_POINT ( 'NONE', #398 ) ;
#65 = DIRECTION ( 'NONE',  ( 0.000000000000000000, 0.000000000000000000, 1.000000000000000000 ) ) ;
#66 = DIRECTION ( 'NONE',  ( 0.000000000000000000, 0.000000000000000000, -1.000000000000000000 ) ) ;
#67 = ORIENTED_EDGE ( 'NONE', *, *, #791, .T. ) ;
#68 = CARTESIAN_POINT ( 'NONE',  ( -22.17894191624399625, -6.009999999999928733, 35.11505425705440331 ) ) ;
#69 =( GEOMETRIC_REPRESENTATION_CONTEXT ( 3 ) GLOBAL_UNCERTAINTY_ASSIGNED_CONTEXT ( ( #182 ) ) GLOBAL_UNIT_ASSIGNED_CONTEXT ( ( #403, #127, #979 ) ) REPRESENTATION_CONTEXT ( 'NONE', 'WORKASPACE' ) );
#70 = VECTOR ( 'NONE', #396, 1000.000000000000000 ) ;
#71 = EDGE_CURVE ( 'NONE', #197, #1224, #757, .T. ) ;
#72 = ORIENTED_EDGE ( 'NONE', *, *, #816, .T. ) ;
#73 = CONICAL_SURFACE ( 'NONE', #803, 3.149999999999999911, 0.7853981633974471688 ) ;
#74 = PLANE ( 'NONE',  #371 ) ;
#75 = VERTEX_POINT ( 'NONE', #601 ) ;
#76 = DIRECTION ( 'NONE',  ( -0.000000000000000000, -1.000000000000000000, -0.000000000000000000 ) ) ;
#77 = ORIENTED_EDGE ( 'NONE', *, *, #847, .T. ) ;
#78 = APPLICATION_PROTOCOL_DEFINITION ( 'draft international standard', 'automotive_design', 1998, #522 ) ;
#79 = CARTESIAN_POINT ( 'NONE',  ( -20.75000000000016698, -15.99999999999994493, -35.94005425705411483 ) ) ;
#80 = ADVANCED_FACE ( 'NONE', ( #798 ), #245, .F. ) ;
#81 = CARTESIAN_POINT ( 'NONE',  ( -41.49999999999999289, -6.009999999999928733, 1.649999999999998579 ) ) ;
#82 = LINE ( 'NONE', #290, #1176 ) ;
#83 = EDGE_CURVE ( 'NONE', #613, #854, #1114, .T. ) ;
#84 = CARTESIAN_POINT ( 'NONE',  ( 19.32105808375559164, -15.99999999999994138, -36.76505425705424557 ) ) ;
#85 = AXIS2_PLACEMENT_3D ( 'NONE', #539, #264, #1017 ) ;
#86 =( GEOMETRIC_REPRESENTATION_CONTEXT ( 3 ) GLOBAL_UNCERTAINTY_ASSIGNED_CONTEXT ( ( #1030 ) ) GLOBAL_UNIT_ASSIGNED_CONTEXT ( ( #867, #955, #668 ) ) REPRESENTATION_CONTEXT ( 'NONE', 'WORKASPACE' ) );
#87 = CIRCLE ( 'NONE', #797, 1.649999999999999467 ) ;
#88 = FACE_OUTER_BOUND ( 'NONE', #984, .T. ) ;
#89 = AXIS2_PLACEMENT_3D ( 'NONE', #1186, #883, #584 ) ;
#90 = VECTOR ( 'NONE', #596, 1000.000000000000000 ) ;
#91 = LINE ( 'NONE', #84, #70 ) ;
#92 = CARTESIAN_POINT ( 'NONE',  ( -20.75000000000016698, -15.99999999999994493, -35.94005425705411483 ) ) ;
#93 = CARTESIAN_POINT ( 'NONE',  ( -20.74999999999966604, -15.99999999999994493, 35.94005425705439194 ) ) ;
#94 = FACE_OUTER_BOUND ( 'NONE', #717, .T. ) ;
#95 = VERTEX_POINT ( 'NONE', #299 ) ;
#96 = VERTEX_POINT ( 'NONE', #404 ) ;
#97 = EDGE_CURVE ( 'NONE', #764, #180, #28, .T. ) ;
#98 = CARTESIAN_POINT ( 'NONE',  ( -22.17894191624448652, -14.49999999999993960, -35.11505425705410488 ) ) ;
#99 = ORIENTED_EDGE ( 'NONE', *, *, #866, .T. ) ;
#100 = DIRECTION ( 'NONE',  ( 1.000000000000000000, 0.000000000000000000, 0.000000000000000000 ) ) ;
#101 = EDGE_CURVE ( 'NONE', #383, #232, #1049, .T. ) ;
#102 = VECTOR ( 'NONE', #229, 1000.000000000000000 ) ;
#103 = CARTESIAN_POINT ( 'NONE',  ( 0.000000000000000000, 0.000000000000000000, 0.000000000000000000 ) ) ;
#104 = VECTOR ( 'NONE', #739, 1000.000000000000000 ) ;
#105 = AXIS2_PLACEMENT_3D ( 'NONE', #154, #1106, #724 ) ;
#106 = DIRECTION ( 'NONE',  ( 0.000000000000000000, 1.000000000000000000, 0.000000000000000000 ) ) ;
#107 = AXIS2_PLACEMENT_3D ( 'NONE', #399, #882, #681 ) ;
#108 = CARTESIAN_POINT ( 'NONE',  ( -44.95553358597804561, -15.99999999999995204, -2.000000000000000000 ) ) ;
#109 = DIRECTION ( 'NONE',  ( -0.8660254037844363761, 0.000000000000000000, 0.5000000000000039968 ) ) ;
#110 = MANIFOLD_SOLID_BREP ( 'Фаска2', #691 ) ;
#111 = FACE_BOUND ( 'NONE', #335, .T. ) ;
#112 = EDGE_CURVE ( 'NONE', #428, #39, #993, .T. ) ;
#113 = CARTESIAN_POINT ( 'NONE',  ( -20.75000000000016698, -6.009999999999928733, -35.94005425705411483 ) ) ;
#114 = CARTESIAN_POINT ( 'NONE',  ( -20.75000000000016698, -15.99999999999994493, -35.94005425705411483 ) ) ;
#115 = ORIENTED_EDGE ( 'NONE', *, *, #873, .T. ) ;
#116 = LINE ( 'NONE', #200, #1177 ) ;
#117 = ORIENTED_EDGE ( 'NONE', *, *, #254, .T. ) ;
#118 = DIRECTION ( 'NONE',  ( 0.000000000000000000, -1.000000000000000000, 0.000000000000000000 ) ) ;
#119 = EDGE_CURVE ( 'NONE', #320, #237, #1093, .T. ) ;
#120 = CARTESIAN_POINT ( 'NONE',  ( 23.47798002192137901, -15.99999999999994493, 34.36505425705392724 ) ) ;
#121 = VERTEX_POINT ( 'NONE', #818 ) ;
#122 = CARTESIAN_POINT ( 'NONE',  ( -41.49999999999999289, -14.49999999999993960, 0.000000000000000000 ) ) ;
#123 = PRESENTATION_LAYER_ASSIGNMENT (  '', '', ( #452 ) ) ;
#124 = CARTESIAN_POINT ( 'NONE',  ( 20.75000000000041567, -15.99999999999994138, 35.94005425705395851 ) ) ;
#125 = CIRCLE ( 'NONE', #841, 37.19999999999999574 ) ;
#126 = ORIENTED_EDGE ( 'NONE', *, *, #701, .T. ) ;
#127 =( NAMED_UNIT ( * ) PLANE_ANGLE_UNIT ( ) SI_UNIT ( $, .RADIAN. ) );
#128 = VECTOR ( 'NONE', #715, 1000.000000000000000 ) ;
#129 = CARTESIAN_POINT ( 'NONE',  ( -46.70000000000001705, -15.99999999999994138, 2.000000000000000000 ) ) ;
#130 = CARTESIAN_POINT ( 'NONE',  ( -19.32105808375584743, -6.009999999999928733, -36.76505425705411767 ) ) ;
#131 = DIRECTION ( 'NONE',  ( -0.8660254037844387076, 0.000000000000000000, -0.4999999999999998890 ) ) ;
#132 = VERTEX_POINT ( 'NONE', #893 ) ;
#133 = CARTESIAN_POINT ( 'NONE',  ( -46.69999999999998863, -1.517801994784243824, -2.000000000000000000 ) ) ;
#134 = EDGE_CURVE ( 'NONE', #50, #278, #206, .T. ) ;
#135 = DIRECTION ( 'NONE',  ( -0.000000000000000000, -1.000000000000000000, 0.000000000000000000 ) ) ;
#136 = ORIENTED_EDGE ( 'NONE', *, *, #1002, .T. ) ;
#137 = CARTESIAN_POINT ( 'NONE',  ( 22.17894191624473166, -6.009999999999928733, 35.11505425705394856 ) ) ;
#138 = ORIENTED_EDGE ( 'NONE', *, *, #63, .T. ) ;
#139 = CARTESIAN_POINT ( 'NONE',  ( 41.49999999999999289, -15.99999999999994493, -3.149999999999999911 ) ) ;
#140 = DIRECTION ( 'NONE',  ( 0.000000000000000000, 0.000000000000000000, -1.000000000000000000 ) ) ;
#141 =( GEOMETRIC_REPRESENTATION_CONTEXT ( 3 ) GLOBAL_UNCERTAINTY_ASSIGNED_CONTEXT ( ( #263 ) ) GLOBAL_UNIT_ASSIGNED_CONTEXT ( ( #675, #373, #861 ) ) REPRESENTATION_CONTEXT ( 'NONE', 'WORKASPACE' ) );
#142 = CARTESIAN_POINT ( 'NONE',  ( -22.17894191624448652, -6.009999999999928733, -35.11505425705410488 ) ) ;
#143 = CIRCLE ( 'NONE', #52, 1.649999999999998135 ) ;
#144 = CIRCLE ( 'NONE', #392, 39.19999999999999574 ) ;
#145 = AXIS2_PLACEMENT_3D ( 'NONE', #211, #590, #970 ) ;
#146 = LINE ( 'NONE', #532, #630 ) ;
#147 = EDGE_LOOP ( 'NONE', ( #178, #940, #972, #275 ) ) ;
#148 = DIRECTION ( 'NONE',  ( 0.8660254037844433705, 0.000000000000000000, 0.4999999999999917843 ) ) ;
#149 = FACE_OUTER_BOUND ( 'NONE', #1104, .T. ) ;
#150 = ORIENTED_EDGE ( 'NONE', *, *, #1091, .F. ) ;
#151 = EDGE_CURVE ( 'NONE', #96, #265, #720, .T. ) ;
#152 = CARTESIAN_POINT ( 'NONE',  ( 0.000000000000000000, 0.000000000000000000, -45.00000000000000000 ) ) ;
#153 = CARTESIAN_POINT ( 'NONE',  ( -41.49999999999999289, -15.99999999999994493, 0.000000000000000000 ) ) ;
#154 = CARTESIAN_POINT ( 'NONE',  ( -46.70000000000001705, -1.517801994784243824, 2.000000000000000000 ) ) ;
#155 = CARTESIAN_POINT ( 'NONE',  ( 19.32105808375559164, -14.49999999999993960, -36.76505425705424557 ) ) ;
#156 = EDGE_CURVE ( 'NONE', #990, #1045, #1167, .T. ) ;
#157 = ORIENTED_EDGE ( 'NONE', *, *, #97, .F. ) ;
#158 = CARTESIAN_POINT ( 'NONE',  ( 20.75000000000041567, -15.99999999999994493, 35.94005425705395851 ) ) ;
#159 = CYLINDRICAL_SURFACE ( 'NONE', #330, 1.649999999999998579 ) ;
#160 = VERTEX_POINT ( 'NONE', #220 ) ;
#161 = CARTESIAN_POINT ( 'NONE',  ( 20.74999999999991473, -15.99999999999994138, -35.94005425705424273 ) ) ;
#162 = CIRCLE ( 'NONE', #412, 1.649999999999997025 ) ;
#163 = CIRCLE ( 'NONE', #879, 1.649999999999999467 ) ;
#164 = EDGE_LOOP ( 'NONE', ( #1139, #1042 ) ) ;
#165 = EDGE_CURVE ( 'NONE', #673, #559, #1183, .T. ) ;
#166 = CIRCLE ( 'NONE', #531, 45.00000000000000000 ) ;
#167 = DIRECTION ( 'NONE',  ( 0.000000000000000000, 0.000000000000000000, -1.000000000000000000 ) ) ;
#168 = ORIENTED_EDGE ( 'NONE', *, *, #305, .F. ) ;
#169 = CARTESIAN_POINT ( 'NONE',  ( 41.49999999999999289, -15.99999999999994493, -3.149999999999999911 ) ) ;
#170 = FACE_OUTER_BOUND ( 'NONE', #872, .T. ) ;
#171 = EDGE_LOOP ( 'NONE', ( #1107, #903, #1027, #409 ) ) ;
#172 = EDGE_CURVE ( 'NONE', #957, #320, #233, .T. ) ;
#173 = CARTESIAN_POINT ( 'NONE',  ( -18.02201997807866718, -15.99999999999994493, 37.51505425705436636 ) ) ;
#174 = ORIENTED_EDGE ( 'NONE', *, *, #243, .F. ) ;
#175 = ORIENTED_EDGE ( 'NONE', *, *, #632, .T. ) ;
#176 = DIRECTION ( 'NONE',  ( 1.000000000000000000, 0.000000000000000000, 0.000000000000000000 ) ) ;
#177 = DIRECTION ( 'NONE',  ( -0.000000000000000000, -1.000000000000000000, -0.000000000000000000 ) ) ;
#178 = ORIENTED_EDGE ( 'NONE', *, *, #165, .F. ) ;
#179 = CARTESIAN_POINT ( 'NONE',  ( 5.510910596163089556E-15, -15.99999999999995204, 45.00000000000000000 ) ) ;
#180 = VERTEX_POINT ( 'NONE', #704 ) ;
#181 = CIRCLE ( 'NONE', #671, 3.149999999999998135 ) ;
#182 = UNCERTAINTY_MEASURE_WITH_UNIT (LENGTH_MEASURE( 1.000000000000000082E-05 ), #403, 'distance_accuracy_value', 'NONE');
#183 = AXIS2_PLACEMENT_3D ( 'NONE', #1195, #1032, #1150 ) ;
#184 = ORIENTED_EDGE ( 'NONE', *, *, #1021, .T. ) ;
#185 = VECTOR ( 'NONE', #1036, 1000.000000000000227 ) ;
#186 = DIRECTION ( 'NONE',  ( 0.000000000000000000, 1.000000000000000000, 0.000000000000000000 ) ) ;
#187 = CIRCLE ( 'NONE', #738, 39.20000000000000284 ) ;
#188 = DIRECTION ( 'NONE',  ( -1.000000000000000000, 0.000000000000000000, 0.000000000000000000 ) ) ;
#189 = AXIS2_PLACEMENT_3D ( 'NONE', #301, #221, #783 ) ;
#190 = PRODUCT_DEFINITION_FORMATION_WITH_SPECIFIED_SOURCE ( 'ANY', '', #581, .NOT_KNOWN. ) ;
#191 = DIRECTION ( 'NONE',  ( 0.000000000000000000, 0.000000000000000000, -1.000000000000000000 ) ) ;
#192 = EDGE_CURVE ( 'NONE', #318, #950, #526, .T. ) ;
#193 = ORIENTED_EDGE ( 'NONE', *, *, #234, .F. ) ;
#194 = EDGE_LOOP ( 'NONE', ( #1077, #698 ) ) ;
#195 = SHAPE_DEFINITION_REPRESENTATION ( #441, #789 ) ;
#196 = CARTESIAN_POINT ( 'NONE',  ( -41.49999999999999289, -15.99999999999994493, 0.000000000000000000 ) ) ;
#197 = VERTEX_POINT ( 'NONE', #621 ) ;
#198 = DIRECTION ( 'NONE',  ( -0.000000000000000000, -1.000000000000000000, -0.000000000000000000 ) ) ;
#199 = EDGE_CURVE ( 'NONE', #773, #1224, #999, .T. ) ;
#200 = CARTESIAN_POINT ( 'NONE',  ( 22.17894191624473166, -15.99999999999994138, 35.11505425705394856 ) ) ;
#201 = DIRECTION ( 'NONE',  ( 0.8660254037844334896, 0.000000000000000000, -0.5000000000000089928 ) ) ;
#202 = ORIENTED_EDGE ( 'NONE', *, *, #791, .F. ) ;
#203 = MECHANICAL_DESIGN_GEOMETRIC_PRESENTATION_REPRESENTATION (  '', ( #452 ), #69 ) ;
#204 = EDGE_CURVE ( 'NONE', #576, #1220, #209, .T. ) ;
#205 = FACE_OUTER_BOUND ( 'NONE', #458, .T. ) ;
#206 = CIRCLE ( 'NONE', #224, 1.649999999999998579 ) ;
#207 = AXIS2_PLACEMENT_3D ( 'NONE', #124, #223, #201 ) ;
#208 = CYLINDRICAL_SURFACE ( 'NONE', #1135, 1.649999999999998579 ) ;
#209 = LINE ( 'NONE', #1175, #270 ) ;
#210 = DIRECTION ( 'NONE',  ( -0.000000000000000000, -1.000000000000000000, -0.000000000000000000 ) ) ;
#211 = CARTESIAN_POINT ( 'NONE',  ( -20.74999999999966604, -15.99999999999994138, 35.94005425705439194 ) ) ;
#212 = EDGE_CURVE ( 'NONE', #327, #95, #949, .T. ) ;
#213 = DIRECTION ( 'NONE',  ( 0.000000000000000000, 0.000000000000000000, -1.000000000000000000 ) ) ;
#214 = EDGE_LOOP ( 'NONE', ( #59, #1087 ) ) ;
#215 = DIRECTION ( 'NONE',  ( 0.000000000000000000, -1.000000000000000000, 0.000000000000000000 ) ) ;
#216 = LINE ( 'NONE', #615, #819 ) ;
#217 = DIRECTION ( 'NONE',  ( 0.000000000000000000, -1.000000000000000000, -0.000000000000000000 ) ) ;
#218 = LINE ( 'NONE', #603, #588 ) ;
#219 = ORIENTED_EDGE ( 'NONE', *, *, #212, .T. ) ;
#220 = CARTESIAN_POINT ( 'NONE',  ( 22.17894191624423783, -6.009999999999928733, -35.11505425705424699 ) ) ;
#221 = DIRECTION ( 'NONE',  ( 0.000000000000000000, -1.000000000000000000, -0.000000000000000000 ) ) ;
#222 = VERTEX_POINT ( 'NONE', #806 ) ;
#223 = DIRECTION ( 'NONE',  ( 0.000000000000000000, -1.000000000000000000, -0.000000000000000000 ) ) ;
#224 = AXIS2_PLACEMENT_3D ( 'NONE', #1073, #518, #907 ) ;
#225 = EDGE_LOOP ( 'NONE', ( #1022, #510, #261, #1182 ) ) ;
#226 = DIRECTION ( 'NONE',  ( 0.000000000000000000, 0.000000000000000000, 1.000000000000000000 ) ) ;
#227 = CIRCLE ( 'NONE', #274, 3.150000000000001243 ) ;
#228 = ADVANCED_FACE ( 'NONE', ( #312 ), #32, .T. ) ;
#229 = DIRECTION ( 'NONE',  ( -0.7071067811865311414, 0.000000000000000000, -0.7071067811865638930 ) ) ;
#230 = CARTESIAN_POINT ( 'NONE',  ( 4.555686092828153507E-15, -15.99999999999993072, 37.19999999999999574 ) ) ;
#231 = DIRECTION ( 'NONE',  ( -0.000000000000000000, -1.000000000000000000, -0.000000000000000000 ) ) ;
#232 = VERTEX_POINT ( 'NONE', #811 ) ;
#233 = LINE ( 'NONE', #429, #985 ) ;
#234 = EDGE_CURVE ( 'NONE', #64, #1220, #472, .T. ) ;
#235 = EDGE_LOOP ( 'NONE', ( #684, #1162, #828, #25 ) ) ;
#236 = DIRECTION ( 'NONE',  ( 0.000000000000000000, -1.000000000000000000, 0.000000000000000000 ) ) ;
#237 = VERTEX_POINT ( 'NONE', #268 ) ;
#238 = CARTESIAN_POINT ( 'NONE',  ( 0.000000000000000000, 0.000000000000000000, 0.000000000000000000 ) ) ;
#239 = ORIENTED_EDGE ( 'NONE', *, *, #800, .F. ) ;
#240 = CARTESIAN_POINT ( 'NONE',  ( -18.02201997807866718, -15.99999999999994493, 37.51505425705436636 ) ) ;
#241 = VERTEX_POINT ( 'NONE', #155 ) ;
#242 = CARTESIAN_POINT ( 'NONE',  ( -41.49999999999999289, -6.009999999999928733, 0.000000000000000000 ) ) ;
#243 = EDGE_CURVE ( 'NONE', #1196, #755, #162, .T. ) ;
#244 = FACE_BOUND ( 'NONE', #849, .T. ) ;
#245 = CONICAL_SURFACE ( 'NONE', #411, 3.149999999999999911, 0.7853981633974471688 ) ;
#246 = ORIENTED_EDGE ( 'NONE', *, *, #1161, .T. ) ;
#247 = CARTESIAN_POINT ( 'NONE',  ( -41.49999999999999289, -14.49999999999993960, -1.649999999999998579 ) ) ;
#248 = AXIS2_PLACEMENT_3D ( 'NONE', #669, #756, #1226 ) ;
#249 = AXIS2_PLACEMENT_3D ( 'NONE', #502, #307, #413 ) ;
#250 = VECTOR ( 'NONE', #573, 1000.000000000000000 ) ;
#251 = EDGE_LOOP ( 'NONE', ( #583, #529, #1122, #834 ) ) ;
#252 = DIRECTION ( 'NONE',  ( -0.8660254037844387076, 0.000000000000000000, -0.4999999999999998890 ) ) ;
#253 = CARTESIAN_POINT ( 'NONE',  ( -39.20000000000000284, -6.009999999999928733, 0.000000000000000000 ) ) ;
#254 = EDGE_CURVE ( 'NONE', #332, #605, #143, .T. ) ;
#255 = VERTEX_POINT ( 'NONE', #1199 ) ;
#256 = CARTESIAN_POINT ( 'NONE',  ( 0.000000000000000000, 0.000000000000000000, -39.19999999999999574 ) ) ;
#257 = ORIENTED_EDGE ( 'NONE', *, *, #919, .F. ) ;
#258 = DIRECTION ( 'NONE',  ( 0.8660254037844437036, 0.000000000000000000, 0.4999999999999911737 ) ) ;
#259 = DIRECTION ( 'NONE',  ( 0.000000000000000000, -1.000000000000000000, 0.000000000000000000 ) ) ;
#260 = PRODUCT_RELATED_PRODUCT_CATEGORY ( 'part', '', ( #581 ) ) ;
#261 = ORIENTED_EDGE ( 'NONE', *, *, #172, .F. ) ;
#262 = CARTESIAN_POINT ( 'NONE',  ( 0.000000000000000000, -15.99999999999995204, 0.000000000000000000 ) ) ;
#263 = UNCERTAINTY_MEASURE_WITH_UNIT (LENGTH_MEASURE( 1.000000000000000082E-05 ), #675, 'distance_accuracy_value', 'NONE');
#264 = DIRECTION ( 'NONE',  ( 0.000000000000000000, -1.000000000000000000, -0.000000000000000000 ) ) ;
#265 = VERTEX_POINT ( 'NONE', #835 ) ;
#266 = DIRECTION ( 'NONE',  ( -0.8660254037844360431, 0.000000000000000000, 0.5000000000000044409 ) ) ;
#267 = CARTESIAN_POINT ( 'NONE',  ( 20.75000000000041567, -14.49999999999993960, 35.94005425705395851 ) ) ;
#268 = CARTESIAN_POINT ( 'NONE',  ( -46.69999999999998863, -6.009999999999928733, -2.000000000000000000 ) ) ;
#269 = AXIS2_PLACEMENT_3D ( 'NONE', #1163, #1076, #889 ) ;
#270 = VECTOR ( 'NONE', #593, 1000.000000000000000 ) ;
#271 = EDGE_CURVE ( 'NONE', #121, #1024, #1016, .T. ) ;
#272 = AXIS2_PLACEMENT_3D ( 'NONE', #1034, #1151, #366 ) ;
#273 = ORIENTED_EDGE ( 'NONE', *, *, #1192, .F. ) ;
#274 = AXIS2_PLACEMENT_3D ( 'NONE', #158, #547, #631 ) ;
#275 = ORIENTED_EDGE ( 'NONE', *, *, #1229, .T. ) ;
#276 = LINE ( 'NONE', #1231, #799 ) ;
#277 = FACE_OUTER_BOUND ( 'NONE', #731, .T. ) ;
#278 = VERTEX_POINT ( 'NONE', #247 ) ;
#279 = SURFACE_SIDE_STYLE ('',( #1141 ) ) ;
#280 = CYLINDRICAL_SURFACE ( 'NONE', #272, 45.00000000000000000 ) ;
#281 = EDGE_LOOP ( 'NONE', ( #417, #609, #826, #360 ) ) ;
#282 = DIRECTION ( 'NONE',  ( -8.659560562354922997E-17, -0.7071067811865483499, -0.7071067811865466846 ) ) ;
#283 = FACE_OUTER_BOUND ( 'NONE', #5, .T. ) ;
#284 = EDGE_CURVE ( 'NONE', #1191, #709, #1113, .T. ) ;
#285 = VERTEX_POINT ( 'NONE', #169 ) ;
#286 = CARTESIAN_POINT ( 'NONE',  ( -20.75000000000016698, -15.99999999999994493, -35.94005425705411483 ) ) ;
#287 = ORIENTED_EDGE ( 'NONE', *, *, #960, .F. ) ;
#288 = CARTESIAN_POINT ( 'NONE',  ( 41.49999999999999289, -14.49999999999993960, 1.649999999999998579 ) ) ;
#289 = CIRCLE ( 'NONE', #781, 3.149999999999999911 ) ;
#290 = CARTESIAN_POINT ( 'NONE',  ( 41.49999999999999289, -15.99999999999994493, 3.149999999999999911 ) ) ;
#291 = VECTOR ( 'NONE', #1025, 999.9999999999998863 ) ;
#292 = ORIENTED_EDGE ( 'NONE', *, *, #18, .F. ) ;
#293 = ADVANCED_FACE ( 'NONE', ( #448 ), #444, .F. ) ;
#294 = PLANE ( 'NONE',  #1095 ) ;
#295 = CYLINDRICAL_SURFACE ( 'NONE', #1119, 39.19999999999999574 ) ;
#296 = ORIENTED_EDGE ( 'NONE', *, *, #504, .T. ) ;
#297 = DIRECTION ( 'NONE',  ( 0.000000000000000000, -1.000000000000000000, 0.000000000000000000 ) ) ;
#298 = EDGE_CURVE ( 'NONE', #1015, #957, #462, .T. ) ;
#299 = CARTESIAN_POINT ( 'NONE',  ( -19.32105808375533584, -14.49999999999993960, 36.76505425705437347 ) ) ;
#300 = EDGE_LOOP ( 'NONE', ( #287, #842, #184, #72 ) ) ;
#301 = CARTESIAN_POINT ( 'NONE',  ( 20.75000000000041567, -15.99999999999994493, 35.94005425705395851 ) ) ;
#302 = ORIENTED_EDGE ( 'NONE', *, *, #561, .F. ) ;
#303 = DIRECTION ( 'NONE',  ( 0.000000000000000000, -1.000000000000000000, 0.000000000000000000 ) ) ;
#304 = CARTESIAN_POINT ( 'NONE',  ( 41.49999999999999289, -15.99999999999994138, 1.649999999999998579 ) ) ;
#305 = EDGE_CURVE ( 'NONE', #132, #222, #654, .T. ) ;
#306 = CIRCLE ( 'NONE', #1216, 3.149999999999999911 ) ;
#307 = DIRECTION ( 'NONE',  ( -0.000000000000000000, -1.000000000000000000, -0.000000000000000000 ) ) ;
#308 = AXIS2_PLACEMENT_3D ( 'NONE', #113, #710, #418 ) ;
#309 = AXIS2_PLACEMENT_3D ( 'NONE', #93, #855, #1130 ) ;
#310 = DIRECTION ( 'NONE',  ( -0.000000000000000000, -1.000000000000000000, -0.000000000000000000 ) ) ;
#311 = ORIENTED_EDGE ( 'NONE', *, *, #971, .T. ) ;
#312 = FACE_OUTER_BOUND ( 'NONE', #147, .T. ) ;
#313 = ORIENTED_EDGE ( 'NONE', *, *, #386, .F. ) ;
#314 = EDGE_LOOP ( 'NONE', ( #1159, #1086, #115, #1057 ) ) ;
#315 = LINE ( 'NONE', #1083, #639 ) ;
#316 = ORIENTED_EDGE ( 'NONE', *, *, #460, .F. ) ;
#317 = CARTESIAN_POINT ( 'NONE',  ( -19.32105808375584743, -14.49999999999993960, -36.76505425705411767 ) ) ;
#318 = VERTEX_POINT ( 'NONE', #142 ) ;
#319 = FILL_AREA_STYLE_COLOUR ( '', #1210 ) ;
#320 = VERTEX_POINT ( 'NONE', #1127 ) ;
#321 = CARTESIAN_POINT ( 'NONE',  ( 5.510910596163089556E-15, 0.000000000000000000, 45.00000000000000000 ) ) ;
#322 = ORIENTED_EDGE ( 'NONE', *, *, #419, .F. ) ;
#323 = FACE_OUTER_BOUND ( 'NONE', #421, .T. ) ;
#324 = ADVANCED_FACE ( 'NONE', ( #338 ), #544, .F. ) ;
#325 = ORIENTED_EDGE ( 'NONE', *, *, #419, .T. ) ;
#326 = CARTESIAN_POINT ( 'NONE',  ( -46.70000000000001705, -1.517801994784243824, 2.000000000000000000 ) ) ;
#327 = VERTEX_POINT ( 'NONE', #364 ) ;
#328 = FACE_OUTER_BOUND ( 'NONE', #395, .T. ) ;
#329 = CARTESIAN_POINT ( 'NONE',  ( -45.00000000000000000, -15.99999999999994138, 0.000000000000000000 ) ) ;
#330 = AXIS2_PLACEMENT_3D ( 'NONE', #619, #535, #343 ) ;
#331 = EDGE_CURVE ( 'NONE', #1024, #383, #1051, .T. ) ;
#332 = VERTEX_POINT ( 'NONE', #68 ) ;
#333 = VECTOR ( 'NONE', #405, 1000.000000000000000 ) ;
#334 = CARTESIAN_POINT ( 'NONE',  ( -44.95553358597805271, -6.009999999999928733, 2.000000000000000000 ) ) ;
#335 = EDGE_LOOP ( 'NONE', ( #157, #549 ) ) ;
#336 = LINE ( 'NONE', #548, #571 ) ;
#337 = EDGE_LOOP ( 'NONE', ( #385, #933, #372, #22 ) ) ;
#338 = FACE_OUTER_BOUND ( 'NONE', #1128, .T. ) ;
#339 = EDGE_CURVE ( 'NONE', #241, #1191, #1007, .T. ) ;
#340 = EDGE_LOOP ( 'NONE', ( #625, #488 ) ) ;
#341 = ORIENTED_EDGE ( 'NONE', *, *, #1044, .F. ) ;
#342 = FACE_OUTER_BOUND ( 'NONE', #1052, .T. ) ;
#343 = DIRECTION ( 'NONE',  ( 0.000000000000000000, 0.000000000000000000, -1.000000000000000000 ) ) ;
#344 = ORIENTED_EDGE ( 'NONE', *, *, #284, .F. ) ;
#345 = DIRECTION ( 'NONE',  ( -0.8660254037844387076, 0.000000000000000000, -0.4999999999999998890 ) ) ;
#346 = EDGE_CURVE ( 'NONE', #723, #197, #551, .T. ) ;
#347 = DIRECTION ( 'NONE',  ( 0.000000000000000000, -1.000000000000000000, -0.000000000000000000 ) ) ;
#348 = FACE_BOUND ( 'NONE', #194, .T. ) ;
#349 = AXIS2_PLACEMENT_3D ( 'NONE', #361, #1129, #659 ) ;
#350 = CIRCLE ( 'NONE', #820, 3.149999999999998135 ) ;
#351 = CARTESIAN_POINT ( 'NONE',  ( -20.74999999999966604, -6.009999999999928733, 35.94005425705439194 ) ) ;
#352 = CIRCLE ( 'NONE', #951, 3.149999999999999911 ) ;
#353 = AXIS2_PLACEMENT_3D ( 'NONE', #863, #1237, #771 ) ;
#354 = COLOUR_RGB ( '',0.4980392156862745168, 0.4980392156862745168, 0.4980392156862745168 ) ;
#355 = ORIENTED_EDGE ( 'NONE', *, *, #919, .T. ) ;
#356 = CYLINDRICAL_SURFACE ( 'NONE', #491, 1.649999999999999023 ) ;
#357 = DIRECTION ( 'NONE',  ( -0.8660254037844387076, 0.000000000000000000, -0.4999999999999998890 ) ) ;
#358 = ORIENTED_EDGE ( 'NONE', *, *, #386, .T. ) ;
#359 = FACE_OUTER_BOUND ( 'NONE', #758, .T. ) ;
#360 = ORIENTED_EDGE ( 'NONE', *, *, #1147, .T. ) ;
#361 = CARTESIAN_POINT ( 'NONE',  ( 0.000000000000000000, 0.000000000000000000, 0.000000000000000000 ) ) ;
#362 = CARTESIAN_POINT ( 'NONE',  ( 20.74999999999991473, -14.49999999999993960, -35.94005425705424273 ) ) ;
#363 = EDGE_CURVE ( 'NONE', #237, #673, #1131, .T. ) ;
#364 = CARTESIAN_POINT ( 'NONE',  ( -22.17894191624399625, -14.49999999999993960, 35.11505425705440331 ) ) ;
#365 = EDGE_LOOP ( 'NONE', ( #485, #150, #1101, #892 ) ) ;
#366 = DIRECTION ( 'NONE',  ( 0.000000000000000000, 0.000000000000000000, -1.000000000000000000 ) ) ;
#367 = ORIENTED_EDGE ( 'NONE', *, *, #397, .T. ) ;
#368 = DIRECTION ( 'NONE',  ( -0.8660254037844363761, 0.000000000000000000, 0.5000000000000039968 ) ) ;
#369 = ADVANCED_FACE ( 'NONE', ( #359 ), #51, .F. ) ;
#370 = VECTOR ( 'NONE', #901, 1000.000000000000114 ) ;
#371 = AXIS2_PLACEMENT_3D ( 'NONE', #997, #461, #824 ) ;
#372 = ORIENTED_EDGE ( 'NONE', *, *, #1014, .T. ) ;
#373 =( NAMED_UNIT ( * ) PLANE_ANGLE_UNIT ( ) SI_UNIT ( $, .RADIAN. ) );
#374 = CIRCLE ( 'NONE', #1156, 45.00000000000000000 ) ;
#375 = DIRECTION ( 'NONE',  ( 0.000000000000000000, -1.000000000000000000, 0.000000000000000000 ) ) ;
#376 = EDGE_LOOP ( 'NONE', ( #900, #665, #597, #1089 ) ) ;
#377 = DIRECTION ( 'NONE',  ( 0.000000000000000000, -1.000000000000000000, 0.000000000000000000 ) ) ;
#378 = VERTEX_POINT ( 'NONE', #240 ) ;
#379 = ORIENTED_EDGE ( 'NONE', *, *, #466, .F. ) ;
#380 = EDGE_CURVE ( 'NONE', #990, #96, #391, .T. ) ;
#381 = SURFACE_STYLE_USAGE ( .BOTH. , #279 ) ;
#382 = DIRECTION ( 'NONE',  ( 0.8660254037844322683, 0.000000000000000000, -0.5000000000000108802 ) ) ;
#383 = VERTEX_POINT ( 'NONE', #179 ) ;
#384 = DIRECTION ( 'NONE',  ( 0.000000000000000000, 0.000000000000000000, -1.000000000000000000 ) ) ;
#385 = ORIENTED_EDGE ( 'NONE', *, *, #397, .F. ) ;
#386 = EDGE_CURVE ( 'NONE', #723, #773, #1174, .T. ) ;
#387 = DIRECTION ( 'NONE',  ( 0.000000000000000000, -1.000000000000000000, -0.000000000000000000 ) ) ;
#388 = DIRECTION ( 'NONE',  ( -0.000000000000000000, -1.000000000000000000, -0.000000000000000000 ) ) ;
#389 = ORIENTED_EDGE ( 'NONE', *, *, #83, .F. ) ;
#390 = AXIS2_PLACEMENT_3D ( 'NONE', #996, #347, #1098 ) ;
#391 = CIRCLE ( 'NONE', #1115, 1.649999999999997025 ) ;
#392 = AXIS2_PLACEMENT_3D ( 'NONE', #432, #1013, #140 ) ;
#393 = DIRECTION ( 'NONE',  ( -0.000000000000000000, -1.000000000000000000, 0.000000000000000000 ) ) ;
#394 = CIRCLE ( 'NONE', #1233, 3.150000000000001243 ) ;
#395 = EDGE_LOOP ( 'NONE', ( #468, #367, #1081, #650 ) ) ;
#396 = DIRECTION ( 'NONE',  ( -0.000000000000000000, -1.000000000000000000, 0.000000000000000000 ) ) ;
#397 = EDGE_CURVE ( 'NONE', #278, #565, #853, .T. ) ;
#398 = CARTESIAN_POINT ( 'NONE',  ( 0.000000000000000000, -15.99999999999993072, -37.19999999999999574 ) ) ;
#399 = CARTESIAN_POINT ( 'NONE',  ( 41.49999999999999289, -15.99999999999994493, 0.000000000000000000 ) ) ;
#400 = ORIENTED_EDGE ( 'NONE', *, *, #18, .T. ) ;
#401 = CARTESIAN_POINT ( 'NONE',  ( -19.32105808375533584, -6.009999999999928733, 36.76505425705437347 ) ) ;
#402 = EDGE_CURVE ( 'NONE', #1099, #64, #1047, .T. ) ;
#403 =( LENGTH_UNIT ( ) NAMED_UNIT ( * ) SI_UNIT ( .MILLI., .METRE. ) );
#404 = CARTESIAN_POINT ( 'NONE',  ( 22.17894191624473166, -14.49999999999993960, 35.11505425705394856 ) ) ;
#405 = DIRECTION ( 'NONE',  ( -0.000000000000000000, -1.000000000000000000, -0.000000000000000000 ) ) ;
#406 = ORIENTED_EDGE ( 'NONE', *, *, #888, .F. ) ;
#407 = FACE_BOUND ( 'NONE', #769, .T. ) ;
#408 = DIRECTION ( 'NONE',  ( 0.000000000000000000, -1.000000000000000000, 0.000000000000000000 ) ) ;
#409 = ORIENTED_EDGE ( 'NONE', *, *, #492, .F. ) ;
#410 = ADVANCED_FACE ( 'NONE', ( #482 ), #870, .F. ) ;
#411 = AXIS2_PLACEMENT_3D ( 'NONE', #711, #210, #594 ) ;
#412 = AXIS2_PLACEMENT_3D ( 'NONE', #1023, #913, #538 ) ;
#413 = DIRECTION ( 'NONE',  ( 0.000000000000000000, 0.000000000000000000, -1.000000000000000000 ) ) ;
#414 = ORIENTED_EDGE ( 'NONE', *, *, #663, .T. ) ;
#415 = VECTOR ( 'NONE', #217, 1000.000000000000000 ) ;
#416 = DIRECTION ( 'NONE',  ( 0.000000000000000000, -1.000000000000000000, 0.000000000000000000 ) ) ;
#417 = ORIENTED_EDGE ( 'NONE', *, *, #156, .F. ) ;
#418 = DIRECTION ( 'NONE',  ( -0.8660254037844363761, 0.000000000000000000, 0.5000000000000039968 ) ) ;
#419 = EDGE_CURVE ( 'NONE', #773, #723, #967, .T. ) ;
#420 = FACE_OUTER_BOUND ( 'NONE', #251, .T. ) ;
#421 = EDGE_LOOP ( 'NONE', ( #677, #682, #296, #533, #851, #1232, #1009, #725 ) ) ;
#422 = CYLINDRICAL_SURFACE ( 'NONE', #89, 1.649999999999998579 ) ;
#423 = DIRECTION ( 'NONE',  ( -0.000000000000000000, 0.000000000000000000, 1.000000000000000000 ) ) ;
#424 = DIRECTION ( 'NONE',  ( -0.000000000000000000, -1.000000000000000000, -0.000000000000000000 ) ) ;
#425 = EDGE_CURVE ( 'NONE', #75, #813, #1228, .T. ) ;
#426 = VERTEX_POINT ( 'NONE', #81 ) ;
#427 = CARTESIAN_POINT ( 'NONE',  ( -47.00000000000000000, -1.517801994784243824, -1.700000000000005285 ) ) ;
#428 = VERTEX_POINT ( 'NONE', #575 ) ;
#429 = CARTESIAN_POINT ( 'NONE',  ( -47.00000000000000000, -15.99999999999994138, -1.700000000000005285 ) ) ;
#430 = CARTESIAN_POINT ( 'NONE',  ( 0.000000000000000000, -13.99999999999992895, -37.19999999999999574 ) ) ;
#431 = ORIENTED_EDGE ( 'NONE', *, *, #331, .F. ) ;
#432 = CARTESIAN_POINT ( 'NONE',  ( 0.000000000000000000, -13.99999999999993072, 0.000000000000000000 ) ) ;
#433 = AXIS2_PLACEMENT_3D ( 'NONE', #945, #4, #664 ) ;
#434 = ORIENTED_EDGE ( 'NONE', *, *, #1147, .F. ) ;
#435 = EDGE_CURVE ( 'NONE', #854, #613, #87, .T. ) ;
#436 = DIRECTION ( 'NONE',  ( 0.000000000000000000, -1.000000000000000000, 0.000000000000000000 ) ) ;
#437 = AXIS2_PLACEMENT_3D ( 'NONE', #42, #624, #148 ) ;
#438 = LINE ( 'NONE', #1008, #1006 ) ;
#439 = ORIENTED_EDGE ( 'NONE', *, *, #847, .F. ) ;
#440 = DIRECTION ( 'NONE',  ( 0.000000000000000000, 0.000000000000000000, 1.000000000000000000 ) ) ;
#441 = PRODUCT_DEFINITION_SHAPE ( 'NONE', 'NONE',  #1000 ) ;
#442 = FACE_OUTER_BOUND ( 'NONE', #57, .T. ) ;
#443 = ORIENTED_EDGE ( 'NONE', *, *, #1126, .F. ) ;
#444 = CYLINDRICAL_SURFACE ( 'NONE', #30, 1.649999999999999467 ) ;
#445 = ADVANCED_FACE ( 'NONE', ( #94 ), #567, .T. ) ;
#446 = DIRECTION ( 'NONE',  ( 1.000000000000000000, 0.000000000000000000, 0.000000000000000000 ) ) ;
#447 = CARTESIAN_POINT ( 'NONE',  ( 41.49999999999999289, -6.009999999999928733, -1.649999999999998579 ) ) ;
#448 = FACE_OUTER_BOUND ( 'NONE', #476, .T. ) ;
#449 = ORIENTED_EDGE ( 'NONE', *, *, #928, .F. ) ;
#450 = LINE ( 'NONE', #742, #128 ) ;
#451 = CARTESIAN_POINT ( 'NONE',  ( 23.47798002192090294, -15.99999999999994493, -34.36505425705425409 ) ) ;
#452 = STYLED_ITEM ( 'NONE', ( #499 ), #110 ) ;
#453 = EDGE_LOOP ( 'NONE', ( #493, #810, #136, #1079 ) ) ;
#454 = AXIS2_PLACEMENT_3D ( 'NONE', #1137, #952, #1061 ) ;
#455 = CARTESIAN_POINT ( 'NONE',  ( 23.47798002192090294, -15.99999999999994493, -34.36505425705425409 ) ) ;
#456 = VECTOR ( 'NONE', #118, 1000.000000000000000 ) ;
#457 = AXIS2_PLACEMENT_3D ( 'NONE', #722, #236, #258 ) ;
#458 = EDGE_LOOP ( 'NONE', ( #1064, #770, #219, #1110 ) ) ;
#459 = LINE ( 'NONE', #556, #877 ) ;
#460 = EDGE_CURVE ( 'NONE', #565, #546, #653, .T. ) ;
#461 = DIRECTION ( 'NONE',  ( 0.000000000000000000, -1.000000000000000000, -0.000000000000000000 ) ) ;
#462 = LINE ( 'NONE', #1209, #104 ) ;
#463 = ORIENTED_EDGE ( 'NONE', *, *, #866, .F. ) ;
#464 = APPLICATION_CONTEXT ( 'automotive_design' ) ;
#465 = DIRECTION ( 'NONE',  ( 0.8660254037844334896, 0.000000000000000000, -0.5000000000000089928 ) ) ;
#466 = EDGE_CURVE ( 'NONE', #741, #709, #350, .T. ) ;
#467 = CARTESIAN_POINT ( 'NONE',  ( 20.74999999999991473, -15.99999999999994493, -35.94005425705424273 ) ) ;
#468 = ORIENTED_EDGE ( 'NONE', *, *, #1002, .F. ) ;
#469 = DIRECTION ( 'NONE',  ( 8.659560562354922997E-17, -0.7071067811865483499, 0.7071067811865466846 ) ) ;
#470 = CARTESIAN_POINT ( 'NONE',  ( 20.74999999999991473, -6.009999999999928733, -35.94005425705424273 ) ) ;
#471 = ADVANCED_FACE ( 'NONE', ( #1234 ), #1152, .F. ) ;
#472 = CIRCLE ( 'NONE', #1133, 37.19999999999999574 ) ;
#473 = ORIENTED_EDGE ( 'NONE', *, *, #199, .T. ) ;
#474 = AXIS2_PLACEMENT_3D ( 'NONE', #122, #808, #707 ) ;
#475 = PLANE ( 'NONE',  #353 ) ;
#476 = EDGE_LOOP ( 'NONE', ( #443, #661, #126, #837 ) ) ;
#477 = LINE ( 'NONE', #864, #780 ) ;
#478 = ADVANCED_FACE ( 'NONE', ( #1055 ), #778, .F. ) ;
#479 = CARTESIAN_POINT ( 'NONE',  ( 0.000000000000000000, -6.009999999999929621, 0.000000000000000000 ) ) ;
#480 = EDGE_LOOP ( 'NONE', ( #311, #1238, #1208, #483 ) ) ;
#481 = ORIENTED_EDGE ( 'NONE', *, *, #71, .F. ) ;
#482 = FACE_OUTER_BOUND ( 'NONE', #1198, .T. ) ;
#483 = ORIENTED_EDGE ( 'NONE', *, *, #663, .F. ) ;
#484 = DIRECTION ( 'NONE',  ( 0.000000000000000000, -1.000000000000000000, 0.000000000000000000 ) ) ;
#485 = ORIENTED_EDGE ( 'NONE', *, *, #649, .F. ) ;
#486 = CARTESIAN_POINT ( 'NONE',  ( 0.000000000000000000, 0.000000000000000000, 0.000000000000000000 ) ) ;
#487 = AXIS2_PLACEMENT_3D ( 'NONE', #1041, #563, #987 ) ;
#488 = ORIENTED_EDGE ( 'NONE', *, *, #941, .T. ) ;
#489 = CIRCLE ( 'NONE', #1193, 37.19999999999999574 ) ;
#490 = DIRECTION ( 'NONE',  ( -0.000000000000000000, -1.000000000000000000, -0.000000000000000000 ) ) ;
#491 = AXIS2_PLACEMENT_3D ( 'NONE', #524, #135, #252 ) ;
#492 = EDGE_CURVE ( 'NONE', #667, #241, #91, .T. ) ;
#493 = ORIENTED_EDGE ( 'NONE', *, *, #1109, .F. ) ;
#494 = DIRECTION ( 'NONE',  ( 0.000000000000000000, 0.000000000000000000, -1.000000000000000000 ) ) ;
#495 = ORIENTED_EDGE ( 'NONE', *, *, #49, .F. ) ;
#496 = CARTESIAN_POINT ( 'NONE',  ( -20.75000000000016698, -14.49999999999993960, -35.94005425705411483 ) ) ;
#497 = LINE ( 'NONE', #965, #718 ) ;
#498 = LINE ( 'NONE', #1084, #509 ) ;
#499 = PRESENTATION_STYLE_ASSIGNMENT (( #1082 ) ) ;
#500 = DIRECTION ( 'NONE',  ( 0.000000000000000000, -1.000000000000000000, 0.000000000000000000 ) ) ;
#501 = ORIENTED_EDGE ( 'NONE', *, *, #234, .T. ) ;
#502 = CARTESIAN_POINT ( 'NONE',  ( 0.000000000000000000, -13.99999999999993072, 0.000000000000000000 ) ) ;
#503 = LINE ( 'NONE', #966, #716 ) ;
#504 = EDGE_CURVE ( 'NONE', #320, #44, #477, .T. ) ;
#505 = CARTESIAN_POINT ( 'NONE',  ( 0.000000000000000000, -15.99999999999995204, 0.000000000000000000 ) ) ;
#506 = AXIS2_PLACEMENT_3D ( 'NONE', #505, #807, #20 ) ;
#507 = AXIS2_PLACEMENT_3D ( 'NONE', #699, #600, #423 ) ;
#508 = CARTESIAN_POINT ( 'NONE',  ( 0.000000000000000000, -15.99999999999995204, -45.00000000000000000 ) ) ;
#509 = VECTOR ( 'NONE', #983, 1000.000000000000000 ) ;
#510 = ORIENTED_EDGE ( 'NONE', *, *, #119, .F. ) ;
#511 = AXIS2_PLACEMENT_3D ( 'NONE', #242, #541, #440 ) ;
#512 = CYLINDRICAL_SURFACE ( 'NONE', #207, 1.649999999999997025 ) ;
#513 = CIRCLE ( 'NONE', #390, 1.649999999999997025 ) ;
#514 = SURFACE_STYLE_FILL_AREA ( #1187 ) ;
#515 = ADVANCED_FACE ( 'NONE', ( #876 ), #662, .F. ) ;
#516 = CARTESIAN_POINT ( 'NONE',  ( -20.75000000000016698, -15.99999999999994138, -35.94005425705411483 ) ) ;
#517 = CARTESIAN_POINT ( 'NONE',  ( 41.49999999999999289, -14.49999999999993960, 0.000000000000000000 ) ) ;
#518 = DIRECTION ( 'NONE',  ( 0.000000000000000000, -1.000000000000000000, 0.000000000000000000 ) ) ;
#519 = CARTESIAN_POINT ( 'NONE',  ( -41.49999999999999289, -14.49999999999993960, 1.649999999999998579 ) ) ;
#520 = DIRECTION ( 'NONE',  ( 0.000000000000000000, -1.000000000000000000, 0.000000000000000000 ) ) ;
#521 = ADVANCED_FACE ( 'NONE', ( #277 ), #294, .T. ) ;
#522 = APPLICATION_CONTEXT ( 'automotive_design' ) ;
#523 = FACE_BOUND ( 'NONE', #912, .T. ) ;
#524 = CARTESIAN_POINT ( 'NONE',  ( 20.74999999999991473, -15.99999999999994138, -35.94005425705424273 ) ) ;
#525 = DIRECTION ( 'NONE',  ( 0.000000000000000000, -1.000000000000000000, 0.000000000000000000 ) ) ;
#526 = CIRCLE ( 'NONE', #308, 1.649999999999999467 ) ;
#527 = EDGE_CURVE ( 'NONE', #667, #160, #1035, .T. ) ;
#528 = AXIS2_PLACEMENT_3D ( 'NONE', #362, #56, #357 ) ;
#529 = ORIENTED_EDGE ( 'NONE', *, *, #1126, .T. ) ;
#530 = DIRECTION ( 'NONE',  ( 0.000000000000000000, -1.000000000000000000, 0.000000000000000000 ) ) ;
#531 = AXIS2_PLACEMENT_3D ( 'NONE', #479, #610, #1078 ) ;
#532 = CARTESIAN_POINT ( 'NONE',  ( -44.95553358597805271, -1.517801994784243824, 2.000000000000000000 ) ) ;
#533 = ORIENTED_EDGE ( 'NONE', *, *, #1185, .T. ) ;
#534 = CARTESIAN_POINT ( 'NONE',  ( 0.000000000000000000, -15.99999999999995204, 0.000000000000000000 ) ) ;
#535 = DIRECTION ( 'NONE',  ( -0.000000000000000000, -1.000000000000000000, -0.000000000000000000 ) ) ;
#536 = EDGE_CURVE ( 'NONE', #1224, #197, #1053, .T. ) ;
#537 = EDGE_LOOP ( 'NONE', ( #767, #313, #1067, #703 ) ) ;
#538 = DIRECTION ( 'NONE',  ( 0.8660254037844334896, 0.000000000000000000, -0.5000000000000089928 ) ) ;
#539 = CARTESIAN_POINT ( 'NONE',  ( 20.75000000000041567, -15.99999999999994493, 35.94005425705395851 ) ) ;
#540 = ORIENTED_EDGE ( 'NONE', *, *, #954, .F. ) ;
#541 = DIRECTION ( 'NONE',  ( 0.000000000000000000, -1.000000000000000000, 0.000000000000000000 ) ) ;
#542 = CARTESIAN_POINT ( 'NONE',  ( -20.75000000000016698, -6.009999999999928733, -35.94005425705411483 ) ) ;
#543 = ORIENTED_EDGE ( 'NONE', *, *, #1192, .T. ) ;
#544 = CYLINDRICAL_SURFACE ( 'NONE', #856, 1.649999999999999023 ) ;
#545 = EDGE_CURVE ( 'NONE', #378, #787, #289, .T. ) ;
#546 = VERTEX_POINT ( 'NONE', #887 ) ;
#547 = DIRECTION ( 'NONE',  ( 0.000000000000000000, -1.000000000000000000, -0.000000000000000000 ) ) ;
#548 = CARTESIAN_POINT ( 'NONE',  ( -22.17894191624448652, -15.99999999999994138, -35.11505425705410488 ) ) ;
#549 = ORIENTED_EDGE ( 'NONE', *, *, #1235, .F. ) ;
#550 = VECTOR ( 'NONE', #46, 1000.000000000000114 ) ;
#551 = LINE ( 'NONE', #648, #878 ) ;
#552 = AXIS2_PLACEMENT_3D ( 'NONE', #846, #729, #1112 ) ;
#553 = CONICAL_SURFACE ( 'NONE', #189, 3.150000000000001243, 0.7853981633974471688 ) ;
#554 = ADVANCED_FACE ( 'NONE', ( #992 ), #512, .F. ) ;
#555 = ORIENTED_EDGE ( 'NONE', *, *, #97, .T. ) ;
#556 = CARTESIAN_POINT ( 'NONE',  ( -47.00000000000000000, -1.517801994784243824, 1.700000000000005285 ) ) ;
#557 = DIRECTION ( 'NONE',  ( 0.6123724356957970238, -0.7071067811865483499, 0.3535533905932676801 ) ) ;
#558 = DIRECTION ( 'NONE',  ( 0.000000000000000000, 0.000000000000000000, -1.000000000000000000 ) ) ;
#559 = VERTEX_POINT ( 'NONE', #905 ) ;
#560 = CARTESIAN_POINT ( 'NONE',  ( 41.49999999999999289, -15.99999999999994493, 0.000000000000000000 ) ) ;
#561 = EDGE_CURVE ( 'NONE', #160, #1191, #503, .T. ) ;
#562 = DIRECTION ( 'NONE',  ( -0.000000000000000000, 0.000000000000000000, 1.000000000000000000 ) ) ;
#563 = DIRECTION ( 'NONE',  ( -0.000000000000000000, -1.000000000000000000, 0.000000000000000000 ) ) ;
#564 = LINE ( 'NONE', #750, #250 ) ;
#565 = VERTEX_POINT ( 'NONE', #899 ) ;
#566 = EDGE_CURVE ( 'NONE', #673, #957, #45, .T. ) ;
#567 = CYLINDRICAL_SURFACE ( 'NONE', #914, 45.00000000000000000 ) ;
#568 = AXIS2_PLACEMENT_3D ( 'NONE', #496, #705, #1178 ) ;
#569 = AXIS2_PLACEMENT_3D ( 'NONE', #683, #388, #384 ) ;
#570 = ORIENTED_EDGE ( 'NONE', *, *, #527, .F. ) ;
#571 = VECTOR ( 'NONE', #525, 1000.000000000000000 ) ;
#572 = CARTESIAN_POINT ( 'NONE',  ( -41.49999999999999289, -6.009999999999928733, -1.649999999999998579 ) ) ;
#573 = DIRECTION ( 'NONE',  ( 0.000000000000000000, -1.000000000000000000, 0.000000000000000000 ) ) ;
#574 = ORIENTED_EDGE ( 'NONE', *, *, #536, .T. ) ;
#575 = CARTESIAN_POINT ( 'NONE',  ( -46.70000000000001705, -6.009999999999928733, 2.000000000000000000 ) ) ;
#576 = VERTEX_POINT ( 'NONE', #19 ) ;
#577 = DIRECTION ( 'NONE',  ( -0.000000000000000000, -1.000000000000000000, -0.000000000000000000 ) ) ;
#578 = DIRECTION ( 'NONE',  ( -0.000000000000000000, -1.000000000000000000, -0.000000000000000000 ) ) ;
#579 = DIRECTION ( 'NONE',  ( 0.000000000000000000, -1.000000000000000000, 0.000000000000000000 ) ) ;
#580 = EDGE_CURVE ( 'NONE', #1099, #576, #489, .T. ) ;
#581 = PRODUCT ( 'SO102.02.050 Bottom ring', 'SO102.02.050 Bottom ring', '', ( #765 ) ) ;
#582 = CARTESIAN_POINT ( 'NONE',  ( 19.32105808375610323, -15.99999999999994138, 36.76505425705397556 ) ) ;
#583 = ORIENTED_EDGE ( 'NONE', *, *, #679, .F. ) ;
#584 = DIRECTION ( 'NONE',  ( 0.000000000000000000, 0.000000000000000000, 1.000000000000000000 ) ) ;
#585 = DIRECTION ( 'NONE',  ( -0.000000000000000000, -1.000000000000000000, 0.000000000000000000 ) ) ;
#586 = ORIENTED_EDGE ( 'NONE', *, *, #339, .T. ) ;
#587 = VECTOR ( 'NONE', #614, 1000.000000000000000 ) ;
#588 = VECTOR ( 'NONE', #259, 1000.000000000000000 ) ;
#589 = EDGE_CURVE ( 'NONE', #576, #1099, #125, .T. ) ;
#590 = DIRECTION ( 'NONE',  ( 0.000000000000000000, -1.000000000000000000, 0.000000000000000000 ) ) ;
#591 = ORIENTED_EDGE ( 'NONE', *, *, #271, .F. ) ;
#592 = DIRECTION ( 'NONE',  ( 0.000000000000000000, -0.000000000000000000, 1.000000000000000000 ) ) ;
#593 = DIRECTION ( 'NONE',  ( -0.000000000000000000, -1.000000000000000000, -0.000000000000000000 ) ) ;
#594 = DIRECTION ( 'NONE',  ( 0.000000000000000000, 0.000000000000000000, -1.000000000000000000 ) ) ;
#595 = ORIENTED_EDGE ( 'NONE', *, *, #679, .T. ) ;
#596 = DIRECTION ( 'NONE',  ( -1.000000000000000000, -0.000000000000000000, -0.000000000000000000 ) ) ;
#597 = ORIENTED_EDGE ( 'NONE', *, *, #305, .T. ) ;
#598 = LINE ( 'NONE', #978, #456 ) ;
#599 = ADVANCED_FACE ( 'NONE', ( #688 ), #422, .F. ) ;
#600 = DIRECTION ( 'NONE',  ( -1.000000000000000000, 0.000000000000000000, -0.000000000000000000 ) ) ;
#601 = CARTESIAN_POINT ( 'NONE',  ( 4.800615452657625381E-15, -6.009999999999928733, 39.20000000000000284 ) ) ;
#602 = DIRECTION ( 'NONE',  ( 0.6123724356957921389, -0.7071067811865483499, -0.3535533905932763399 ) ) ;
#603 = CARTESIAN_POINT ( 'NONE',  ( -41.49999999999999289, -15.99999999999994138, -1.649999999999998579 ) ) ;
#604 = ADVANCED_FACE ( 'NONE', ( #612, #815, #697, #111, #407, #1072, #1190, #323 ), #793, .F. ) ;
#605 = VERTEX_POINT ( 'NONE', #401 ) ;
#606 = CARTESIAN_POINT ( 'NONE',  ( -47.00000000000000000, -6.009999999999928733, 2.000000000000000000 ) ) ;
#607 = ORIENTED_EDGE ( 'NONE', *, *, #960, .T. ) ;
#608 = AXIS2_PLACEMENT_3D ( 'NONE', #286, #377, #666 ) ;
#609 = ORIENTED_EDGE ( 'NONE', *, *, #816, .F. ) ;
#610 = DIRECTION ( 'NONE',  ( -0.000000000000000000, -1.000000000000000000, -0.000000000000000000 ) ) ;
#611 = ORIENTED_EDGE ( 'NONE', *, *, #922, .F. ) ;
#612 = FACE_BOUND ( 'NONE', #1046, .T. ) ;
#613 = VERTEX_POINT ( 'NONE', #317 ) ;
#614 = DIRECTION ( 'NONE',  ( 0.000000000000000000, 1.000000000000000000, 0.000000000000000000 ) ) ;
#615 = CARTESIAN_POINT ( 'NONE',  ( -23.47798002192114097, -15.99999999999994493, -34.36505425705409777 ) ) ;
#616 = ADVANCED_FACE ( 'NONE', ( #790 ), #208, .F. ) ;
#617 = CYLINDRICAL_SURFACE ( 'NONE', #183, 1.649999999999998135 ) ;
#618 = ORIENTED_EDGE ( 'NONE', *, *, #1140, .F. ) ;
#619 = CARTESIAN_POINT ( 'NONE',  ( 41.49999999999999289, -15.99999999999994138, 0.000000000000000000 ) ) ;
#620 = ORIENTED_EDGE ( 'NONE', *, *, #101, .F. ) ;
#621 = CARTESIAN_POINT ( 'NONE',  ( 41.49999999999999289, -14.49999999999993960, -1.649999999999998579 ) ) ;
#622 = EDGE_CURVE ( 'NONE', #559, #428, #498, .T. ) ;
#623 = ORIENTED_EDGE ( 'NONE', *, *, #1044, .T. ) ;
#624 = DIRECTION ( 'NONE',  ( 0.000000000000000000, -1.000000000000000000, 0.000000000000000000 ) ) ;
#625 = ORIENTED_EDGE ( 'NONE', *, *, #527, .T. ) ;
#626 = LINE ( 'NONE', #1004, #13 ) ;
#627 = ORIENTED_EDGE ( 'NONE', *, *, #777, .F. ) ;
#628 = DIRECTION ( 'NONE',  ( 0.000000000000000000, -1.000000000000000000, -0.000000000000000000 ) ) ;
#629 = ORIENTED_EDGE ( 'NONE', *, *, #466, .T. ) ;
#630 = VECTOR ( 'NONE', #579, 1000.000000000000000 ) ;
#631 = DIRECTION ( 'NONE',  ( 0.8660254037844322683, 0.000000000000000000, -0.5000000000000108802 ) ) ;
#632 = EDGE_CURVE ( 'NONE', #132, #75, #655, .T. ) ;
#633 = VECTOR ( 'NONE', #446, 1000.000000000000000 ) ;
#634 = AXIS2_PLACEMENT_3D ( 'NONE', #262, #1225, #726 ) ;
#635 = FACE_OUTER_BOUND ( 'NONE', #3, .T. ) ;
#636 = AXIS2_PLACEMENT_3D ( 'NONE', #768, #198, #670 ) ;
#637 = CONICAL_SURFACE ( 'NONE', #552, 3.149999999999999911, 0.7853981633974471688 ) ;
#638 = CARTESIAN_POINT ( 'NONE',  ( 20.75000000000041567, -14.49999999999993960, 35.94005425705395851 ) ) ;
#639 = VECTOR ( 'NONE', #602, 1000.000000000000000 ) ;
#640 = ORIENTED_EDGE ( 'NONE', *, *, #954, .T. ) ;
#641 = CARTESIAN_POINT ( 'NONE',  ( 41.49999999999999289, -15.99999999999994493, 3.149999999999999911 ) ) ;
#642 = DIRECTION ( 'NONE',  ( 0.000000000000000000, -1.000000000000000000, -0.000000000000000000 ) ) ;
#643 = ORIENTED_EDGE ( 'NONE', *, *, #284, .T. ) ;
#644 = EDGE_CURVE ( 'NONE', #605, #95, #598, .T. ) ;
#645 = CARTESIAN_POINT ( 'NONE',  ( 18.02201997807893008, -15.99999999999994493, -37.51505425705423846 ) ) ;
#646 = DIRECTION ( 'NONE',  ( -0.000000000000000000, -1.000000000000000000, -0.000000000000000000 ) ) ;
#647 = EDGE_LOOP ( 'NONE', ( #687, #202 ) ) ;
#648 = CARTESIAN_POINT ( 'NONE',  ( 41.49999999999999289, -15.99999999999994138, -1.649999999999998579 ) ) ;
#649 = EDGE_CURVE ( 'NONE', #1236, #278, #218, .T. ) ;
#650 = ORIENTED_EDGE ( 'NONE', *, *, #1014, .F. ) ;
#651 = CARTESIAN_POINT ( 'NONE',  ( 4.800615452657624592E-15, -13.99999999999993072, 39.19999999999999574 ) ) ;
#652 = CONICAL_SURFACE ( 'NONE', #487, 3.149999999999998135, 0.7853981633974471688 ) ;
#653 = CIRCLE ( 'NONE', #839, 3.149999999999999911 ) ;
#654 = LINE ( 'NONE', #256, #672 ) ;
#655 = CIRCLE ( 'NONE', #988, 39.20000000000000284 ) ;
#656 = CONICAL_SURFACE ( 'NONE', #989, 3.149999999999998135, 0.7853981633974471688 ) ;
#657 = EDGE_LOOP ( 'NONE', ( #975, #316 ) ) ;
#658 = ADVANCED_FACE ( 'NONE', ( #1217 ), #1124, .F. ) ;
#659 = DIRECTION ( 'NONE',  ( 1.000000000000000000, 0.000000000000000000, 0.000000000000000000 ) ) ;
#660 = FACE_OUTER_BOUND ( 'NONE', #480, .T. ) ;
#661 = ORIENTED_EDGE ( 'NONE', *, *, #192, .F. ) ;
#662 = CYLINDRICAL_SURFACE ( 'NONE', #693, 1.649999999999997025 ) ;
#663 = EDGE_CURVE ( 'NONE', #255, #44, #626, .T. ) ;
#664 = DIRECTION ( 'NONE',  ( 0.8660254037844433705, 0.000000000000000000, 0.4999999999999917843 ) ) ;
#665 = ORIENTED_EDGE ( 'NONE', *, *, #632, .F. ) ;
#666 = DIRECTION ( 'NONE',  ( -0.8660254037844360431, 0.000000000000000000, 0.5000000000000044409 ) ) ;
#667 = VERTEX_POINT ( 'NONE', #1202 ) ;
#668 =( NAMED_UNIT ( * ) SI_UNIT ( $, .STERADIAN. ) SOLID_ANGLE_UNIT ( ) );
#669 = CARTESIAN_POINT ( 'NONE',  ( 0.000000000000000000, 0.000000000000000000, 0.000000000000000000 ) ) ;
#670 = DIRECTION ( 'NONE',  ( 0.000000000000000000, 0.000000000000000000, -1.000000000000000000 ) ) ;
#671 = AXIS2_PLACEMENT_3D ( 'NONE', #885, #585, #896 ) ;
#672 = VECTOR ( 'NONE', #1204, 1000.000000000000000 ) ;
#673 = VERTEX_POINT ( 'NONE', #830 ) ;
#674 = AXIS2_PLACEMENT_3D ( 'NONE', #560, #850, #962 ) ;
#675 =( LENGTH_UNIT ( ) NAMED_UNIT ( * ) SI_UNIT ( .MILLI., .METRE. ) );
#676 = LINE ( 'NONE', #173, #1116 ) ;
#677 = ORIENTED_EDGE ( 'NONE', *, *, #298, .T. ) ;
#678 = CARTESIAN_POINT ( 'NONE',  ( -41.49999999999999289, -15.99999999999994493, -3.149999999999999911 ) ) ;
#679 = EDGE_CURVE ( 'NONE', #950, #318, #163, .T. ) ;
#680 = ORIENTED_EDGE ( 'NONE', *, *, #435, .F. ) ;
#681 = DIRECTION ( 'NONE',  ( 0.000000000000000000, 0.000000000000000000, -1.000000000000000000 ) ) ;
#682 = ORIENTED_EDGE ( 'NONE', *, *, #172, .T. ) ;
#683 = CARTESIAN_POINT ( 'NONE',  ( 41.49999999999999289, -15.99999999999994138, 0.000000000000000000 ) ) ;
#684 = ORIENTED_EDGE ( 'NONE', *, *, #622, .F. ) ;
#685 = ADVANCED_FACE ( 'NONE', ( #1026 ), #159, .F. ) ;
#686 = LINE ( 'NONE', #1070, #90 ) ;
#687 = ORIENTED_EDGE ( 'NONE', *, *, #545, .F. ) ;
#688 = FACE_OUTER_BOUND ( 'NONE', #453, .T. ) ;
#689 = ORIENTED_EDGE ( 'NONE', *, *, #363, .T. ) ;
#690 = DIRECTION ( 'NONE',  ( -0.000000000000000000, -1.000000000000000000, -0.000000000000000000 ) ) ;
#691 = CLOSED_SHELL ( 'NONE', ( #986, #554, #754, #964, #1200, #599, #471, #995, #35, #1068, #80, #410, #1062, #369, #445, #785, #763, #1085, #604, #658, #751, #825, #685, #852, #324, #1037, #293, #902, #616, #1179, #1223, #1138, #515, #11, #228, #521, #909, #478, #744 ) ) ;
#692 = VECTOR ( 'NONE', #746, 1000.000000000000000 ) ;
#693 = AXIS2_PLACEMENT_3D ( 'NONE', #786, #1155, #959 ) ;
#694 = EDGE_CURVE ( 'NONE', #813, #222, #144, .T. ) ;
#695 = DIRECTION ( 'NONE',  ( -0.000000000000000000, -1.000000000000000000, 0.000000000000000000 ) ) ;
#696 = CIRCLE ( 'NONE', #249, 39.19999999999999574 ) ;
#697 = FACE_BOUND ( 'NONE', #657, .T. ) ;
#698 = ORIENTED_EDGE ( 'NONE', *, *, #243, .T. ) ;
#699 = CARTESIAN_POINT ( 'NONE',  ( -47.00000000000000000, -1.517801994784243824, 2.000000000000000000 ) ) ;
#700 = LINE ( 'NONE', #582, #415 ) ;
#701 = EDGE_CURVE ( 'NONE', #318, #854, #336, .T. ) ;
#702 = DIRECTION ( 'NONE',  ( -0.000000000000000000, -1.000000000000000000, -0.000000000000000000 ) ) ;
#703 = ORIENTED_EDGE ( 'NONE', *, *, #71, .T. ) ;
#704 = CARTESIAN_POINT ( 'NONE',  ( -18.02201997807919298, -15.99999999999994493, -37.51505425705412478 ) ) ;
#705 = DIRECTION ( 'NONE',  ( 0.000000000000000000, -1.000000000000000000, 0.000000000000000000 ) ) ;
#706 = ORIENTED_EDGE ( 'NONE', *, *, #800, .T. ) ;
#707 = DIRECTION ( 'NONE',  ( 0.000000000000000000, 0.000000000000000000, 1.000000000000000000 ) ) ;
#708 = DIRECTION ( 'NONE',  ( 0.8660254037844437036, 0.000000000000000000, 0.4999999999999911737 ) ) ;
#709 = VERTEX_POINT ( 'NONE', #451 ) ;
#710 = DIRECTION ( 'NONE',  ( 0.000000000000000000, -1.000000000000000000, 0.000000000000000000 ) ) ;
#711 = CARTESIAN_POINT ( 'NONE',  ( 41.49999999999999289, -15.99999999999994493, 0.000000000000000000 ) ) ;
#712 = PRESENTATION_LAYER_ASSIGNMENT (  '', '', ( #1094 ) ) ;
#713 = AXIS2_PLACEMENT_3D ( 'NONE', #40, #215, #974 ) ;
#714 = ORIENTED_EDGE ( 'NONE', *, *, #165, .T. ) ;
#715 = DIRECTION ( 'NONE',  ( 0.000000000000000000, -1.000000000000000000, 0.000000000000000000 ) ) ;
#716 = VECTOR ( 'NONE', #804, 1000.000000000000000 ) ;
#717 = EDGE_LOOP ( 'NONE', ( #1218, #623, #431, #591 ) ) ;
#718 = VECTOR ( 'NONE', #976, 1000.000000000000000 ) ;
#719 = CARTESIAN_POINT ( 'NONE',  ( -20.74999999999966604, -15.99999999999994493, 35.94005425705439194 ) ) ;
#720 = LINE ( 'NONE', #120, #370 ) ;
#721 = EDGE_CURVE ( 'NONE', #1191, #241, #53, .T. ) ;
#722 = CARTESIAN_POINT ( 'NONE',  ( -20.74999999999966604, -15.99999999999994493, 35.94005425705439194 ) ) ;
#723 = VERTEX_POINT ( 'NONE', #447 ) ;
#724 = DIRECTION ( 'NONE',  ( 0.000000000000000000, -1.000000000000000000, 0.000000000000000000 ) ) ;
#725 = ORIENTED_EDGE ( 'NONE', *, *, #43, .T. ) ;
#726 = DIRECTION ( 'NONE',  ( 0.000000000000000000, 0.000000000000000000, -1.000000000000000000 ) ) ;
#727 = ORIENTED_EDGE ( 'NONE', *, *, #971, .F. ) ;
#728 = LINE ( 'NONE', #139, #1075 ) ;
#729 = DIRECTION ( 'NONE',  ( 0.000000000000000000, -1.000000000000000000, 0.000000000000000000 ) ) ;
#730 = CARTESIAN_POINT ( 'NONE',  ( 0.000000000000000000, -15.99999999999993072, 0.000000000000000000 ) ) ;
#731 = EDGE_LOOP ( 'NONE', ( #273, #7, #449, #932 ) ) ;
#732 = AXIS2_PLACEMENT_3D ( 'NONE', #114, #500, #980 ) ;
#733 = DIRECTION ( 'NONE',  ( 0.000000000000000000, -1.000000000000000000, 0.000000000000000000 ) ) ;
#734 = AXIS2_PLACEMENT_3D ( 'NONE', #753, #1005, #843 ) ;
#735 = EDGE_CURVE ( 'NONE', #121, #745, #1096, .T. ) ;
#736 = FACE_BOUND ( 'NONE', #748, .T. ) ;
#737 = AXIS2_PLACEMENT_3D ( 'NONE', #470, #1080, #131 ) ;
#738 = AXIS2_PLACEMENT_3D ( 'NONE', #766, #577, #167 ) ;
#739 = DIRECTION ( 'NONE',  ( 0.000000000000000000, 0.000000000000000000, -1.000000000000000000 ) ) ;
#740 = AXIS2_PLACEMENT_3D ( 'NONE', #153, #520, #908 ) ;
#741 = VERTEX_POINT ( 'NONE', #1197 ) ;
#742 = CARTESIAN_POINT ( 'NONE',  ( -19.32105808375584743, -15.99999999999994138, -36.76505425705411767 ) ) ;
#743 = DIRECTION ( 'NONE',  ( 0.000000000000000000, 0.000000000000000000, -1.000000000000000000 ) ) ;
#744 = ADVANCED_FACE ( 'NONE', ( #926 ), #920, .F. ) ;
#745 = VERTEX_POINT ( 'NONE', #61 ) ;
#746 = DIRECTION ( 'NONE',  ( 0.6123724356957946924, -0.7071067811865483499, 0.3535533905932718435 ) ) ;
#747 = DIRECTION ( 'NONE',  ( -0.6123724356957971349, -0.7071067811865483499, -0.3535533905932675691 ) ) ;
#748 = EDGE_LOOP ( 'NONE', ( #175, #99 ) ) ;
#749 = DIRECTION ( 'NONE',  ( 0.000000000000000000, -1.000000000000000000, 0.000000000000000000 ) ) ;
#750 = CARTESIAN_POINT ( 'NONE',  ( -22.17894191624399625, -15.99999999999994138, 35.11505425705440331 ) ) ;
#751 = ADVANCED_FACE ( 'NONE', ( #442, #1207 ), #74, .F. ) ;
#752 = EDGE_LOOP ( 'NONE', ( #193, #1038 ) ) ;
#753 = CARTESIAN_POINT ( 'NONE',  ( 20.74999999999991473, -14.49999999999993960, -35.94005425705424273 ) ) ;
#754 = ADVANCED_FACE ( 'NONE', ( #149 ), #637, .F. ) ;
#755 = VERTEX_POINT ( 'NONE', #137 ) ;
#756 = DIRECTION ( 'NONE',  ( -0.000000000000000000, -1.000000000000000000, -0.000000000000000000 ) ) ;
#757 = CIRCLE ( 'NONE', #269, 1.649999999999998579 ) ;
#758 = EDGE_LOOP ( 'NONE', ( #1153, #805, #929, #794 ) ) ;
#759 = AXIS2_PLACEMENT_3D ( 'NONE', #6, #578, #558 ) ;
#760 = DIRECTION ( 'NONE',  ( -0.000000000000000000, -1.000000000000000000, 0.000000000000000000 ) ) ;
#761 = VECTOR ( 'NONE', #38, 1000.000000000000000 ) ;
#762 = CONICAL_SURFACE ( 'NONE', #740, 3.149999999999999911, 0.7853981633974471688 ) ;
#763 = ADVANCED_FACE ( 'NONE', ( #348, #244, #833, #1222, #1100, #523, #635, #736 ), #48, .F. ) ;
#764 = VERTEX_POINT ( 'NONE', #840 ) ;
#765 = PRODUCT_CONTEXT ( 'NONE', #464, 'mechanical' ) ;
#766 = CARTESIAN_POINT ( 'NONE',  ( 0.000000000000000000, -6.009999999999928733, 0.000000000000000000 ) ) ;
#767 = ORIENTED_EDGE ( 'NONE', *, *, #199, .F. ) ;
#768 = CARTESIAN_POINT ( 'NONE',  ( 41.49999999999999289, -6.009999999999928733, 0.000000000000000000 ) ) ;
#769 = EDGE_LOOP ( 'NONE', ( #379, #1143 ) ) ;
#770 = ORIENTED_EDGE ( 'NONE', *, *, #888, .T. ) ;
#771 = DIRECTION ( 'NONE',  ( -1.000000000000000000, 0.000000000000000000, -0.000000000000000000 ) ) ;
#772 = ORIENTED_EDGE ( 'NONE', *, *, #204, .F. ) ;
#773 = VERTEX_POINT ( 'NONE', #868 ) ;
#774 = DIRECTION ( 'NONE',  ( -0.8660254037844398178, 0.000000000000000000, -0.4999999999999981126 ) ) ;
#775 = ORIENTED_EDGE ( 'NONE', *, *, #1132, .T. ) ;
#776 = DIRECTION ( 'NONE',  ( 0.000000000000000000, 0.000000000000000000, 1.000000000000000000 ) ) ;
#777 = EDGE_CURVE ( 'NONE', #1224, #1071, #82, .T. ) ;
#778 = PLANE ( 'NONE',  #454 ) ;
#779 = VECTOR ( 'NONE', #408, 1000.000000000000000 ) ;
#780 = VECTOR ( 'NONE', #100, 1000.000000000000000 ) ;
#781 = AXIS2_PLACEMENT_3D ( 'NONE', #719, #416, #708 ) ;
#782 = CIRCLE ( 'NONE', #1194, 3.149999999999999911 ) ;
#783 = DIRECTION ( 'NONE',  ( 0.8660254037844322683, 0.000000000000000000, -0.5000000000000108802 ) ) ;
#784 = EDGE_LOOP ( 'NONE', ( #341, #1188, #1212, #620 ) ) ;
#785 = ADVANCED_FACE ( 'NONE', ( #660 ), #280, .T. ) ;
#786 = CARTESIAN_POINT ( 'NONE',  ( 20.75000000000041567, -15.99999999999994138, 35.94005425705395851 ) ) ;
#787 = VERTEX_POINT ( 'NONE', #956 ) ;
#788 = CYLINDRICAL_SURFACE ( 'NONE', #145, 1.649999999999998135 ) ;
#789 = ADVANCED_BREP_SHAPE_REPRESENTATION ( 'SO102.02.050 Bottom ring', ( #110, #349 ), #141 ) ;
#790 = FACE_OUTER_BOUND ( 'NONE', #365, .T. ) ;
#791 = EDGE_CURVE ( 'NONE', #787, #378, #968, .T. ) ;
#792 = DIRECTION ( 'NONE',  ( 0.000000000000000000, 0.000000000000000000, -1.000000000000000000 ) ) ;
#793 = PLANE ( 'NONE',  #1154 ) ;
#794 = ORIENTED_EDGE ( 'NONE', *, *, #402, .F. ) ;
#795 = CONICAL_SURFACE ( 'NONE', #85, 3.150000000000001243, 0.7853981633974471688 ) ;
#796 = DIRECTION ( 'NONE',  ( 0.7071067811865638930, -0.000000000000000000, -0.7071067811865311414 ) ) ;
#797 = AXIS2_PLACEMENT_3D ( 'NONE', #1160, #1149, #368 ) ;
#798 = FACE_OUTER_BOUND ( 'NONE', #958, .T. ) ;
#799 = VECTOR ( 'NONE', #484, 1000.000000000000000 ) ;
#800 = EDGE_CURVE ( 'NONE', #95, #327, #801, .T. ) ;
#801 = CIRCLE ( 'NONE', #433, 1.649999999999998135 ) ;
#802 = CARTESIAN_POINT ( 'NONE',  ( 18.02201997807945588, -15.99999999999994493, 37.51505425705399688 ) ) ;
#803 = AXIS2_PLACEMENT_3D ( 'NONE', #79, #1142, #948 ) ;
#804 = DIRECTION ( 'NONE',  ( -0.000000000000000000, -1.000000000000000000, 0.000000000000000000 ) ) ;
#805 = ORIENTED_EDGE ( 'NONE', *, *, #204, .T. ) ;
#806 = CARTESIAN_POINT ( 'NONE',  ( 0.000000000000000000, -13.99999999999993072, -39.19999999999999574 ) ) ;
#807 = DIRECTION ( 'NONE',  ( -0.000000000000000000, -1.000000000000000000, -0.000000000000000000 ) ) ;
#808 = DIRECTION ( 'NONE',  ( 0.000000000000000000, -1.000000000000000000, 0.000000000000000000 ) ) ;
#809 = CARTESIAN_POINT ( 'NONE',  ( 0.000000000000000000, -13.99999999999992895, 0.000000000000000000 ) ) ;
#810 = ORIENTED_EDGE ( 'NONE', *, *, #649, .T. ) ;
#811 = CARTESIAN_POINT ( 'NONE',  ( -44.95553358597805271, -15.99999999999994138, 2.000000000000000000 ) ) ;
#812 = CARTESIAN_POINT ( 'NONE',  ( -46.70000000000001705, -15.99999999999994138, 2.000000000000000000 ) ) ;
#813 = VERTEX_POINT ( 'NONE', #651 ) ;
#814 = CARTESIAN_POINT ( 'NONE',  ( 22.17894191624423783, -14.49999999999993960, -35.11505425705424699 ) ) ;
#815 = FACE_BOUND ( 'NONE', #647, .T. ) ;
#816 = EDGE_CURVE ( 'NONE', #96, #990, #1011, .T. ) ;
#817 = EDGE_LOOP ( 'NONE', ( #1157, #540 ) ) ;
#818 = CARTESIAN_POINT ( 'NONE',  ( 0.000000000000000000, -6.009999999999929621, -45.00000000000000000 ) ) ;
#819 = VECTOR ( 'NONE', #994, 1000.000000000000114 ) ;
#820 = AXIS2_PLACEMENT_3D ( 'NONE', #467, #760, #774 ) ;
#821 = FACE_OUTER_BOUND ( 'NONE', #337, .T. ) ;
#822 = AXIS2_PLACEMENT_3D ( 'NONE', #253, #642, #66 ) ;
#823 = CONICAL_SURFACE ( 'NONE', #457, 3.149999999999999911, 0.7853981633974471688 ) ;
#824 = DIRECTION ( 'NONE',  ( 0.000000000000000000, 0.000000000000000000, -1.000000000000000000 ) ) ;
#825 = ADVANCED_FACE ( 'NONE', ( #1134 ), #1039, .F. ) ;
#826 = ORIENTED_EDGE ( 'NONE', *, *, #151, .T. ) ;
#827 = DIRECTION ( 'NONE',  ( -0.8660254037844363761, 0.000000000000000000, 0.5000000000000039968 ) ) ;
#828 = ORIENTED_EDGE ( 'NONE', *, *, #43, .F. ) ;
#829 = FACE_OUTER_BOUND ( 'NONE', #171, .T. ) ;
#830 = CARTESIAN_POINT ( 'NONE',  ( -47.00000000000000000, -6.009999999999928733, -1.700000000000005285 ) ) ;
#831 = EDGE_CURVE ( 'NONE', #426, #50, #276, .T. ) ;
#832 = CARTESIAN_POINT ( 'NONE',  ( 19.32105808375610323, -6.009999999999928733, 36.76505425705397556 ) ) ;
#833 = FACE_BOUND ( 'NONE', #214, .T. ) ;
#834 = ORIENTED_EDGE ( 'NONE', *, *, #701, .F. ) ;
#835 = CARTESIAN_POINT ( 'NONE',  ( 23.47798002192137901, -15.99999999999994493, 34.36505425705392724 ) ) ;
#836 = EDGE_CURVE ( 'NONE', #546, #565, #352, .T. ) ;
#837 = ORIENTED_EDGE ( 'NONE', *, *, #435, .T. ) ;
#838 = CARTESIAN_POINT ( 'NONE',  ( 41.49999999999999289, -15.99999999999994493, 0.000000000000000000 ) ) ;
#839 = AXIS2_PLACEMENT_3D ( 'NONE', #857, #297, #946 ) ;
#840 = CARTESIAN_POINT ( 'NONE',  ( -23.47798002192114097, -15.99999999999994493, -34.36505425705409777 ) ) ;
#841 = AXIS2_PLACEMENT_3D ( 'NONE', #1181, #702, #23 ) ;
#842 = ORIENTED_EDGE ( 'NONE', *, *, #1215, .F. ) ;
#843 = DIRECTION ( 'NONE',  ( -0.8660254037844387076, 0.000000000000000000, -0.4999999999999998890 ) ) ;
#844 = ORIENTED_EDGE ( 'NONE', *, *, #721, .F. ) ;
#845 = FILL_AREA_STYLE ('',( #1146 ) ) ;
#846 = CARTESIAN_POINT ( 'NONE',  ( -20.74999999999966604, -15.99999999999994493, 35.94005425705439194 ) ) ;
#847 = EDGE_CURVE ( 'NONE', #95, #378, #676, .T. ) ;
#848 = DIRECTION ( 'NONE',  ( 0.8660254037844433705, 0.000000000000000000, 0.4999999999999917843 ) ) ;
#849 = EDGE_LOOP ( 'NONE', ( #246, #117 ) ) ;
#850 = DIRECTION ( 'NONE',  ( -0.000000000000000000, -1.000000000000000000, -0.000000000000000000 ) ) ;
#851 = ORIENTED_EDGE ( 'NONE', *, *, #331, .T. ) ;
#852 = ADVANCED_FACE ( 'NONE', ( #283 ), #897, .F. ) ;
#853 = LINE ( 'NONE', #678, #895 ) ;
#854 = VERTEX_POINT ( 'NONE', #98 ) ;
#855 = DIRECTION ( 'NONE',  ( 0.000000000000000000, -1.000000000000000000, 0.000000000000000000 ) ) ;
#856 = AXIS2_PLACEMENT_3D ( 'NONE', #161, #927, #345 ) ;
#857 = CARTESIAN_POINT ( 'NONE',  ( -41.49999999999999289, -15.99999999999994493, 0.000000000000000000 ) ) ;
#858 = AXIS2_PLACEMENT_3D ( 'NONE', #517, #891, #494 ) ;
#859 = AXIS2_PLACEMENT_3D ( 'NONE', #516, #991, #109 ) ;
#860 = EDGE_LOOP ( 'NONE', ( #344, #37, #924, #629 ) ) ;
#861 =( NAMED_UNIT ( * ) SI_UNIT ( $, .STERADIAN. ) SOLID_ANGLE_UNIT ( ) );
#862 = ORIENTED_EDGE ( 'NONE', *, *, #1161, .F. ) ;
#863 = CARTESIAN_POINT ( 'NONE',  ( -47.00000000000000000, -1.517801994784243824, -2.000000000000000000 ) ) ;
#864 = CARTESIAN_POINT ( 'NONE',  ( -47.00000000000000000, -15.99999999999994138, -2.000000000000000000 ) ) ;
#865 = ORIENTED_EDGE ( 'NONE', *, *, #402, .T. ) ;
#866 = EDGE_CURVE ( 'NONE', #75, #132, #187, .T. ) ;
#867 =( LENGTH_UNIT ( ) NAMED_UNIT ( * ) SI_UNIT ( .MILLI., .METRE. ) );
#868 = CARTESIAN_POINT ( 'NONE',  ( 41.49999999999999289, -6.009999999999928733, 1.649999999999998579 ) ) ;
#869 = ORIENTED_EDGE ( 'NONE', *, *, #694, .T. ) ;
#870 = CYLINDRICAL_SURFACE ( 'NONE', #569, 1.649999999999998579 ) ;
#871 = ORIENTED_EDGE ( 'NONE', *, *, #1235, .T. ) ;
#872 = EDGE_LOOP ( 'NONE', ( #844, #643, #138, #618 ) ) ;
#873 = EDGE_CURVE ( 'NONE', #1045, #265, #394, .T. ) ;
#874 = DIRECTION ( 'NONE',  ( 0.000000000000000000, -1.000000000000000000, -0.000000000000000000 ) ) ;
#875 = ORIENTED_EDGE ( 'NONE', *, *, #212, .F. ) ;
#876 = FACE_OUTER_BOUND ( 'NONE', #300, .T. ) ;
#877 = VECTOR ( 'NONE', #186, 1000.000000000000000 ) ;
#878 = VECTOR ( 'NONE', #1219, 1000.000000000000000 ) ;
#879 = AXIS2_PLACEMENT_3D ( 'NONE', #542, #931, #1120 ) ;
#880 = AXIS2_PLACEMENT_3D ( 'NONE', #898, #695, #1180 ) ;
#881 = ORIENTED_EDGE ( 'NONE', *, *, #380, .T. ) ;
#882 = DIRECTION ( 'NONE',  ( -0.000000000000000000, -1.000000000000000000, -0.000000000000000000 ) ) ;
#883 = DIRECTION ( 'NONE',  ( 0.000000000000000000, -1.000000000000000000, 0.000000000000000000 ) ) ;
#884 = EDGE_CURVE ( 'NONE', #1220, #64, #1214, .T. ) ;
#885 = CARTESIAN_POINT ( 'NONE',  ( 20.74999999999991473, -15.99999999999994493, -35.94005425705424273 ) ) ;
#886 = DIRECTION ( 'NONE',  ( 0.000000000000000000, -1.000000000000000000, -0.000000000000000000 ) ) ;
#887 = CARTESIAN_POINT ( 'NONE',  ( -41.49999999999999289, -15.99999999999994493, 3.149999999999999911 ) ) ;
#888 = EDGE_CURVE ( 'NONE', #332, #327, #564, .T. ) ;
#889 = DIRECTION ( 'NONE',  ( 0.000000000000000000, 0.000000000000000000, -1.000000000000000000 ) ) ;
#890 = FACE_OUTER_BOUND ( 'NONE', #860, .T. ) ;
#891 = DIRECTION ( 'NONE',  ( -0.000000000000000000, -1.000000000000000000, -0.000000000000000000 ) ) ;
#892 = ORIENTED_EDGE ( 'NONE', *, *, #134, .T. ) ;
#893 = CARTESIAN_POINT ( 'NONE',  ( 0.000000000000000000, -6.009999999999928733, -39.20000000000000284 ) ) ;
#894 = AXIS2_PLACEMENT_3D ( 'NONE', #534, #424, #925 ) ;
#895 = VECTOR ( 'NONE', #282, 1000.000000000000000 ) ;
#896 = DIRECTION ( 'NONE',  ( -0.8660254037844398178, 0.000000000000000000, -0.4999999999999981126 ) ) ;
#897 = CONICAL_SURFACE ( 'NONE', #674, 3.149999999999999911, 0.7853981633974471688 ) ;
#898 = CARTESIAN_POINT ( 'NONE',  ( 20.74999999999991473, -6.009999999999928733, -35.94005425705424273 ) ) ;
#899 = CARTESIAN_POINT ( 'NONE',  ( -41.49999999999999289, -15.99999999999994493, -3.149999999999999911 ) ) ;
#900 = ORIENTED_EDGE ( 'NONE', *, *, #425, .F. ) ;
#901 = DIRECTION ( 'NONE',  ( 0.6123724356957895854, -0.7071067811865482389, -0.3535533905932804477 ) ) ;
#902 = ADVANCED_FACE ( 'NONE', ( #1043 ), #73, .F. ) ;
#903 = ORIENTED_EDGE ( 'NONE', *, *, #561, .T. ) ;
#904 = CARTESIAN_POINT ( 'NONE',  ( -47.00000000000000000, -15.99999999999994138, 1.700000000000005285 ) ) ;
#905 = CARTESIAN_POINT ( 'NONE',  ( -47.00000000000000000, -6.009999999999928733, 1.700000000000005285 ) ) ;
#906 = ORIENTED_EDGE ( 'NONE', *, *, #1103, .F. ) ;
#907 = DIRECTION ( 'NONE',  ( 0.000000000000000000, 0.000000000000000000, 1.000000000000000000 ) ) ;
#908 = DIRECTION ( 'NONE',  ( 0.000000000000000000, 0.000000000000000000, 1.000000000000000000 ) ) ;
#909 = ADVANCED_FACE ( 'NONE', ( #88 ), #475, .T. ) ;
#910 = ORIENTED_EDGE ( 'NONE', *, *, #735, .F. ) ;
#911 = DIRECTION ( 'NONE',  ( 0.000000000000000000, 0.000000000000000000, -1.000000000000000000 ) ) ;
#912 = EDGE_LOOP ( 'NONE', ( #358, #325 ) ) ;
#913 = DIRECTION ( 'NONE',  ( 0.000000000000000000, -1.000000000000000000, -0.000000000000000000 ) ) ;
#914 = AXIS2_PLACEMENT_3D ( 'NONE', #486, #963, #191 ) ;
#915 = FACE_OUTER_BOUND ( 'NONE', #281, .T. ) ;
#916 = CYLINDRICAL_SURFACE ( 'NONE', #1097, 45.00000000000000000 ) ;
#917 = AXIS2_PLACEMENT_3D ( 'NONE', #936, #231, #743 ) ;
#918 = CIRCLE ( 'NONE', #880, 1.649999999999999023 ) ;
#919 = EDGE_CURVE ( 'NONE', #255, #237, #1148, .T. ) ;
#920 = PLANE ( 'NONE',  #105 ) ;
#921 = EDGE_LOOP ( 'NONE', ( #389, #1144, #871, #495 ) ) ;
#922 = EDGE_CURVE ( 'NONE', #745, #1168, #166, .T. ) ;
#923 = DIRECTION ( 'NONE',  ( -0.000000000000000000, -1.000000000000000000, -0.000000000000000000 ) ) ;
#924 = ORIENTED_EDGE ( 'NONE', *, *, #1140, .T. ) ;
#925 = DIRECTION ( 'NONE',  ( 0.000000000000000000, 0.000000000000000000, -1.000000000000000000 ) ) ;
#926 = FACE_OUTER_BOUND ( 'NONE', #235, .T. ) ;
#927 = DIRECTION ( 'NONE',  ( -0.000000000000000000, -1.000000000000000000, 0.000000000000000000 ) ) ;
#928 = EDGE_CURVE ( 'NONE', #232, #39, #686, .T. ) ;
#929 = ORIENTED_EDGE ( 'NONE', *, *, #884, .T. ) ;
#930 = CARTESIAN_POINT ( 'NONE',  ( 0.000000000000000000, 0.000000000000000000, 0.000000000000000000 ) ) ;
#931 = DIRECTION ( 'NONE',  ( 0.000000000000000000, -1.000000000000000000, 0.000000000000000000 ) ) ;
#932 = ORIENTED_EDGE ( 'NONE', *, *, #26, .F. ) ;
#933 = ORIENTED_EDGE ( 'NONE', *, *, #134, .F. ) ;
#934 = CONICAL_SURFACE ( 'NONE', #34, 3.149999999999999911, 0.7853981633974471688 ) ;
#935 = AXIS2_PLACEMENT_3D ( 'NONE', #58, #923, #1108 ) ;
#936 = CARTESIAN_POINT ( 'NONE',  ( 0.000000000000000000, -6.009999999999929621, 0.000000000000000000 ) ) ;
#937 = AXIS2_PLACEMENT_3D ( 'NONE', #238, #646, #911 ) ;
#938 = VECTOR ( 'NONE', #188, 1000.000000000000000 ) ;
#939 = DIRECTION ( 'NONE',  ( 0.000000000000000000, 0.000000000000000000, -1.000000000000000000 ) ) ;
#940 = ORIENTED_EDGE ( 'NONE', *, *, #566, .T. ) ;
#941 = EDGE_CURVE ( 'NONE', #160, #667, #918, .T. ) ;
#942 = DIRECTION ( 'NONE',  ( 0.000000000000000000, 0.000000000000000000, -1.000000000000000000 ) ) ;
#943 = ORIENTED_EDGE ( 'NONE', *, *, #536, .F. ) ;
#944 = DIRECTION ( 'NONE',  ( 0.8660254037844334896, 0.000000000000000000, -0.5000000000000089928 ) ) ;
#945 = CARTESIAN_POINT ( 'NONE',  ( -20.74999999999966604, -14.49999999999993960, 35.94005425705439194 ) ) ;
#946 = DIRECTION ( 'NONE',  ( 0.000000000000000000, 0.000000000000000000, 1.000000000000000000 ) ) ;
#947 = ORIENTED_EDGE ( 'NONE', *, *, #425, .T. ) ;
#948 = DIRECTION ( 'NONE',  ( -0.8660254037844360431, 0.000000000000000000, 0.5000000000000044409 ) ) ;
#949 = CIRCLE ( 'NONE', #713, 1.649999999999998135 ) ;
#950 = VERTEX_POINT ( 'NONE', #130 ) ;
#951 = AXIS2_PLACEMENT_3D ( 'NONE', #196, #375, #776 ) ;
#952 = DIRECTION ( 'NONE',  ( 0.7071067811865311414, 0.000000000000000000, 0.7071067811865638930 ) ) ;
#953 = CIRCLE ( 'NONE', #474, 1.649999999999998579 ) ;
#954 = EDGE_CURVE ( 'NONE', #1071, #285, #1136, .T. ) ;
#955 =( NAMED_UNIT ( * ) PLANE_ANGLE_UNIT ( ) SI_UNIT ( $, .RADIAN. ) );
#956 = CARTESIAN_POINT ( 'NONE',  ( -23.47798002192066136, -15.99999999999994493, 34.36505425705441752 ) ) ;
#957 = VERTEX_POINT ( 'NONE', #16 ) ;
#958 = EDGE_LOOP ( 'NONE', ( #943, #1125, #640, #906 ) ) ;
#959 = DIRECTION ( 'NONE',  ( 0.8660254037844334896, 0.000000000000000000, -0.5000000000000089928 ) ) ;
#960 = EDGE_CURVE ( 'NONE', #1196, #990, #700, .T. ) ;
#961 = EDGE_LOOP ( 'NONE', ( #174, #607, #881, #1031 ) ) ;
#962 = DIRECTION ( 'NONE',  ( 0.000000000000000000, 0.000000000000000000, -1.000000000000000000 ) ) ;
#963 = DIRECTION ( 'NONE',  ( -0.000000000000000000, -1.000000000000000000, -0.000000000000000000 ) ) ;
#964 = ADVANCED_FACE ( 'NONE', ( #205 ), #788, .F. ) ;
#965 = CARTESIAN_POINT ( 'NONE',  ( -41.49999999999999289, -15.99999999999994493, 3.149999999999999911 ) ) ;
#966 = CARTESIAN_POINT ( 'NONE',  ( 22.17894191624424138, -15.99999999999994138, -35.11505425705424699 ) ) ;
#967 = CIRCLE ( 'NONE', #759, 1.649999999999998579 ) ;
#968 = CIRCLE ( 'NONE', #309, 3.149999999999999911 ) ;
#969 = CIRCLE ( 'NONE', #437, 1.649999999999998135 ) ;
#970 = DIRECTION ( 'NONE',  ( 0.8660254037844433705, 0.000000000000000000, 0.4999999999999917843 ) ) ;
#971 = EDGE_CURVE ( 'NONE', #255, #121, #374, .T. ) ;
#972 = ORIENTED_EDGE ( 'NONE', *, *, #298, .F. ) ;
#973 = DIRECTION ( 'NONE',  ( 0.000000000000000000, 0.000000000000000000, 1.000000000000000000 ) ) ;
#974 = DIRECTION ( 'NONE',  ( 0.8660254037844433705, 0.000000000000000000, 0.4999999999999917843 ) ) ;
#975 = ORIENTED_EDGE ( 'NONE', *, *, #836, .F. ) ;
#976 = DIRECTION ( 'NONE',  ( 0.000000000000000000, -0.7071067811865483499, 0.7071067811865466846 ) ) ;
#977 = EDGE_LOOP ( 'NONE', ( #772, #1170, #865, #501 ) ) ;
#978 = CARTESIAN_POINT ( 'NONE',  ( -19.32105808375533584, -15.99999999999994138, 36.76505425705437347 ) ) ;
#979 =( NAMED_UNIT ( * ) SI_UNIT ( $, .STERADIAN. ) SOLID_ANGLE_UNIT ( ) );
#980 = DIRECTION ( 'NONE',  ( -0.8660254037844360431, 0.000000000000000000, 0.5000000000000044409 ) ) ;
#981 = CARTESIAN_POINT ( 'NONE',  ( 19.32105808375610323, -14.49999999999993960, 36.76505425705397556 ) ) ;
#982 = ORIENTED_EDGE ( 'NONE', *, *, #504, .F. ) ;
#983 = DIRECTION ( 'NONE',  ( 0.7071067811865311414, -0.000000000000000000, 0.7071067811865638930 ) ) ;
#984 = EDGE_LOOP ( 'NONE', ( #982, #1203, #257, #414 ) ) ;
#985 = VECTOR ( 'NONE', #796, 1000.000000000000227 ) ;
#986 = ADVANCED_FACE ( 'NONE', ( #1169 ), #553, .F. ) ;
#987 = DIRECTION ( 'NONE',  ( -0.8660254037844398178, 0.000000000000000000, -0.4999999999999981126 ) ) ;
#988 = AXIS2_PLACEMENT_3D ( 'NONE', #1171, #310, #213 ) ;
#989 = AXIS2_PLACEMENT_3D ( 'NONE', #21, #393, #1164 ) ;
#990 = VERTEX_POINT ( 'NONE', #981 ) ;
#991 = DIRECTION ( 'NONE',  ( 0.000000000000000000, -1.000000000000000000, 0.000000000000000000 ) ) ;
#992 = FACE_OUTER_BOUND ( 'NONE', #961, .T. ) ;
#993 = LINE ( 'NONE', #326, #779 ) ;
#994 = DIRECTION ( 'NONE',  ( -0.6123724356957921389, -0.7071067811865482389, 0.3535533905932761733 ) ) ;
#995 = ADVANCED_FACE ( 'NONE', ( #420 ), #27, .F. ) ;
#996 = CARTESIAN_POINT ( 'NONE',  ( 20.75000000000041567, -6.009999999999928733, 35.94005425705395851 ) ) ;
#997 = CARTESIAN_POINT ( 'NONE',  ( -39.19999999999999574, -13.99999999999992895, 0.000000000000000000 ) ) ;
#998 = ORIENTED_EDGE ( 'NONE', *, *, #346, .F. ) ;
#999 = LINE ( 'NONE', #304, #10 ) ;
#1000 = PRODUCT_DEFINITION ( 'UNKNOWN', '', #190, #2 ) ;
#1001 = DIRECTION ( 'NONE',  ( -0.000000000000000000, -1.000000000000000000, -0.000000000000000000 ) ) ;
#1002 = EDGE_CURVE ( 'NONE', #278, #50, #953, .T. ) ;
#1003 = ORIENTED_EDGE ( 'NONE', *, *, #1103, .T. ) ;
#1004 = CARTESIAN_POINT ( 'NONE',  ( -44.95553358597805271, -1.517801994784243824, -1.999999999999983569 ) ) ;
#1005 = DIRECTION ( 'NONE',  ( -0.000000000000000000, -1.000000000000000000, 0.000000000000000000 ) ) ;
#1006 = VECTOR ( 'NONE', #747, 1000.000000000000000 ) ;
#1007 = CIRCLE ( 'NONE', #734, 1.649999999999999023 ) ;
#1008 = CARTESIAN_POINT ( 'NONE',  ( -23.47798002192066136, -15.99999999999994493, 34.36505425705441752 ) ) ;
#1009 = ORIENTED_EDGE ( 'NONE', *, *, #928, .T. ) ;
#1010 = DIRECTION ( 'NONE',  ( 0.000000000000000000, -0.7071067811865483499, -0.7071067811865466846 ) ) ;
#1011 = CIRCLE ( 'NONE', #1074, 1.649999999999997025 ) ;
#1012 = AXIS2_PLACEMENT_3D ( 'NONE', #9, #177, #942 ) ;
#1013 = DIRECTION ( 'NONE',  ( -0.000000000000000000, -1.000000000000000000, -0.000000000000000000 ) ) ;
#1014 = EDGE_CURVE ( 'NONE', #50, #546, #497, .T. ) ;
#1015 = VERTEX_POINT ( 'NONE', #904 ) ;
#1016 = LINE ( 'NONE', #152, #1211 ) ;
#1017 = DIRECTION ( 'NONE',  ( 0.8660254037844322683, 0.000000000000000000, -0.5000000000000108802 ) ) ;
#1018 = ORIENTED_EDGE ( 'NONE', *, *, #192, .T. ) ;
#1019 = FACE_OUTER_BOUND ( 'NONE', #31, .T. ) ;
#1020 = DIRECTION ( 'NONE',  ( 0.000000000000000000, -1.000000000000000000, 0.000000000000000000 ) ) ;
#1021 = EDGE_CURVE ( 'NONE', #755, #96, #116, .T. ) ;
#1022 = ORIENTED_EDGE ( 'NONE', *, *, #363, .F. ) ;
#1023 = CARTESIAN_POINT ( 'NONE',  ( 20.75000000000041567, -6.009999999999928733, 35.94005425705395851 ) ) ;
#1024 = VERTEX_POINT ( 'NONE', #508 ) ;
#1025 = DIRECTION ( 'NONE',  ( -0.6123724356957946924, -0.7071067811865484609, -0.3535533905932720100 ) ) ;
#1026 = FACE_OUTER_BOUND ( 'NONE', #537, .T. ) ;
#1027 = ORIENTED_EDGE ( 'NONE', *, *, #721, .T. ) ;
#1028 = CARTESIAN_POINT ( 'NONE',  ( -20.75000000000016698, -15.99999999999994138, -35.94005425705411483 ) ) ;
#1029 = EDGE_CURVE ( 'NONE', #222, #813, #696, .T. ) ;
#1030 = UNCERTAINTY_MEASURE_WITH_UNIT (LENGTH_MEASURE( 1.000000000000000082E-05 ), #867, 'distance_accuracy_value', 'NONE');
#1031 = ORIENTED_EDGE ( 'NONE', *, *, #1021, .F. ) ;
#1032 = DIRECTION ( 'NONE',  ( 0.000000000000000000, -1.000000000000000000, 0.000000000000000000 ) ) ;
#1033 = VECTOR ( 'NONE', #14, 1000.000000000000000 ) ;
#1034 = CARTESIAN_POINT ( 'NONE',  ( 0.000000000000000000, 0.000000000000000000, 0.000000000000000000 ) ) ;
#1035 = CIRCLE ( 'NONE', #737, 1.649999999999999023 ) ;
#1036 = DIRECTION ( 'NONE',  ( -0.7071067811865638930, -0.000000000000000000, 0.7071067811865311414 ) ) ;
#1037 = ADVANCED_FACE ( 'NONE', ( #890 ), #656, .F. ) ;
#1038 = ORIENTED_EDGE ( 'NONE', *, *, #884, .F. ) ;
#1039 = CYLINDRICAL_SURFACE ( 'NONE', #248, 39.19999999999999574 ) ;
#1040 = CARTESIAN_POINT ( 'NONE',  ( -47.00000000000000000, -1.517801994784243824, 2.000000000000000000 ) ) ;
#1041 = CARTESIAN_POINT ( 'NONE',  ( 20.74999999999991473, -15.99999999999994493, -35.94005425705424273 ) ) ;
#1042 = ORIENTED_EDGE ( 'NONE', *, *, #589, .T. ) ;
#1043 = FACE_OUTER_BOUND ( 'NONE', #1048, .T. ) ;
#1044 = EDGE_CURVE ( 'NONE', #745, #383, #1088, .T. ) ;
#1045 = VERTEX_POINT ( 'NONE', #802 ) ;
#1046 = EDGE_LOOP ( 'NONE', ( #434, #1165 ) ) ;
#1047 = LINE ( 'NONE', #1065, #1033 ) ;
#1048 = EDGE_LOOP ( 'NONE', ( #1205, #680, #1092, #555 ) ) ;
#1049 = CIRCLE ( 'NONE', #506, 45.00000000000000000 ) ;
#1050 = CARTESIAN_POINT ( 'NONE',  ( -47.00000000000000000, -6.009999999999928733, -2.000000000000000000 ) ) ;
#1051 = CIRCLE ( 'NONE', #634, 45.00000000000000000 ) ;
#1052 = EDGE_LOOP ( 'NONE', ( #292, #239, #77, #12 ) ) ;
#1053 = CIRCLE ( 'NONE', #858, 1.649999999999998579 ) ;
#1054 = EDGE_CURVE ( 'NONE', #613, #180, #315, .T. ) ;
#1055 = FACE_OUTER_BOUND ( 'NONE', #225, .T. ) ;
#1056 = CIRCLE ( 'NONE', #511, 1.649999999999998579 ) ;
#1057 = ORIENTED_EDGE ( 'NONE', *, *, #151, .F. ) ;
#1058 = APPLICATION_PROTOCOL_DEFINITION ( 'draft international standard', 'automotive_design', 1998, #464 ) ;
#1059 = CARTESIAN_POINT ( 'NONE',  ( 20.75000000000041567, -15.99999999999994493, 35.94005425705395851 ) ) ;
#1060 = EDGE_LOOP ( 'NONE', ( #1018, #595 ) ) ;
#1061 = DIRECTION ( 'NONE',  ( 0.000000000000000000, -1.000000000000000000, 0.000000000000000000 ) ) ;
#1062 = ADVANCED_FACE ( 'NONE', ( #1184 ), #295, .F. ) ;
#1063 = DIRECTION ( 'NONE',  ( -0.000000000000000000, -1.000000000000000000, -0.000000000000000000 ) ) ;
#1064 = ORIENTED_EDGE ( 'NONE', *, *, #254, .F. ) ;
#1065 = CARTESIAN_POINT ( 'NONE',  ( 0.000000000000000000, 0.000000000000000000, -37.19999999999999574 ) ) ;
#1066 = LINE ( 'NONE', #812, #102 ) ;
#1067 = ORIENTED_EDGE ( 'NONE', *, *, #346, .T. ) ;
#1068 = ADVANCED_FACE ( 'NONE', ( #829 ), #356, .F. ) ;
#1069 = ORIENTED_EDGE ( 'NONE', *, *, #644, .T. ) ;
#1070 = CARTESIAN_POINT ( 'NONE',  ( -47.00000000000000000, -15.99999999999994138, 2.000000000000000000 ) ) ;
#1071 = VERTEX_POINT ( 'NONE', #641 ) ;
#1072 = FACE_BOUND ( 'NONE', #817, .T. ) ;
#1073 = CARTESIAN_POINT ( 'NONE',  ( -41.49999999999999289, -14.49999999999993960, 0.000000000000000000 ) ) ;
#1074 = AXIS2_PLACEMENT_3D ( 'NONE', #267, #387, #465 ) ;
#1075 = VECTOR ( 'NONE', #1010, 1000.000000000000000 ) ;
#1076 = DIRECTION ( 'NONE',  ( -0.000000000000000000, -1.000000000000000000, -0.000000000000000000 ) ) ;
#1077 = ORIENTED_EDGE ( 'NONE', *, *, #1215, .T. ) ;
#1078 = DIRECTION ( 'NONE',  ( 0.000000000000000000, 0.000000000000000000, -1.000000000000000000 ) ) ;
#1079 = ORIENTED_EDGE ( 'NONE', *, *, #831, .F. ) ;
#1080 = DIRECTION ( 'NONE',  ( -0.000000000000000000, -1.000000000000000000, 0.000000000000000000 ) ) ;
#1081 = ORIENTED_EDGE ( 'NONE', *, *, #460, .T. ) ;
#1082 = SURFACE_STYLE_USAGE ( .BOTH. , #24 ) ;
#1083 = CARTESIAN_POINT ( 'NONE',  ( -18.02201997807919298, -15.99999999999994493, -37.51505425705412478 ) ) ;
#1084 = CARTESIAN_POINT ( 'NONE',  ( -46.70000000000001705, -6.009999999999928733, 2.000000000000000000 ) ) ;
#1085 = ADVANCED_FACE ( 'NONE', ( #47 ), #916, .T. ) ;
#1086 = ORIENTED_EDGE ( 'NONE', *, *, #156, .T. ) ;
#1087 = ORIENTED_EDGE ( 'NONE', *, *, #1109, .T. ) ;
#1088 = LINE ( 'NONE', #321, #333 ) ;
#1089 = ORIENTED_EDGE ( 'NONE', *, *, #1029, .T. ) ;
#1090 = DIRECTION ( 'NONE',  ( -0.000000000000000000, -1.000000000000000000, -0.000000000000000000 ) ) ;
#1091 = EDGE_CURVE ( 'NONE', #426, #1236, #33, .T. ) ;
#1092 = ORIENTED_EDGE ( 'NONE', *, *, #49, .T. ) ;
#1093 = LINE ( 'NONE', #133, #587 ) ;
#1094 = STYLED_ITEM ( 'NONE', ( #1221 ), #789 ) ;
#1095 = AXIS2_PLACEMENT_3D ( 'NONE', #1040, #562, #176 ) ;
#1096 = CIRCLE ( 'NONE', #917, 45.00000000000000000 ) ;
#1097 = AXIS2_PLACEMENT_3D ( 'NONE', #930, #1001, #1111 ) ;
#1098 = DIRECTION ( 'NONE',  ( 0.8660254037844334896, 0.000000000000000000, -0.5000000000000089928 ) ) ;
#1099 = VERTEX_POINT ( 'NONE', #430 ) ;
#1100 = FACE_BOUND ( 'NONE', #340, .T. ) ;
#1101 = ORIENTED_EDGE ( 'NONE', *, *, #831, .T. ) ;
#1102 = CARTESIAN_POINT ( 'NONE',  ( 18.02201997807945588, -15.99999999999994493, 37.51505425705399688 ) ) ;
#1103 = EDGE_CURVE ( 'NONE', #197, #285, #728, .T. ) ;
#1104 = EDGE_LOOP ( 'NONE', ( #875, #400, #67, #439 ) ) ;
#1105 = LINE ( 'NONE', #645, #291 ) ;
#1106 = DIRECTION ( 'NONE',  ( 0.7071067811865638930, 0.000000000000000000, -0.7071067811865311414 ) ) ;
#1107 = ORIENTED_EDGE ( 'NONE', *, *, #941, .F. ) ;
#1108 = DIRECTION ( 'NONE',  ( 0.000000000000000000, 0.000000000000000000, -1.000000000000000000 ) ) ;
#1109 = EDGE_CURVE ( 'NONE', #1236, #426, #1056, .T. ) ;
#1110 = ORIENTED_EDGE ( 'NONE', *, *, #644, .F. ) ;
#1111 = DIRECTION ( 'NONE',  ( 0.000000000000000000, 0.000000000000000000, -1.000000000000000000 ) ) ;
#1112 = DIRECTION ( 'NONE',  ( 0.8660254037844437036, 0.000000000000000000, 0.4999999999999911737 ) ) ;
#1113 = LINE ( 'NONE', #455, #692 ) ;
#1114 = CIRCLE ( 'NONE', #568, 1.649999999999999467 ) ;
#1115 = AXIS2_PLACEMENT_3D ( 'NONE', #638, #628, #944 ) ;
#1116 = VECTOR ( 'NONE', #557, 1000.000000000000114 ) ;
#1117 = EDGE_LOOP ( 'NONE', ( #463, #947, #869, #168 ) ) ;
#1118 = DIRECTION ( 'NONE',  ( 0.000000000000000000, 0.000000000000000000, 1.000000000000000000 ) ) ;
#1119 = AXIS2_PLACEMENT_3D ( 'NONE', #103, #490, #792 ) ;
#1120 = DIRECTION ( 'NONE',  ( -0.8660254037844363761, 0.000000000000000000, 0.5000000000000039968 ) ) ;
#1121 = DIRECTION ( 'NONE',  ( -0.000000000000000000, -1.000000000000000000, -0.000000000000000000 ) ) ;
#1122 = ORIENTED_EDGE ( 'NONE', *, *, #83, .T. ) ;
#1123 = DIRECTION ( 'NONE',  ( 0.000000000000000000, 0.000000000000000000, -1.000000000000000000 ) ) ;
#1124 = CYLINDRICAL_SURFACE ( 'NONE', #937, 37.19999999999999574 ) ;
#1125 = ORIENTED_EDGE ( 'NONE', *, *, #777, .T. ) ;
#1126 = EDGE_CURVE ( 'NONE', #950, #613, #450, .T. ) ;
#1127 = CARTESIAN_POINT ( 'NONE',  ( -46.69999999999998863, -15.99999999999994138, -2.000000000000000000 ) ) ;
#1128 = EDGE_LOOP ( 'NONE', ( #302, #570, #41, #586 ) ) ;
#1129 = DIRECTION ( 'NONE',  ( 0.000000000000000000, 0.000000000000000000, 1.000000000000000000 ) ) ;
#1130 = DIRECTION ( 'NONE',  ( 0.8660254037844437036, 0.000000000000000000, 0.4999999999999911737 ) ) ;
#1131 = LINE ( 'NONE', #62, #185 ) ;
#1132 = EDGE_CURVE ( 'NONE', #285, #1071, #782, .T. ) ;
#1133 = AXIS2_PLACEMENT_3D ( 'NONE', #730, #1121, #939 ) ;
#1134 = FACE_OUTER_BOUND ( 'NONE', #376, .T. ) ;
#1135 = AXIS2_PLACEMENT_3D ( 'NONE', #1166, #303, #973 ) ;
#1136 = CIRCLE ( 'NONE', #107, 3.149999999999999911 ) ;
#1137 = CARTESIAN_POINT ( 'NONE',  ( -47.00000000000000000, -1.517801994784243824, -1.700000000000005285 ) ) ;
#1138 = ADVANCED_FACE ( 'NONE', ( #342 ), #823, .F. ) ;
#1139 = ORIENTED_EDGE ( 'NONE', *, *, #580, .T. ) ;
#1140 = EDGE_CURVE ( 'NONE', #241, #741, #1105, .T. ) ;
#1141 = SURFACE_STYLE_FILL_AREA ( #845 ) ;
#1142 = DIRECTION ( 'NONE',  ( 0.000000000000000000, -1.000000000000000000, 0.000000000000000000 ) ) ;
#1143 = ORIENTED_EDGE ( 'NONE', *, *, #63, .F. ) ;
#1144 = ORIENTED_EDGE ( 'NONE', *, *, #1054, .T. ) ;
#1145 = DIRECTION ( 'NONE',  ( -0.000000000000000000, -1.000000000000000000, -0.000000000000000000 ) ) ;
#1146 = FILL_AREA_STYLE_COLOUR ( '', #354 ) ;
#1147 = EDGE_CURVE ( 'NONE', #265, #1045, #227, .T. ) ;
#1148 = LINE ( 'NONE', #1050, #938 ) ;
#1149 = DIRECTION ( 'NONE',  ( 0.000000000000000000, -1.000000000000000000, 0.000000000000000000 ) ) ;
#1150 = DIRECTION ( 'NONE',  ( 0.8660254037844433705, 0.000000000000000000, 0.4999999999999917843 ) ) ;
#1151 = DIRECTION ( 'NONE',  ( -0.000000000000000000, -1.000000000000000000, -0.000000000000000000 ) ) ;
#1152 = CONICAL_SURFACE ( 'NONE', #608, 3.149999999999999911, 0.7853981633974471688 ) ;
#1153 = ORIENTED_EDGE ( 'NONE', *, *, #589, .F. ) ;
#1154 = AXIS2_PLACEMENT_3D ( 'NONE', #329, #106, #592 ) ;
#1155 = DIRECTION ( 'NONE',  ( 0.000000000000000000, -1.000000000000000000, -0.000000000000000000 ) ) ;
#1156 = AXIS2_PLACEMENT_3D ( 'NONE', #36, #1063, #1158 ) ;
#1157 = ORIENTED_EDGE ( 'NONE', *, *, #1132, .F. ) ;
#1158 = DIRECTION ( 'NONE',  ( 0.000000000000000000, 0.000000000000000000, -1.000000000000000000 ) ) ;
#1159 = ORIENTED_EDGE ( 'NONE', *, *, #380, .F. ) ;
#1160 = CARTESIAN_POINT ( 'NONE',  ( -20.75000000000016698, -14.49999999999993960, -35.94005425705411483 ) ) ;
#1161 = EDGE_CURVE ( 'NONE', #605, #332, #969, .T. ) ;
#1162 = ORIENTED_EDGE ( 'NONE', *, *, #1229, .F. ) ;
#1163 = CARTESIAN_POINT ( 'NONE',  ( 41.49999999999999289, -14.49999999999993960, 0.000000000000000000 ) ) ;
#1164 = DIRECTION ( 'NONE',  ( -0.8660254037844398178, 0.000000000000000000, -0.4999999999999981126 ) ) ;
#1165 = ORIENTED_EDGE ( 'NONE', *, *, #873, .F. ) ;
#1166 = CARTESIAN_POINT ( 'NONE',  ( -41.49999999999999289, -15.99999999999994138, 0.000000000000000000 ) ) ;
#1167 = LINE ( 'NONE', #1102, #550 ) ;
#1168 = VERTEX_POINT ( 'NONE', #334 ) ;
#1169 = FACE_OUTER_BOUND ( 'NONE', #314, .T. ) ;
#1170 = ORIENTED_EDGE ( 'NONE', *, *, #580, .F. ) ;
#1171 = CARTESIAN_POINT ( 'NONE',  ( 0.000000000000000000, -6.009999999999928733, 0.000000000000000000 ) ) ;
#1172 = MECHANICAL_DESIGN_GEOMETRIC_PRESENTATION_REPRESENTATION (  '', ( #1094 ), #86 ) ;
#1173 = VECTOR ( 'NONE', #1145, 1000.000000000000000 ) ;
#1174 = CIRCLE ( 'NONE', #636, 1.649999999999998579 ) ;
#1175 = CARTESIAN_POINT ( 'NONE',  ( 4.555686092828153507E-15, 0.000000000000000000, 37.19999999999999574 ) ) ;
#1176 = VECTOR ( 'NONE', #469, 1000.000000000000000 ) ;
#1177 = VECTOR ( 'NONE', #886, 1000.000000000000000 ) ;
#1178 = DIRECTION ( 'NONE',  ( -0.8660254037844363761, 0.000000000000000000, 0.5000000000000039968 ) ) ;
#1179 = ADVANCED_FACE ( 'NONE', ( #821 ), #762, .F. ) ;
#1180 = DIRECTION ( 'NONE',  ( -0.8660254037844387076, 0.000000000000000000, -0.4999999999999998890 ) ) ;
#1181 = CARTESIAN_POINT ( 'NONE',  ( 0.000000000000000000, -13.99999999999992895, 0.000000000000000000 ) ) ;
#1182 = ORIENTED_EDGE ( 'NONE', *, *, #566, .F. ) ;
#1183 = LINE ( 'NONE', #606, #1230 ) ;
#1184 = FACE_OUTER_BOUND ( 'NONE', #1117, .T. ) ;
#1185 = EDGE_CURVE ( 'NONE', #44, #1024, #54, .T. ) ;
#1186 = CARTESIAN_POINT ( 'NONE',  ( -41.49999999999999289, -15.99999999999994138, 0.000000000000000000 ) ) ;
#1187 = FILL_AREA_STYLE ('',( #319 ) ) ;
#1188 = ORIENTED_EDGE ( 'NONE', *, *, #922, .T. ) ;
#1189 = CARTESIAN_POINT ( 'NONE',  ( -47.00000000000000000, -6.009999999999928733, 2.000000000000000000 ) ) ;
#1190 = FACE_BOUND ( 'NONE', #752, .T. ) ;
#1191 = VERTEX_POINT ( 'NONE', #814 ) ;
#1192 = EDGE_CURVE ( 'NONE', #428, #1168, #60, .T. ) ;
#1193 = AXIS2_PLACEMENT_3D ( 'NONE', #809, #1090, #29 ) ;
#1194 = AXIS2_PLACEMENT_3D ( 'NONE', #838, #1201, #1123 ) ;
#1195 = CARTESIAN_POINT ( 'NONE',  ( -20.74999999999966604, -15.99999999999994138, 35.94005425705439194 ) ) ;
#1196 = VERTEX_POINT ( 'NONE', #832 ) ;
#1197 = CARTESIAN_POINT ( 'NONE',  ( 18.02201997807893008, -15.99999999999994493, -37.51505425705423846 ) ) ;
#1198 = EDGE_LOOP ( 'NONE', ( #322, #473, #574, #998 ) ) ;
#1199 = CARTESIAN_POINT ( 'NONE',  ( -44.95553358597805271, -6.009999999999928733, -1.999999999999983569 ) ) ;
#1200 = ADVANCED_FACE ( 'NONE', ( #328 ), #934, .F. ) ;
#1201 = DIRECTION ( 'NONE',  ( -0.000000000000000000, -1.000000000000000000, -0.000000000000000000 ) ) ;
#1202 = CARTESIAN_POINT ( 'NONE',  ( 19.32105808375559164, -6.009999999999928733, -36.76505425705424557 ) ) ;
#1203 = ORIENTED_EDGE ( 'NONE', *, *, #119, .T. ) ;
#1204 = DIRECTION ( 'NONE',  ( -0.000000000000000000, -1.000000000000000000, -0.000000000000000000 ) ) ;
#1205 = ORIENTED_EDGE ( 'NONE', *, *, #1054, .F. ) ;
#1206 = CARTESIAN_POINT ( 'NONE',  ( -41.49999999999999289, -15.99999999999994493, 0.000000000000000000 ) ) ;
#1207 = FACE_BOUND ( 'NONE', #164, .T. ) ;
#1208 = ORIENTED_EDGE ( 'NONE', *, *, #1185, .F. ) ;
#1209 = CARTESIAN_POINT ( 'NONE',  ( -47.00000000000000000, -15.99999999999994138, 2.000000000000000000 ) ) ;
#1210 = COLOUR_RGB ( '',0.4980392156862745168, 0.4980392156862745168, 0.4980392156862745168 ) ;
#1211 = VECTOR ( 'NONE', #76, 1000.000000000000000 ) ;
#1212 = ORIENTED_EDGE ( 'NONE', *, *, #26, .T. ) ;
#1213 = DIRECTION ( 'NONE',  ( 0.000000000000000000, -1.000000000000000000, 0.000000000000000000 ) ) ;
#1214 = CIRCLE ( 'NONE', #1012, 37.19999999999999574 ) ;
#1215 = EDGE_CURVE ( 'NONE', #755, #1196, #513, .T. ) ;
#1216 = AXIS2_PLACEMENT_3D ( 'NONE', #92, #749, #266 ) ;
#1217 = FACE_OUTER_BOUND ( 'NONE', #977, .T. ) ;
#1218 = ORIENTED_EDGE ( 'NONE', *, *, #735, .T. ) ;
#1219 = DIRECTION ( 'NONE',  ( -0.000000000000000000, -1.000000000000000000, -0.000000000000000000 ) ) ;
#1220 = VERTEX_POINT ( 'NONE', #230 ) ;
#1221 = PRESENTATION_STYLE_ASSIGNMENT (( #381 ) ) ;
#1222 = FACE_BOUND ( 'NONE', #1060, .T. ) ;
#1223 = ADVANCED_FACE ( 'NONE', ( #1019 ), #617, .F. ) ;
#1224 = VERTEX_POINT ( 'NONE', #288 ) ;
#1225 = DIRECTION ( 'NONE',  ( -0.000000000000000000, -1.000000000000000000, -0.000000000000000000 ) ) ;
#1226 = DIRECTION ( 'NONE',  ( 0.000000000000000000, 0.000000000000000000, -1.000000000000000000 ) ) ;
#1227 = ORIENTED_EDGE ( 'NONE', *, *, #694, .F. ) ;
#1228 = LINE ( 'NONE', #1, #1173 ) ;
#1229 = EDGE_CURVE ( 'NONE', #1015, #559, #459, .T. ) ;
#1230 = VECTOR ( 'NONE', #226, 1000.000000000000000 ) ;
#1231 = CARTESIAN_POINT ( 'NONE',  ( -41.49999999999999289, -15.99999999999994138, 1.649999999999998579 ) ) ;
#1232 = ORIENTED_EDGE ( 'NONE', *, *, #101, .T. ) ;
#1233 = AXIS2_PLACEMENT_3D ( 'NONE', #1059, #874, #382 ) ;
#1234 = FACE_OUTER_BOUND ( 'NONE', #921, .T. ) ;
#1235 = EDGE_CURVE ( 'NONE', #180, #764, #306, .T. ) ;
#1236 = VERTEX_POINT ( 'NONE', #572 ) ;
#1237 = DIRECTION ( 'NONE',  ( 0.000000000000000000, 0.000000000000000000, -1.000000000000000000 ) ) ;
#1238 = ORIENTED_EDGE ( 'NONE', *, *, #271, .T. ) ;
ENDSEC;
END-ISO-10303-21;
