ISO-10303-21;
HEADER;
FILE_DESCRIPTION (( 'STEP AP214' ),
    '1' );
FILE_NAME ('SO102.02.030 Base washer.STEP',
    '2026-09-18T14:22:22',
    ( '' ),
    ( '' ),
    'SwSTEP 2.0',
    'SolidWorks 2021',
    '' );
FILE_SCHEMA (( 'AUTOMOTIVE_DESIGN' ));
ENDSEC;

DATA;
#1 = CARTESIAN_POINT ( 'NONE',  ( 4.189071563564133488E-16, 11.99999999999999645, -5.350000000000007638 ) ) ;
#2 = CYLINDRICAL_SURFACE ( 'NONE', #419, 1.649999999999993472 ) ;
#3 = APPLICATION_CONTEXT ( 'automotive_design' ) ;
#4 = DIRECTION ( 'NONE',  ( 0.000000000000000000, 1.000000000000000000, 0.000000000000000000 ) ) ;
#5 = EDGE_LOOP ( 'NONE', ( #275, #344, #417, #64 ) ) ;
#6 = EDGE_CURVE ( 'NONE', #427, #109, #154, .T. ) ;
#7 = DIRECTION ( 'NONE',  ( -0.000000000000000000, -1.000000000000000000, -0.000000000000000000 ) ) ;
#8 = EDGE_LOOP ( 'NONE', ( #355, #302 ) ) ;
#9 = FACE_BOUND ( 'NONE', #157, .T. ) ;
#10 = EDGE_CURVE ( 'NONE', #482, #202, #409, .T. ) ;
#11 = CARTESIAN_POINT ( 'NONE',  ( 6.999999999999999112, 9.999999999999996447, 0.000000000000000000 ) ) ;
#12 =( NAMED_UNIT ( * ) PLANE_ANGLE_UNIT ( ) SI_UNIT ( $, .RADIAN. ) );
#13 = CARTESIAN_POINT ( 'NONE',  ( -6.999999999999999112, 9.999999999999996447, 1.649999999999993472 ) ) ;
#14 = CIRCLE ( 'NONE', #20, 1.649999999999993472 ) ;
#15 = CARTESIAN_POINT ( 'NONE',  ( -1.409462824231155764E-15, 9.999999999999996447, 5.350000000000005862 ) ) ;
#16 = DIRECTION ( 'NONE',  ( 0.000000000000000000, 0.000000000000000000, 1.000000000000000000 ) ) ;
#17 = EDGE_CURVE ( 'NONE', #304, #145, #365, .T. ) ;
#18 = MECHANICAL_DESIGN_GEOMETRIC_PRESENTATION_REPRESENTATION (  '', ( #56 ), #155 ) ;
#19 = DIRECTION ( 'NONE',  ( 0.000000000000000000, 1.000000000000000000, 0.000000000000000000 ) ) ;
#20 = AXIS2_PLACEMENT_3D ( 'NONE', #313, #475, #278 ) ;
#21 = CARTESIAN_POINT ( 'NONE',  ( 2.168404344971008868E-16, 9.999999999999996447, -7.000000000000000888 ) ) ;
#22 = ORIENTED_EDGE ( 'NONE', *, *, #59, .F. ) ;
#23 = EDGE_CURVE ( 'NONE', #213, #464, #239, .T. ) ;
#24 = DIRECTION ( 'NONE',  ( 0.000000000000000000, 0.000000000000000000, -1.000000000000000000 ) ) ;
#25 = ORIENTED_EDGE ( 'NONE', *, *, #23, .F. ) ;
#26 = CIRCLE ( 'NONE', #350, 1.649999999999993472 ) ;
#27 = ORIENTED_EDGE ( 'NONE', *, *, #23, .T. ) ;
#28 = MECHANICAL_DESIGN_GEOMETRIC_PRESENTATION_REPRESENTATION (  '', ( #319 ), #328 ) ;
#29 = FACE_OUTER_BOUND ( 'NONE', #252, .T. ) ;
#30 = ORIENTED_EDGE ( 'NONE', *, *, #492, .T. ) ;
#31 = SURFACE_SIDE_STYLE ('',( #65 ) ) ;
#32 = ORIENTED_EDGE ( 'NONE', *, *, #425, .F. ) ;
#33 = ADVANCED_FACE ( 'NONE', ( #79, #200, #399, #484, #9, #159 ), #269, .T. ) ;
#34 = CARTESIAN_POINT ( 'NONE',  ( 1.206277097160142826E-15, 11.99999999999999645, 9.849999999999999645 ) ) ;
#35 = ORIENTED_EDGE ( 'NONE', *, *, #98, .T. ) ;
#36 = FACE_OUTER_BOUND ( 'NONE', #349, .T. ) ;
#37 = DIRECTION ( 'NONE',  ( -0.000000000000000000, -1.000000000000000000, -0.000000000000000000 ) ) ;
#38 = EDGE_CURVE ( 'NONE', #229, #304, #312, .T. ) ;
#39 = DIRECTION ( 'NONE',  ( 0.000000000000000000, -0.000000000000000000, 1.000000000000000000 ) ) ;
#40 = ORIENTED_EDGE ( 'NONE', *, *, #88, .F. ) ;
#41 = DIRECTION ( 'NONE',  ( -0.000000000000000000, -1.000000000000000000, -0.000000000000000000 ) ) ;
#42 = ORIENTED_EDGE ( 'NONE', *, *, #337, .F. ) ;
#43 = VECTOR ( 'NONE', #164, 1000.000000000000000 ) ;
#44 = CARTESIAN_POINT ( 'NONE',  ( 1.206277097160142826E-15, 9.999999999999996447, 9.849999999999999645 ) ) ;
#45 = DIRECTION ( 'NONE',  ( 0.000000000000000000, 0.000000000000000000, 1.000000000000000000 ) ) ;
#46 = PRESENTATION_STYLE_ASSIGNMENT (( #322 ) ) ;
#47 = DIRECTION ( 'NONE',  ( -0.000000000000000000, -1.000000000000000000, -0.000000000000000000 ) ) ;
#48 = LINE ( 'NONE', #406, #487 ) ;
#49 = CARTESIAN_POINT ( 'NONE',  ( 0.000000000000000000, 9.999999999999996447, -3.500000000000000000 ) ) ;
#50 = VECTOR ( 'NONE', #125, 1000.000000000000000 ) ;
#51 = DIRECTION ( 'NONE',  ( 1.000000000000000000, 0.000000000000000000, 0.000000000000000000 ) ) ;
#52 = DIRECTION ( 'NONE',  ( -0.000000000000000000, -1.000000000000000000, -0.000000000000000000 ) ) ;
#53 = ADVANCED_FACE ( 'NONE', ( #192 ), #2, .F. ) ;
#54 = CARTESIAN_POINT ( 'NONE',  ( 0.000000000000000000, 9.999999999999996447, 0.000000000000000000 ) ) ;
#55 = CARTESIAN_POINT ( 'NONE',  ( 0.000000000000000000, 11.99999999999999645, 0.000000000000000000 ) ) ;
#56 = STYLED_ITEM ( 'NONE', ( #495 ), #233 ) ;
#57 = CYLINDRICAL_SURFACE ( 'NONE', #458, 9.849999999999999645 ) ;
#58 = VERTEX_POINT ( 'NONE', #171 ) ;
#59 = EDGE_CURVE ( 'NONE', #67, #202, #412, .T. ) ;
#60 = SURFACE_STYLE_USAGE ( .BOTH. , #31 ) ;
#61 = ORIENTED_EDGE ( 'NONE', *, *, #462, .T. ) ;
#62 = ADVANCED_BREP_SHAPE_REPRESENTATION ( 'SO102.02.030 Base washer', ( #233, #199 ), #230 ) ;
#63 = DIRECTION ( 'NONE',  ( -0.000000000000000000, -1.000000000000000000, -0.000000000000000000 ) ) ;
#64 = ORIENTED_EDGE ( 'NONE', *, *, #17, .F. ) ;
#65 = SURFACE_STYLE_FILL_AREA ( #384 ) ;
#66 = COLOUR_RGB ( '',0.4980392156862745168, 0.4980392156862745168, 0.4980392156862745168 ) ;
#67 = VERTEX_POINT ( 'NONE', #245 ) ;
#68 = AXIS2_PLACEMENT_3D ( 'NONE', #21, #299, #294 ) ;
#69 = FACE_OUTER_BOUND ( 'NONE', #115, .T. ) ;
#70 = EDGE_CURVE ( 'NONE', #113, #109, #485, .T. ) ;
#71 = ORIENTED_EDGE ( 'NONE', *, *, #88, .T. ) ;
#72 = DIRECTION ( 'NONE',  ( 0.000000000000000000, 0.000000000000000000, 1.000000000000000000 ) ) ;
#73 = DIRECTION ( 'NONE',  ( 0.000000000000000000, 1.000000000000000000, 0.000000000000000000 ) ) ;
#74 = DIRECTION ( 'NONE',  ( -0.000000000000000000, -1.000000000000000000, -0.000000000000000000 ) ) ;
#75 = EDGE_LOOP ( 'NONE', ( #172, #266, #496, #136 ) ) ;
#76 = AXIS2_PLACEMENT_3D ( 'NONE', #228, #401, #353 ) ;
#77 = ORIENTED_EDGE ( 'NONE', *, *, #123, .F. ) ;
#78 = CARTESIAN_POINT ( 'NONE',  ( 6.999999999999999112, 11.99999999999999645, -1.649999999999993472 ) ) ;
#79 = FACE_BOUND ( 'NONE', #8, .T. ) ;
#80 = DIRECTION ( 'NONE',  ( 0.000000000000000000, 0.000000000000000000, 1.000000000000000000 ) ) ;
#81 = CARTESIAN_POINT ( 'NONE',  ( -6.999999999999999112, 9.999999999999996447, 0.000000000000000000 ) ) ;
#82 = DIRECTION ( 'NONE',  ( 0.000000000000000000, 1.000000000000000000, 0.000000000000000000 ) ) ;
#83 = DIRECTION ( 'NONE',  ( 0.000000000000000000, 1.000000000000000000, 0.000000000000000000 ) ) ;
#84 = VECTOR ( 'NONE', #182, 1000.000000000000000 ) ;
#85 = DIRECTION ( 'NONE',  ( -0.000000000000000000, -1.000000000000000000, -0.000000000000000000 ) ) ;
#86 = AXIS2_PLACEMENT_3D ( 'NONE', #471, #280, #267 ) ;
#87 = DIRECTION ( 'NONE',  ( -0.000000000000000000, -1.000000000000000000, -0.000000000000000000 ) ) ;
#88 = EDGE_CURVE ( 'NONE', #213, #480, #333, .T. ) ;
#89 =( NAMED_UNIT ( * ) SI_UNIT ( $, .STERADIAN. ) SOLID_ANGLE_UNIT ( ) );
#90 = DIRECTION ( 'NONE',  ( 0.000000000000000000, 1.000000000000000000, 0.000000000000000000 ) ) ;
#91 = CARTESIAN_POINT ( 'NONE',  ( 2.168404344971008868E-16, 11.99999999999999645, -8.649999999999995026 ) ) ;
#92 = AXIS2_PLACEMENT_3D ( 'NONE', #214, #377, #493 ) ;
#93 = EDGE_CURVE ( 'NONE', #222, #229, #356, .T. ) ;
#94 = APPLICATION_PROTOCOL_DEFINITION ( 'draft international standard', 'automotive_design', 1998, #379 ) ;
#95 = CARTESIAN_POINT ( 'NONE',  ( -6.999999999999999112, 11.99999999999999645, 0.000000000000000000 ) ) ;
#96 = FACE_OUTER_BOUND ( 'NONE', #261, .T. ) ;
#97 = FACE_OUTER_BOUND ( 'NONE', #75, .T. ) ;
#98 = EDGE_CURVE ( 'NONE', #255, #433, #449, .T. ) ;
#99 = CIRCLE ( 'NONE', #170, 1.649999999999993472 ) ;
#100 = CARTESIAN_POINT ( 'NONE',  ( -1.409462824231155764E-15, 11.99999999999999645, 6.999999999999999112 ) ) ;
#101 = ORIENTED_EDGE ( 'NONE', *, *, #324, .T. ) ;
#102 = PRODUCT_DEFINITION_FORMATION_WITH_SPECIFIED_SOURCE ( 'ANY', '', #389, .NOT_KNOWN. ) ;
#103 = CARTESIAN_POINT ( 'NONE',  ( 6.999999999999999112, 11.99999999999999645, 0.000000000000000000 ) ) ;
#104 = ORIENTED_EDGE ( 'NONE', *, *, #59, .T. ) ;
#105 = ORIENTED_EDGE ( 'NONE', *, *, #93, .F. ) ;
#106 = ADVANCED_FACE ( 'NONE', ( #96 ), #453, .F. ) ;
#107 = DIRECTION ( 'NONE',  ( 0.000000000000000000, 0.000000000000000000, 1.000000000000000000 ) ) ;
#108 = AXIS2_PLACEMENT_3D ( 'NONE', #81, #83, #194 ) ;
#109 = VERTEX_POINT ( 'NONE', #15 ) ;
#110 = CIRCLE ( 'NONE', #258, 1.649999999999993472 ) ;
#111 = ORIENTED_EDGE ( 'NONE', *, *, #291, .T. ) ;
#112 = DIRECTION ( 'NONE',  ( -0.000000000000000000, -1.000000000000000000, -0.000000000000000000 ) ) ;
#113 = VERTEX_POINT ( 'NONE', #293 ) ;
#114 = CARTESIAN_POINT ( 'NONE',  ( 2.168404344971008868E-16, 9.999999999999996447, -8.649999999999995026 ) ) ;
#115 = EDGE_LOOP ( 'NONE', ( #341, #30, #310, #42 ) ) ;
#116 = FACE_BOUND ( 'NONE', #376, .T. ) ;
#117 = DIRECTION ( 'NONE',  ( 0.000000000000000000, 0.000000000000000000, 1.000000000000000000 ) ) ;
#118 = AXIS2_PLACEMENT_3D ( 'NONE', #151, #402, #45 ) ;
#119 = DIRECTION ( 'NONE',  ( 0.000000000000000000, 1.000000000000000000, 0.000000000000000000 ) ) ;
#120 = ORIENTED_EDGE ( 'NONE', *, *, #123, .T. ) ;
#121 = CARTESIAN_POINT ( 'NONE',  ( -1.409462824231155764E-15, 11.99999999999999645, 5.350000000000005862 ) ) ;
#122 = EDGE_LOOP ( 'NONE', ( #352, #215 ) ) ;
#123 = EDGE_CURVE ( 'NONE', #145, #304, #256, .T. ) ;
#124 = CARTESIAN_POINT ( 'NONE',  ( 6.999999999999999112, 11.99999999999999645, 1.649999999999993472 ) ) ;
#125 = DIRECTION ( 'NONE',  ( -0.000000000000000000, -1.000000000000000000, -0.000000000000000000 ) ) ;
#126 = VECTOR ( 'NONE', #387, 1000.000000000000000 ) ;
#127 = CIRCLE ( 'NONE', #86, 9.849999999999999645 ) ;
#128 = DIRECTION ( 'NONE',  ( 0.000000000000000000, 0.000000000000000000, 1.000000000000000000 ) ) ;
#129 = DIRECTION ( 'NONE',  ( 0.000000000000000000, 1.000000000000000000, 0.000000000000000000 ) ) ;
#130 = ADVANCED_FACE ( 'NONE', ( #454 ), #204, .T. ) ;
#131 = CARTESIAN_POINT ( 'NONE',  ( 0.000000000000000000, 11.99999999999999645, 0.000000000000000000 ) ) ;
#132 = AXIS2_PLACEMENT_3D ( 'NONE', #54, #330, #289 ) ;
#133 = CARTESIAN_POINT ( 'NONE',  ( -1.409462824231155764E-15, 11.99999999999999645, 6.999999999999999112 ) ) ;
#134 = ORIENTED_EDGE ( 'NONE', *, *, #324, .F. ) ;
#135 = CARTESIAN_POINT ( 'NONE',  ( -6.999999999999999112, 11.99999999999999645, -1.649999999999993472 ) ) ;
#136 = ORIENTED_EDGE ( 'NONE', *, *, #70, .F. ) ;
#137 = VECTOR ( 'NONE', #435, 1000.000000000000000 ) ;
#138 = CIRCLE ( 'NONE', #411, 1.649999999999993472 ) ;
#139 = CARTESIAN_POINT ( 'NONE',  ( -1.409462824231155764E-15, 11.99999999999999645, 6.999999999999999112 ) ) ;
#140 = VERTEX_POINT ( 'NONE', #488 ) ;
#141 = DIRECTION ( 'NONE',  ( -0.000000000000000000, -1.000000000000000000, -0.000000000000000000 ) ) ;
#142 = ORIENTED_EDGE ( 'NONE', *, *, #179, .T. ) ;
#143 = EDGE_CURVE ( 'NONE', #229, #222, #467, .T. ) ;
#144 = DIRECTION ( 'NONE',  ( 0.000000000000000000, 0.000000000000000000, 1.000000000000000000 ) ) ;
#145 = VERTEX_POINT ( 'NONE', #49 ) ;
#146 = FACE_OUTER_BOUND ( 'NONE', #183, .T. ) ;
#147 = EDGE_LOOP ( 'NONE', ( #505, #265 ) ) ;
#148 = PRODUCT_DEFINITION_SHAPE ( 'NONE', 'NONE',  #149 ) ;
#149 = PRODUCT_DEFINITION ( 'UNKNOWN', '', #102, #295 ) ;
#150 = FACE_BOUND ( 'NONE', #220, .T. ) ;
#151 = CARTESIAN_POINT ( 'NONE',  ( 0.000000000000000000, 9.999999999999996447, 0.000000000000000000 ) ) ;
#152 = VERTEX_POINT ( 'NONE', #208 ) ;
#153 = CARTESIAN_POINT ( 'NONE',  ( 6.999999999999999112, 9.999999999999996447, 1.649999999999993472 ) ) ;
#154 = LINE ( 'NONE', #318, #137 ) ;
#155 =( GEOMETRIC_REPRESENTATION_CONTEXT ( 3 ) GLOBAL_UNCERTAINTY_ASSIGNED_CONTEXT ( ( #345 ) ) GLOBAL_UNIT_ASSIGNED_CONTEXT ( ( #503, #380, #254 ) ) REPRESENTATION_CONTEXT ( 'NONE', 'WORKASPACE' ) );
#156 = DIRECTION ( 'NONE',  ( 0.000000000000000000, 1.000000000000000000, 0.000000000000000000 ) ) ;
#157 = EDGE_LOOP ( 'NONE', ( #422, #238 ) ) ;
#158 = CARTESIAN_POINT ( 'NONE',  ( 0.000000000000000000, 9.999999999999996447, -9.849999999999999645 ) ) ;
#159 = FACE_BOUND ( 'NONE', #262, .T. ) ;
#160 = CARTESIAN_POINT ( 'NONE',  ( 0.000000000000000000, 11.99999999999999645, -3.500000000000000000 ) ) ;
#161 = DIRECTION ( 'NONE',  ( -0.000000000000000000, -1.000000000000000000, -0.000000000000000000 ) ) ;
#162 = CIRCLE ( 'NONE', #240, 1.649999999999993472 ) ;
#163 = EDGE_CURVE ( 'NONE', #202, #482, #477, .T. ) ;
#164 = DIRECTION ( 'NONE',  ( -0.000000000000000000, -1.000000000000000000, -0.000000000000000000 ) ) ;
#165 = APPLICATION_PROTOCOL_DEFINITION ( 'draft international standard', 'automotive_design', 1998, #3 ) ;
#166 = DIRECTION ( 'NONE',  ( 0.000000000000000000, 0.000000000000000000, 1.000000000000000000 ) ) ;
#167 =( NAMED_UNIT ( * ) SI_UNIT ( $, .STERADIAN. ) SOLID_ANGLE_UNIT ( ) );
#168 = DIRECTION ( 'NONE',  ( 0.000000000000000000, 0.000000000000000000, 1.000000000000000000 ) ) ;
#169 = ORIENTED_EDGE ( 'NONE', *, *, #143, .F. ) ;
#170 = AXIS2_PLACEMENT_3D ( 'NONE', #95, #370, #368 ) ;
#171 = CARTESIAN_POINT ( 'NONE',  ( 4.189071563564133981E-16, 9.999999999999996447, -5.350000000000007638 ) ) ;
#172 = ORIENTED_EDGE ( 'NONE', *, *, #462, .F. ) ;
#173 = EDGE_CURVE ( 'NONE', #140, #67, #99, .T. ) ;
#174 = CYLINDRICAL_SURFACE ( 'NONE', #221, 3.500000000000000000 ) ;
#175 = ORIENTED_EDGE ( 'NONE', *, *, #163, .F. ) ;
#176 = FACE_OUTER_BOUND ( 'NONE', #279, .T. ) ;
#177 = ORIENTED_EDGE ( 'NONE', *, *, #10, .T. ) ;
#178 = AXIS2_PLACEMENT_3D ( 'NONE', #205, #486, #416 ) ;
#179 = EDGE_CURVE ( 'NONE', #461, #386, #138, .T. ) ;
#180 = ORIENTED_EDGE ( 'NONE', *, *, #216, .T. ) ;
#181 = CIRCLE ( 'NONE', #76, 1.649999999999993472 ) ;
#182 = DIRECTION ( 'NONE',  ( -0.000000000000000000, -1.000000000000000000, -0.000000000000000000 ) ) ;
#183 = EDGE_LOOP ( 'NONE', ( #272, #104, #185, #426 ) ) ;
#184 = CYLINDRICAL_SURFACE ( 'NONE', #92, 1.649999999999993472 ) ;
#185 = ORIENTED_EDGE ( 'NONE', *, *, #10, .F. ) ;
#186 = AXIS2_PLACEMENT_3D ( 'NONE', #236, #441, #117 ) ;
#187 = DIRECTION ( 'NONE',  ( 0.000000000000000000, 1.000000000000000000, 0.000000000000000000 ) ) ;
#188 = ORIENTED_EDGE ( 'NONE', *, *, #367, .T. ) ;
#189 = VECTOR ( 'NONE', #225, 1000.000000000000000 ) ;
#190 = ORIENTED_EDGE ( 'NONE', *, *, #210, .F. ) ;
#191 = CYLINDRICAL_SURFACE ( 'NONE', #479, 1.649999999999993472 ) ;
#192 = FACE_OUTER_BOUND ( 'NONE', #431, .T. ) ;
#193 = CARTESIAN_POINT ( 'NONE',  ( 0.000000000000000000, 9.999999999999996447, 0.000000000000000000 ) ) ;
#194 = DIRECTION ( 'NONE',  ( 0.000000000000000000, 0.000000000000000000, 1.000000000000000000 ) ) ;
#195 = DIRECTION ( 'NONE',  ( 0.000000000000000000, 0.000000000000000000, -1.000000000000000000 ) ) ;
#196 = CARTESIAN_POINT ( 'NONE',  ( 0.000000000000000000, 11.99999999999999645, 0.000000000000000000 ) ) ;
#197 = AXIS2_PLACEMENT_3D ( 'NONE', #196, #73, #510 ) ;
#198 = ADVANCED_FACE ( 'NONE', ( #405 ), #363, .F. ) ;
#199 = AXIS2_PLACEMENT_3D ( 'NONE', #448, #288, #51 ) ;
#200 = FACE_BOUND ( 'NONE', #147, .T. ) ;
#201 = CARTESIAN_POINT ( 'NONE',  ( -6.999999999999999112, 9.999999999999996447, 0.000000000000000000 ) ) ;
#202 = VERTEX_POINT ( 'NONE', #13 ) ;
#203 = CARTESIAN_POINT ( 'NONE',  ( -6.999999999999999112, 9.999999999999996447, -1.649999999999993472 ) ) ;
#204 = CYLINDRICAL_SURFACE ( 'NONE', #178, 9.849999999999999645 ) ;
#205 = CARTESIAN_POINT ( 'NONE',  ( 0.000000000000000000, 11.99999999999999645, 0.000000000000000000 ) ) ;
#206 = FILL_AREA_STYLE ('',( #329 ) ) ;
#207 = CARTESIAN_POINT ( 'NONE',  ( 6.999999999999999112, 11.99999999999999645, 0.000000000000000000 ) ) ;
#208 = CARTESIAN_POINT ( 'NONE',  ( -1.207396102371843204E-15, 11.99999999999999645, 8.649999999999993250 ) ) ;
#209 = EDGE_LOOP ( 'NONE', ( #298, #25, #71, #397 ) ) ;
#210 = EDGE_CURVE ( 'NONE', #222, #145, #407, .T. ) ;
#211 = LINE ( 'NONE', #135, #84 ) ;
#212 = COLOUR_RGB ( '',0.4980392156862745168, 0.4980392156862745168, 0.4980392156862745168 ) ;
#213 = VERTEX_POINT ( 'NONE', #249 ) ;
#214 = CARTESIAN_POINT ( 'NONE',  ( 6.999999999999999112, 11.99999999999999645, 0.000000000000000000 ) ) ;
#215 = ORIENTED_EDGE ( 'NONE', *, *, #432, .F. ) ;
#216 = EDGE_CURVE ( 'NONE', #464, #213, #445, .T. ) ;
#217 = DIRECTION ( 'NONE',  ( -0.000000000000000000, -1.000000000000000000, -0.000000000000000000 ) ) ;
#218 = ORIENTED_EDGE ( 'NONE', *, *, #93, .T. ) ;
#219 = AXIS2_PLACEMENT_3D ( 'NONE', #133, #244, #285 ) ;
#220 = EDGE_LOOP ( 'NONE', ( #469, #301 ) ) ;
#221 = AXIS2_PLACEMENT_3D ( 'NONE', #340, #112, #195 ) ;
#222 = VERTEX_POINT ( 'NONE', #287 ) ;
#223 = DIRECTION ( 'NONE',  ( 0.000000000000000000, 0.000000000000000000, -1.000000000000000000 ) ) ;
#224 = EDGE_LOOP ( 'NONE', ( #101, #381 ) ) ;
#225 = DIRECTION ( 'NONE',  ( -0.000000000000000000, -1.000000000000000000, -0.000000000000000000 ) ) ;
#226 = ORIENTED_EDGE ( 'NONE', *, *, #425, .T. ) ;
#227 = VECTOR ( 'NONE', #37, 1000.000000000000000 ) ;
#228 = CARTESIAN_POINT ( 'NONE',  ( 6.999999999999999112, 11.99999999999999645, 0.000000000000000000 ) ) ;
#229 = VERTEX_POINT ( 'NONE', #450 ) ;
#230 =( GEOMETRIC_REPRESENTATION_CONTEXT ( 3 ) GLOBAL_UNCERTAINTY_ASSIGNED_CONTEXT ( ( #248 ) ) GLOBAL_UNIT_ASSIGNED_CONTEXT ( ( #243, #325, #89 ) ) REPRESENTATION_CONTEXT ( 'NONE', 'WORKASPACE' ) );
#231 = FACE_BOUND ( 'NONE', #491, .T. ) ;
#232 = CARTESIAN_POINT ( 'NONE',  ( 2.168404344971008868E-16, 11.99999999999999645, -7.000000000000000888 ) ) ;
#233 = MANIFOLD_SOLID_BREP ( 'Круговой массив1[2]', #246 ) ;
#234 = ADVANCED_FACE ( 'NONE', ( #29 ), #283, .F. ) ;
#235 = LINE ( 'NONE', #1, #460 ) ;
#236 = CARTESIAN_POINT ( 'NONE',  ( 0.000000000000000000, 11.99999999999999645, 0.000000000000000000 ) ) ;
#237 = CARTESIAN_POINT ( 'NONE',  ( 2.168404344971008868E-16, 9.999999999999996447, -7.000000000000000888 ) ) ;
#238 = ORIENTED_EDGE ( 'NONE', *, *, #250, .F. ) ;
#239 = CIRCLE ( 'NONE', #186, 9.849999999999999645 ) ;
#240 = AXIS2_PLACEMENT_3D ( 'NONE', #311, #156, #72 ) ;
#241 = CARTESIAN_POINT ( 'NONE',  ( -6.999999999999999112, 11.99999999999999645, 1.649999999999993472 ) ) ;
#242 = EDGE_CURVE ( 'NONE', #140, #482, #211, .T. ) ;
#243 =( LENGTH_UNIT ( ) NAMED_UNIT ( * ) SI_UNIT ( .MILLI., .METRE. ) );
#244 = DIRECTION ( 'NONE',  ( -0.000000000000000000, -1.000000000000000000, -0.000000000000000000 ) ) ;
#245 = CARTESIAN_POINT ( 'NONE',  ( -6.999999999999999112, 11.99999999999999645, 1.649999999999993472 ) ) ;
#246 = CLOSED_SHELL ( 'NONE', ( #332, #393, #470, #315, #106, #130, #33, #361, #282, #277, #198, #53, #234, #268 ) ) ;
#247 = AXIS2_PLACEMENT_3D ( 'NONE', #443, #82, #271 ) ;
#248 = UNCERTAINTY_MEASURE_WITH_UNIT (LENGTH_MEASURE( 1.000000000000000082E-05 ), #243, 'distance_accuracy_value', 'NONE');
#249 = CARTESIAN_POINT ( 'NONE',  ( 0.000000000000000000, 11.99999999999999645, -9.849999999999999645 ) ) ;
#250 = EDGE_CURVE ( 'NONE', #354, #255, #371, .T. ) ;
#251 = DIRECTION ( 'NONE',  ( 0.000000000000000000, 0.000000000000000000, 1.000000000000000000 ) ) ;
#252 = EDGE_LOOP ( 'NONE', ( #22, #429, #444, #175 ) ) ;
#253 = UNCERTAINTY_MEASURE_WITH_UNIT (LENGTH_MEASURE( 1.000000000000000082E-05 ), #364, 'distance_accuracy_value', 'NONE');
#254 =( NAMED_UNIT ( * ) SI_UNIT ( $, .STERADIAN. ) SOLID_ANGLE_UNIT ( ) );
#255 = VERTEX_POINT ( 'NONE', #343 ) ;
#256 = CIRCLE ( 'NONE', #132, 3.500000000000000000 ) ;
#257 = DIRECTION ( 'NONE',  ( 0.000000000000000000, 0.000000000000000000, -1.000000000000000000 ) ) ;
#258 = AXIS2_PLACEMENT_3D ( 'NONE', #237, #440, #509 ) ;
#259 = ORIENTED_EDGE ( 'NONE', *, *, #216, .F. ) ;
#260 = FACE_OUTER_BOUND ( 'NONE', #5, .T. ) ;
#261 = EDGE_LOOP ( 'NONE', ( #466, #61, #420, #502 ) ) ;
#262 = EDGE_LOOP ( 'NONE', ( #105, #169 ) ) ;
#263 = AXIS2_PLACEMENT_3D ( 'NONE', #423, #346, #144 ) ;
#264 = DIRECTION ( 'NONE',  ( 0.000000000000000000, 1.000000000000000000, 0.000000000000000000 ) ) ;
#265 = ORIENTED_EDGE ( 'NONE', *, *, #291, .F. ) ;
#266 = ORIENTED_EDGE ( 'NONE', *, *, #297, .T. ) ;
#267 = DIRECTION ( 'NONE',  ( 0.000000000000000000, 0.000000000000000000, 1.000000000000000000 ) ) ;
#268 = ADVANCED_FACE ( 'NONE', ( #260 ), #497, .F. ) ;
#269 = PLANE ( 'NONE',  #197 ) ;
#270 = EDGE_LOOP ( 'NONE', ( #259, #321, #323, #40 ) ) ;
#271 = DIRECTION ( 'NONE',  ( 0.000000000000000000, 0.000000000000000000, 1.000000000000000000 ) ) ;
#272 = ORIENTED_EDGE ( 'NONE', *, *, #173, .T. ) ;
#273 = AXIS2_PLACEMENT_3D ( 'NONE', #100, #63, #296 ) ;
#274 = FACE_BOUND ( 'NONE', #224, .T. ) ;
#275 = ORIENTED_EDGE ( 'NONE', *, *, #38, .F. ) ;
#276 = PRESENTATION_LAYER_ASSIGNMENT (  '', '', ( #319 ) ) ;
#277 = ADVANCED_FACE ( 'NONE', ( #97 ), #456, .F. ) ;
#278 = DIRECTION ( 'NONE',  ( 0.000000000000000000, 0.000000000000000000, 1.000000000000000000 ) ) ;
#279 = EDGE_LOOP ( 'NONE', ( #218, #281, #77, #190 ) ) ;
#280 = DIRECTION ( 'NONE',  ( 0.000000000000000000, 1.000000000000000000, 0.000000000000000000 ) ) ;
#281 = ORIENTED_EDGE ( 'NONE', *, *, #38, .T. ) ;
#282 = ADVANCED_FACE ( 'NONE', ( #465 ), #57, .T. ) ;
#283 = CYLINDRICAL_SURFACE ( 'NONE', #392, 1.649999999999993472 ) ;
#284 = CIRCLE ( 'NONE', #382, 1.649999999999993472 ) ;
#285 = DIRECTION ( 'NONE',  ( 0.000000000000000000, 0.000000000000000000, -1.000000000000000000 ) ) ;
#286 = SURFACE_SIDE_STYLE ('',( #410 ) ) ;
#287 = CARTESIAN_POINT ( 'NONE',  ( 0.000000000000000000, 11.99999999999999645, -3.500000000000000000 ) ) ;
#288 = DIRECTION ( 'NONE',  ( 0.000000000000000000, 0.000000000000000000, 1.000000000000000000 ) ) ;
#289 = DIRECTION ( 'NONE',  ( 0.000000000000000000, 0.000000000000000000, 1.000000000000000000 ) ) ;
#290 = VECTOR ( 'NONE', #52, 1000.000000000000000 ) ;
#291 = EDGE_CURVE ( 'NONE', #472, #499, #284, .T. ) ;
#292 = AXIS2_PLACEMENT_3D ( 'NONE', #193, #4, #320 ) ;
#293 = CARTESIAN_POINT ( 'NONE',  ( -1.207396102371843204E-15, 9.999999999999996447, 8.649999999999993250 ) ) ;
#294 = DIRECTION ( 'NONE',  ( 0.000000000000000000, 0.000000000000000000, 1.000000000000000000 ) ) ;
#295 = PRODUCT_DEFINITION_CONTEXT ( 'detailed design', #379, 'design' ) ;
#296 = DIRECTION ( 'NONE',  ( 0.000000000000000000, 0.000000000000000000, -1.000000000000000000 ) ) ;
#297 = EDGE_CURVE ( 'NONE', #152, #427, #26, .T. ) ;
#298 = ORIENTED_EDGE ( 'NONE', *, *, #306, .F. ) ;
#299 = DIRECTION ( 'NONE',  ( 0.000000000000000000, 1.000000000000000000, 0.000000000000000000 ) ) ;
#300 = CIRCLE ( 'NONE', #309, 1.649999999999993472 ) ;
#301 = ORIENTED_EDGE ( 'NONE', *, *, #70, .T. ) ;
#302 = ORIENTED_EDGE ( 'NONE', *, *, #403, .F. ) ;
#303 = CARTESIAN_POINT ( 'NONE',  ( 0.000000000000000000, 11.99999999999999645, 0.000000000000000000 ) ) ;
#304 = VERTEX_POINT ( 'NONE', #338 ) ;
#305 = AXIS2_PLACEMENT_3D ( 'NONE', #201, #489, #128 ) ;
#306 = EDGE_CURVE ( 'NONE', #464, #459, #428, .T. ) ;
#307 = CARTESIAN_POINT ( 'NONE',  ( -1.207396102371843204E-15, 11.99999999999999645, 8.649999999999993250 ) ) ;
#308 = ORIENTED_EDGE ( 'NONE', *, *, #347, .T. ) ;
#309 = AXIS2_PLACEMENT_3D ( 'NONE', #434, #317, #473 ) ;
#310 = ORIENTED_EDGE ( 'NONE', *, *, #179, .F. ) ;
#311 = CARTESIAN_POINT ( 'NONE',  ( 6.999999999999999112, 9.999999999999996447, 0.000000000000000000 ) ) ;
#312 = LINE ( 'NONE', #395, #227 ) ;
#313 = CARTESIAN_POINT ( 'NONE',  ( 2.168404344971008868E-16, 11.99999999999999645, -7.000000000000000888 ) ) ;
#314 = DIRECTION ( 'NONE',  ( -0.000000000000000000, -1.000000000000000000, -0.000000000000000000 ) ) ;
#315 = ADVANCED_FACE ( 'NONE', ( #69 ), #184, .F. ) ;
#316 = CIRCLE ( 'NONE', #68, 1.649999999999993472 ) ;
#317 = DIRECTION ( 'NONE',  ( 0.000000000000000000, 1.000000000000000000, 0.000000000000000000 ) ) ;
#318 = CARTESIAN_POINT ( 'NONE',  ( -1.409462824231155764E-15, 11.99999999999999645, 5.350000000000005862 ) ) ;
#319 = STYLED_ITEM ( 'NONE', ( #46 ), #62 ) ;
#320 = DIRECTION ( 'NONE',  ( 0.000000000000000000, 0.000000000000000000, 1.000000000000000000 ) ) ;
#321 = ORIENTED_EDGE ( 'NONE', *, *, #306, .T. ) ;
#322 = SURFACE_STYLE_USAGE ( .BOTH. , #286 ) ;
#323 = ORIENTED_EDGE ( 'NONE', *, *, #432, .T. ) ;
#324 = EDGE_CURVE ( 'NONE', #433, #58, #316, .T. ) ;
#325 =( NAMED_UNIT ( * ) PLANE_ANGLE_UNIT ( ) SI_UNIT ( $, .RADIAN. ) );
#326 = AXIS2_PLACEMENT_3D ( 'NONE', #131, #90, #251 ) ;
#327 = CARTESIAN_POINT ( 'NONE',  ( 0.000000000000000000, 11.99999999999999645, 0.000000000000000000 ) ) ;
#328 =( GEOMETRIC_REPRESENTATION_CONTEXT ( 3 ) GLOBAL_UNCERTAINTY_ASSIGNED_CONTEXT ( ( #253 ) ) GLOBAL_UNIT_ASSIGNED_CONTEXT ( ( #364, #12, #167 ) ) REPRESENTATION_CONTEXT ( 'NONE', 'WORKASPACE' ) );
#329 = FILL_AREA_STYLE_COLOUR ( '', #212 ) ;
#330 = DIRECTION ( 'NONE',  ( 0.000000000000000000, 1.000000000000000000, 0.000000000000000000 ) ) ;
#331 = DIRECTION ( 'NONE',  ( 0.000000000000000000, 1.000000000000000000, 0.000000000000000000 ) ) ;
#332 = ADVANCED_FACE ( 'NONE', ( #176 ), #174, .F. ) ;
#333 = LINE ( 'NONE', #366, #400 ) ;
#334 = AXIS2_PLACEMENT_3D ( 'NONE', #207, #47, #336 ) ;
#335 = ORIENTED_EDGE ( 'NONE', *, *, #442, .F. ) ;
#336 = DIRECTION ( 'NONE',  ( 0.000000000000000000, 0.000000000000000000, -1.000000000000000000 ) ) ;
#337 = EDGE_CURVE ( 'NONE', #499, #461, #357, .T. ) ;
#338 = CARTESIAN_POINT ( 'NONE',  ( 4.286263797015736595E-16, 9.999999999999996447, 3.500000000000000000 ) ) ;
#339 = ORIENTED_EDGE ( 'NONE', *, *, #337, .T. ) ;
#340 = CARTESIAN_POINT ( 'NONE',  ( 0.000000000000000000, 11.99999999999999645, 0.000000000000000000 ) ) ;
#341 = ORIENTED_EDGE ( 'NONE', *, *, #455, .T. ) ;
#342 = AXIS2_PLACEMENT_3D ( 'NONE', #327, #369, #16 ) ;
#343 = CARTESIAN_POINT ( 'NONE',  ( 2.168404344971008868E-16, 11.99999999999999645, -8.649999999999995026 ) ) ;
#344 = ORIENTED_EDGE ( 'NONE', *, *, #143, .T. ) ;
#345 = UNCERTAINTY_MEASURE_WITH_UNIT (LENGTH_MEASURE( 1.000000000000000082E-05 ), #503, 'distance_accuracy_value', 'NONE');
#346 = DIRECTION ( 'NONE',  ( 0.000000000000000000, 1.000000000000000000, 0.000000000000000000 ) ) ;
#347 = EDGE_CURVE ( 'NONE', #255, #354, #14, .T. ) ;
#348 = CARTESIAN_POINT ( 'NONE',  ( -6.999999999999999112, 11.99999999999999645, 0.000000000000000000 ) ) ;
#349 = EDGE_LOOP ( 'NONE', ( #308, #226, #134, #424 ) ) ;
#350 = AXIS2_PLACEMENT_3D ( 'NONE', #139, #264, #375 ) ;
#351 = CARTESIAN_POINT ( 'NONE',  ( 0.000000000000000000, 9.999999999999996447, 0.000000000000000000 ) ) ;
#352 = ORIENTED_EDGE ( 'NONE', *, *, #385, .F. ) ;
#353 = DIRECTION ( 'NONE',  ( 0.000000000000000000, 0.000000000000000000, 1.000000000000000000 ) ) ;
#354 = VERTEX_POINT ( 'NONE', #430 ) ;
#355 = ORIENTED_EDGE ( 'NONE', *, *, #173, .F. ) ;
#356 = CIRCLE ( 'NONE', #326, 3.500000000000000000 ) ;
#357 = LINE ( 'NONE', #78, #468 ) ;
#358 = ORIENTED_EDGE ( 'NONE', *, *, #492, .F. ) ;
#359 = CIRCLE ( 'NONE', #383, 1.649999999999993472 ) ;
#360 = EDGE_LOOP ( 'NONE', ( #335, #474 ) ) ;
#361 = ADVANCED_FACE ( 'NONE', ( #394, #150, #116, #274, #438, #231 ), #396, .F. ) ;
#362 = CARTESIAN_POINT ( 'NONE',  ( 2.168404344971008868E-16, 11.99999999999999645, -7.000000000000000888 ) ) ;
#363 = CYLINDRICAL_SURFACE ( 'NONE', #334, 1.649999999999993472 ) ;
#364 =( LENGTH_UNIT ( ) NAMED_UNIT ( * ) SI_UNIT ( .MILLI., .METRE. ) );
#365 = CIRCLE ( 'NONE', #118, 3.500000000000000000 ) ;
#366 = CARTESIAN_POINT ( 'NONE',  ( 0.000000000000000000, 11.99999999999999645, -9.849999999999999645 ) ) ;
#367 = EDGE_CURVE ( 'NONE', #386, #461, #162, .T. ) ;
#368 = DIRECTION ( 'NONE',  ( 0.000000000000000000, 0.000000000000000000, 1.000000000000000000 ) ) ;
#369 = DIRECTION ( 'NONE',  ( 0.000000000000000000, 1.000000000000000000, 0.000000000000000000 ) ) ;
#370 = DIRECTION ( 'NONE',  ( 0.000000000000000000, 1.000000000000000000, 0.000000000000000000 ) ) ;
#371 = CIRCLE ( 'NONE', #263, 1.649999999999993472 ) ;
#372 = ORIENTED_EDGE ( 'NONE', *, *, #373, .F. ) ;
#373 = EDGE_CURVE ( 'NONE', #58, #433, #110, .T. ) ;
#374 = AXIS2_PLACEMENT_3D ( 'NONE', #351, #187, #39 ) ;
#375 = DIRECTION ( 'NONE',  ( 0.000000000000000000, 0.000000000000000000, 1.000000000000000000 ) ) ;
#376 = EDGE_LOOP ( 'NONE', ( #142, #188 ) ) ;
#377 = DIRECTION ( 'NONE',  ( -0.000000000000000000, -1.000000000000000000, -0.000000000000000000 ) ) ;
#378 = EDGE_LOOP ( 'NONE', ( #177, #391 ) ) ;
#379 = APPLICATION_CONTEXT ( 'automotive_design' ) ;
#380 =( NAMED_UNIT ( * ) PLANE_ANGLE_UNIT ( ) SI_UNIT ( $, .RADIAN. ) );
#381 = ORIENTED_EDGE ( 'NONE', *, *, #373, .T. ) ;
#382 = AXIS2_PLACEMENT_3D ( 'NONE', #103, #463, #107 ) ;
#383 = AXIS2_PLACEMENT_3D ( 'NONE', #478, #119, #80 ) ;
#384 = FILL_AREA_STYLE ('',( #447 ) ) ;
#385 = EDGE_CURVE ( 'NONE', #480, #459, #500, .T. ) ;
#386 = VERTEX_POINT ( 'NONE', #153 ) ;
#387 = DIRECTION ( 'NONE',  ( -0.000000000000000000, -1.000000000000000000, -0.000000000000000000 ) ) ;
#388 = EDGE_LOOP ( 'NONE', ( #358, #111, #339, #437 ) ) ;
#389 = PRODUCT ( 'SO102.02.030 Base washer', 'SO102.02.030 Base washer', '', ( #451 ) ) ;
#390 = CARTESIAN_POINT ( 'NONE',  ( 6.999999999999999112, 9.999999999999996447, -1.649999999999993472 ) ) ;
#391 = ORIENTED_EDGE ( 'NONE', *, *, #163, .T. ) ;
#392 = AXIS2_PLACEMENT_3D ( 'NONE', #418, #457, #24 ) ;
#393 = ADVANCED_FACE ( 'NONE', ( #146 ), #481, .F. ) ;
#394 = FACE_OUTER_BOUND ( 'NONE', #122, .T. ) ;
#395 = CARTESIAN_POINT ( 'NONE',  ( 4.286263797015736595E-16, 11.99999999999999645, 3.500000000000000000 ) ) ;
#396 = PLANE ( 'NONE',  #374 ) ;
#397 = ORIENTED_EDGE ( 'NONE', *, *, #385, .T. ) ;
#398 = DIRECTION ( 'NONE',  ( 0.000000000000000000, 0.000000000000000000, -1.000000000000000000 ) ) ;
#399 = FACE_OUTER_BOUND ( 'NONE', #439, .T. ) ;
#400 = VECTOR ( 'NONE', #87, 1000.000000000000000 ) ;
#401 = DIRECTION ( 'NONE',  ( 0.000000000000000000, 1.000000000000000000, 0.000000000000000000 ) ) ;
#402 = DIRECTION ( 'NONE',  ( 0.000000000000000000, 1.000000000000000000, 0.000000000000000000 ) ) ;
#403 = EDGE_CURVE ( 'NONE', #67, #140, #300, .T. ) ;
#404 = AXIS2_PLACEMENT_3D ( 'NONE', #348, #74, #398 ) ;
#405 = FACE_OUTER_BOUND ( 'NONE', #388, .T. ) ;
#406 = CARTESIAN_POINT ( 'NONE',  ( 6.999999999999999112, 11.99999999999999645, 1.649999999999993472 ) ) ;
#407 = LINE ( 'NONE', #160, #50 ) ;
#408 = EDGE_CURVE ( 'NONE', #109, #113, #359, .T. ) ;
#409 = CIRCLE ( 'NONE', #108, 1.649999999999993472 ) ;
#410 = SURFACE_STYLE_FILL_AREA ( #206 ) ;
#411 = AXIS2_PLACEMENT_3D ( 'NONE', #11, #19, #168 ) ;
#412 = LINE ( 'NONE', #241, #43 ) ;
#413 = CIRCLE ( 'NONE', #247, 1.649999999999993472 ) ;
#414 = SHAPE_DEFINITION_REPRESENTATION ( #148, #62 ) ;
#415 = DIRECTION ( 'NONE',  ( 0.000000000000000000, 0.000000000000000000, 1.000000000000000000 ) ) ;
#416 = DIRECTION ( 'NONE',  ( 0.000000000000000000, 0.000000000000000000, -1.000000000000000000 ) ) ;
#417 = ORIENTED_EDGE ( 'NONE', *, *, #210, .T. ) ;
#418 = CARTESIAN_POINT ( 'NONE',  ( -6.999999999999999112, 11.99999999999999645, 0.000000000000000000 ) ) ;
#419 = AXIS2_PLACEMENT_3D ( 'NONE', #232, #314, #476 ) ;
#420 = ORIENTED_EDGE ( 'NONE', *, *, #408, .F. ) ;
#421 = CARTESIAN_POINT ( 'NONE',  ( 1.206277097160142826E-15, 11.99999999999999645, 9.849999999999999645 ) ) ;
#422 = ORIENTED_EDGE ( 'NONE', *, *, #347, .F. ) ;
#423 = CARTESIAN_POINT ( 'NONE',  ( 2.168404344971008868E-16, 11.99999999999999645, -7.000000000000000888 ) ) ;
#424 = ORIENTED_EDGE ( 'NONE', *, *, #98, .F. ) ;
#425 = EDGE_CURVE ( 'NONE', #354, #58, #235, .T. ) ;
#426 = ORIENTED_EDGE ( 'NONE', *, *, #242, .F. ) ;
#427 = VERTEX_POINT ( 'NONE', #121 ) ;
#428 = LINE ( 'NONE', #421, #126 ) ;
#429 = ORIENTED_EDGE ( 'NONE', *, *, #403, .T. ) ;
#430 = CARTESIAN_POINT ( 'NONE',  ( 4.189071563564133981E-16, 11.99999999999999645, -5.350000000000007638 ) ) ;
#431 = EDGE_LOOP ( 'NONE', ( #32, #508, #35, #372 ) ) ;
#432 = EDGE_CURVE ( 'NONE', #459, #480, #127, .T. ) ;
#433 = VERTEX_POINT ( 'NONE', #114 ) ;
#434 = CARTESIAN_POINT ( 'NONE',  ( -6.999999999999999112, 11.99999999999999645, 0.000000000000000000 ) ) ;
#435 = DIRECTION ( 'NONE',  ( -0.000000000000000000, -1.000000000000000000, -0.000000000000000000 ) ) ;
#436 = PRESENTATION_LAYER_ASSIGNMENT (  '', '', ( #56 ) ) ;
#437 = ORIENTED_EDGE ( 'NONE', *, *, #367, .F. ) ;
#438 = FACE_BOUND ( 'NONE', #378, .T. ) ;
#439 = EDGE_LOOP ( 'NONE', ( #27, #180 ) ) ;
#440 = DIRECTION ( 'NONE',  ( 0.000000000000000000, 1.000000000000000000, 0.000000000000000000 ) ) ;
#441 = DIRECTION ( 'NONE',  ( 0.000000000000000000, 1.000000000000000000, 0.000000000000000000 ) ) ;
#442 = EDGE_CURVE ( 'NONE', #427, #152, #413, .T. ) ;
#443 = CARTESIAN_POINT ( 'NONE',  ( -1.409462824231155764E-15, 11.99999999999999645, 6.999999999999999112 ) ) ;
#444 = ORIENTED_EDGE ( 'NONE', *, *, #242, .T. ) ;
#445 = CIRCLE ( 'NONE', #342, 9.849999999999999645 ) ;
#446 = DIRECTION ( 'NONE',  ( 0.000000000000000000, 0.000000000000000000, -1.000000000000000000 ) ) ;
#447 = FILL_AREA_STYLE_COLOUR ( '', #66 ) ;
#448 = CARTESIAN_POINT ( 'NONE',  ( 0.000000000000000000, 0.000000000000000000, 0.000000000000000000 ) ) ;
#449 = LINE ( 'NONE', #91, #290 ) ;
#450 = CARTESIAN_POINT ( 'NONE',  ( 4.286263797015736595E-16, 11.99999999999999645, 3.500000000000000000 ) ) ;
#451 = PRODUCT_CONTEXT ( 'NONE', #3, 'mechanical' ) ;
#452 = AXIS2_PLACEMENT_3D ( 'NONE', #490, #331, #415 ) ;
#453 = CYLINDRICAL_SURFACE ( 'NONE', #219, 1.649999999999993472 ) ;
#454 = FACE_OUTER_BOUND ( 'NONE', #270, .T. ) ;
#455 = EDGE_CURVE ( 'NONE', #499, #472, #181, .T. ) ;
#456 = CYLINDRICAL_SURFACE ( 'NONE', #273, 1.649999999999993472 ) ;
#457 = DIRECTION ( 'NONE',  ( -0.000000000000000000, -1.000000000000000000, -0.000000000000000000 ) ) ;
#458 = AXIS2_PLACEMENT_3D ( 'NONE', #501, #141, #257 ) ;
#459 = VERTEX_POINT ( 'NONE', #44 ) ;
#460 = VECTOR ( 'NONE', #41, 1000.000000000000000 ) ;
#461 = VERTEX_POINT ( 'NONE', #390 ) ;
#462 = EDGE_CURVE ( 'NONE', #152, #113, #504, .T. ) ;
#463 = DIRECTION ( 'NONE',  ( 0.000000000000000000, 1.000000000000000000, 0.000000000000000000 ) ) ;
#464 = VERTEX_POINT ( 'NONE', #34 ) ;
#465 = FACE_OUTER_BOUND ( 'NONE', #209, .T. ) ;
#466 = ORIENTED_EDGE ( 'NONE', *, *, #442, .T. ) ;
#467 = CIRCLE ( 'NONE', #506, 3.500000000000000000 ) ;
#468 = VECTOR ( 'NONE', #7, 1000.000000000000000 ) ;
#469 = ORIENTED_EDGE ( 'NONE', *, *, #408, .T. ) ;
#470 = ADVANCED_FACE ( 'NONE', ( #36 ), #191, .F. ) ;
#471 = CARTESIAN_POINT ( 'NONE',  ( 0.000000000000000000, 9.999999999999996447, 0.000000000000000000 ) ) ;
#472 = VERTEX_POINT ( 'NONE', #124 ) ;
#473 = DIRECTION ( 'NONE',  ( 0.000000000000000000, 0.000000000000000000, 1.000000000000000000 ) ) ;
#474 = ORIENTED_EDGE ( 'NONE', *, *, #297, .F. ) ;
#475 = DIRECTION ( 'NONE',  ( 0.000000000000000000, 1.000000000000000000, 0.000000000000000000 ) ) ;
#476 = DIRECTION ( 'NONE',  ( 0.000000000000000000, 0.000000000000000000, -1.000000000000000000 ) ) ;
#477 = CIRCLE ( 'NONE', #305, 1.649999999999993472 ) ;
#478 = CARTESIAN_POINT ( 'NONE',  ( -1.409462824231155764E-15, 9.999999999999996447, 6.999999999999999112 ) ) ;
#479 = AXIS2_PLACEMENT_3D ( 'NONE', #362, #161, #446 ) ;
#480 = VERTEX_POINT ( 'NONE', #158 ) ;
#481 = CYLINDRICAL_SURFACE ( 'NONE', #404, 1.649999999999993472 ) ;
#482 = VERTEX_POINT ( 'NONE', #203 ) ;
#483 = CARTESIAN_POINT ( 'NONE',  ( 6.999999999999999112, 11.99999999999999645, -1.649999999999993472 ) ) ;
#484 = FACE_BOUND ( 'NONE', #360, .T. ) ;
#485 = CIRCLE ( 'NONE', #452, 1.649999999999993472 ) ;
#486 = DIRECTION ( 'NONE',  ( -0.000000000000000000, -1.000000000000000000, -0.000000000000000000 ) ) ;
#487 = VECTOR ( 'NONE', #85, 1000.000000000000000 ) ;
#488 = CARTESIAN_POINT ( 'NONE',  ( -6.999999999999999112, 11.99999999999999645, -1.649999999999993472 ) ) ;
#489 = DIRECTION ( 'NONE',  ( 0.000000000000000000, 1.000000000000000000, 0.000000000000000000 ) ) ;
#490 = CARTESIAN_POINT ( 'NONE',  ( -1.409462824231155764E-15, 9.999999999999996447, 6.999999999999999112 ) ) ;
#491 = EDGE_LOOP ( 'NONE', ( #120, #494 ) ) ;
#492 = EDGE_CURVE ( 'NONE', #472, #386, #48, .T. ) ;
#493 = DIRECTION ( 'NONE',  ( 0.000000000000000000, 0.000000000000000000, -1.000000000000000000 ) ) ;
#494 = ORIENTED_EDGE ( 'NONE', *, *, #17, .T. ) ;
#495 = PRESENTATION_STYLE_ASSIGNMENT (( #60 ) ) ;
#496 = ORIENTED_EDGE ( 'NONE', *, *, #6, .T. ) ;
#497 = CYLINDRICAL_SURFACE ( 'NONE', #498, 3.500000000000000000 ) ;
#498 = AXIS2_PLACEMENT_3D ( 'NONE', #303, #217, #223 ) ;
#499 = VERTEX_POINT ( 'NONE', #483 ) ;
#500 = CIRCLE ( 'NONE', #292, 9.849999999999999645 ) ;
#501 = CARTESIAN_POINT ( 'NONE',  ( 0.000000000000000000, 11.99999999999999645, 0.000000000000000000 ) ) ;
#502 = ORIENTED_EDGE ( 'NONE', *, *, #6, .F. ) ;
#503 =( LENGTH_UNIT ( ) NAMED_UNIT ( * ) SI_UNIT ( .MILLI., .METRE. ) );
#504 = LINE ( 'NONE', #307, #189 ) ;
#505 = ORIENTED_EDGE ( 'NONE', *, *, #455, .F. ) ;
#506 = AXIS2_PLACEMENT_3D ( 'NONE', #55, #129, #166 ) ;
#507 = PRODUCT_RELATED_PRODUCT_CATEGORY ( 'part', '', ( #389 ) ) ;
#508 = ORIENTED_EDGE ( 'NONE', *, *, #250, .T. ) ;
#509 = DIRECTION ( 'NONE',  ( 0.000000000000000000, 0.000000000000000000, 1.000000000000000000 ) ) ;
#510 = DIRECTION ( 'NONE',  ( 0.000000000000000000, -0.000000000000000000, 1.000000000000000000 ) ) ;
ENDSEC;
END-ISO-10303-21;
