ISO-10303-21;
HEADER;
FILE_DESCRIPTION (( 'STEP AP214' ),
    '1' );
FILE_NAME ('RB9.01.062.100 Nail.STEP',
    '2026-09-18T15:10:31',
    ( '' ),
    ( '' ),
    'SwSTEP 2.0',
    'SolidWorks 2021',
    '' );
FILE_SCHEMA (( 'AUTOMOTIVE_DESIGN' ));
ENDSEC;

DATA;
#1 = LINE ( 'NONE', #92, #58 ) ;
#2 = DIRECTION ( 'NONE',  ( 0.7071067811865475727, -0.7071067811865475727, 0.000000000000000000 ) ) ;
#3 = VECTOR ( 'NONE', #324, 1000.000000000000114 ) ;
#4 = PRESENTATION_LAYER_ASSIGNMENT (  '', '', ( #415 ) ) ;
#5 = SURFACE_STYLE_USAGE ( .BOTH. , #145 ) ;
#6 = DIRECTION ( 'NONE',  ( 1.000000000000000000, 0.000000000000000000, 0.000000000000000000 ) ) ;
#7 = DIRECTION ( 'NONE',  ( 1.000000000000000000, 0.000000000000000000, 0.000000000000000000 ) ) ;
#8 = CARTESIAN_POINT ( 'NONE',  ( 1.650000000000000133, 1.999999999999999556, 0.000000000000000000 ) ) ;
#9 = CARTESIAN_POINT ( 'NONE',  ( -1.349999999999999423, -2.000000000000000444, 9.000000000000000000 ) ) ;
#10 = EDGE_CURVE ( 'NONE', #215, #41, #222, .T. ) ;
#11 = FACE_OUTER_BOUND ( 'NONE', #523, .T. ) ;
#12 = AXIS2_PLACEMENT_3D ( 'NONE', #52, #387, #149 ) ;
#13 = DIRECTION ( 'NONE',  ( 0.000000000000000000, -0.000000000000000000, 1.000000000000000000 ) ) ;
#14 = AXIS2_PLACEMENT_3D ( 'NONE', #225, #452, #170 ) ;
#15 = FACE_OUTER_BOUND ( 'NONE', #75, .T. ) ;
#16 = FACE_OUTER_BOUND ( 'NONE', #450, .T. ) ;
#17 = CARTESIAN_POINT ( 'NONE',  ( -1.349999999999999867, 1.699999999999999734, 9.000000000000000000 ) ) ;
#18 = ORIENTED_EDGE ( 'NONE', *, *, #412, .T. ) ;
#19 = FACE_OUTER_BOUND ( 'NONE', #77, .T. ) ;
#20 = CARTESIAN_POINT ( 'NONE',  ( 2.549999999999999822, 0.4411542731880160884, 4.500000000000000000 ) ) ;
#21 = VECTOR ( 'NONE', #414, 1000.000000000000000 ) ;
#22 = AXIS2_PLACEMENT_3D ( 'NONE', #399, #316, #164 ) ;
#23 = EDGE_LOOP ( 'NONE', ( #417, #600, #531 ) ) ;
#24 = PRODUCT_CONTEXT ( 'NONE', #530, 'mechanical' ) ;
#25 = CARTESIAN_POINT ( 'NONE',  ( -1.349999999999999423, -1.700000000000000622, 9.000000000000000000 ) ) ;
#26 = ORIENTED_EDGE ( 'NONE', *, *, #39, .T. ) ;
#27 = ORIENTED_EDGE ( 'NONE', *, *, #91, .F. ) ;
#28 = CARTESIAN_POINT ( 'NONE',  ( 2.550000000000000266, -0.4411542731880159773, 0.000000000000000000 ) ) ;
#29 = ORIENTED_EDGE ( 'NONE', *, *, #87, .T. ) ;
#30 = ORIENTED_EDGE ( 'NONE', *, *, #553, .F. ) ;
#31 = EDGE_CURVE ( 'NONE', #34, #215, #607, .T. ) ;
#32 = LINE ( 'NONE', #25, #98 ) ;
#33 = ORIENTED_EDGE ( 'NONE', *, *, #420, .F. ) ;
#34 = VERTEX_POINT ( 'NONE', #453 ) ;
#35 = LINE ( 'NONE', #513, #594 ) ;
#36 = ORIENTED_EDGE ( 'NONE', *, *, #268, .F. ) ;
#37 = ORIENTED_EDGE ( 'NONE', *, *, #571, .F. ) ;
#38 = LINE ( 'NONE', #346, #455 ) ;
#39 = EDGE_CURVE ( 'NONE', #610, #334, #366, .T. ) ;
#40 = DIRECTION ( 'NONE',  ( -0.5773502691896258421, -0.5773502691896258421, 0.5773502691896258421 ) ) ;
#41 = VERTEX_POINT ( 'NONE', #410 ) ;
#42 = DIRECTION ( 'NONE',  ( 1.084202172485504434E-16, -1.000000000000000000, -0.000000000000000000 ) ) ;
#43 = FILL_AREA_STYLE_COLOUR ( '', #353 ) ;
#44 = EDGE_CURVE ( 'NONE', #123, #270, #551, .T. ) ;
#45 = ORIENTED_EDGE ( 'NONE', *, *, #549, .F. ) ;
#46 = AXIS2_PLACEMENT_3D ( 'NONE', #187, #40, #55 ) ;
#47 = VECTOR ( 'NONE', #363, 1000.000000000000114 ) ;
#48 = FACE_OUTER_BOUND ( 'NONE', #555, .T. ) ;
#49 = PLANE ( 'NONE',  #504 ) ;
#50 = EDGE_LOOP ( 'NONE', ( #297, #140, #271, #183 ) ) ;
#51 = DIRECTION ( 'NONE',  ( 0.000000000000000000, 0.7071067811865474617, -0.7071067811865474617 ) ) ;
#52 = CARTESIAN_POINT ( 'NONE',  ( -1.649999999999999689, 1.699999999999999734, 8.699999999999999289 ) ) ;
#53 = EDGE_CURVE ( 'NONE', #464, #174, #508, .T. ) ;
#54 = DIRECTION ( 'NONE',  ( -1.000000000000000000, 0.000000000000000000, -0.000000000000000000 ) ) ;
#55 = DIRECTION ( 'NONE',  ( 0.7071067811865475727, 0.000000000000000000, 0.7071067811865475727 ) ) ;
#56 = APPLICATION_PROTOCOL_DEFINITION ( 'draft international standard', 'automotive_design', 1998, #530 ) ;
#57 = AXIS2_PLACEMENT_3D ( 'NONE', #390, #576, #253 ) ;
#58 = VECTOR ( 'NONE', #472, 1000.000000000000000 ) ;
#59 = CARTESIAN_POINT ( 'NONE',  ( -1.349999999999999645, -1.463672932855430493E-16, 9.000000000000000000 ) ) ;
#60 =( NAMED_UNIT ( * ) SI_UNIT ( $, .STERADIAN. ) SOLID_ANGLE_UNIT ( ) );
#61 = CARTESIAN_POINT ( 'NONE',  ( 1.650000000000000133, 1.999999999999999556, 0.000000000000000000 ) ) ;
#62 = ADVANCED_FACE ( 'NONE', ( #96 ), #142, .T. ) ;
#63 = CARTESIAN_POINT ( 'NONE',  ( -1.649999999999999689, 1.699999999999999734, 9.000000000000000000 ) ) ;
#64 = FACE_OUTER_BOUND ( 'NONE', #72, .T. ) ;
#65 = CARTESIAN_POINT ( 'NONE',  ( 1.650000000000000355, 2.500000000000000000, -1.756407519426517183E-14 ) ) ;
#66 = DIRECTION ( 'NONE',  ( 0.5000000000000011102, 0.8660254037844379305, -0.000000000000000000 ) ) ;
#67 = CARTESIAN_POINT ( 'NONE',  ( -1.349999999999999867, 1.999999999999999556, 0.4999999999999882871 ) ) ;
#68 = CARTESIAN_POINT ( 'NONE',  ( -1.649999999999999689, 1.999999999999999556, 9.000000000000000000 ) ) ;
#69 = EDGE_LOOP ( 'NONE', ( #218, #454, #171, #90 ) ) ;
#70 = DIRECTION ( 'NONE',  ( 0.000000000000000000, -1.000000000000000000, 0.000000000000000000 ) ) ;
#71 = VECTOR ( 'NONE', #537, 1000.000000000000000 ) ;
#72 = EDGE_LOOP ( 'NONE', ( #380, #85, #229, #563, #482 ) ) ;
#73 = AXIS2_PLACEMENT_3D ( 'NONE', #59, #207, #358 ) ;
#74 = VECTOR ( 'NONE', #586, 1000.000000000000000 ) ;
#75 = EDGE_LOOP ( 'NONE', ( #136, #609, #382 ) ) ;
#76 = DIRECTION ( 'NONE',  ( 0.000000000000000000, 0.7071067811865474617, 0.7071067811865474617 ) ) ;
#77 = EDGE_LOOP ( 'NONE', ( #319, #322, #422, #29, #287 ) ) ;
#78 = ADVANCED_FACE ( 'NONE', ( #612 ), #424, .T. ) ;
#79 = ORIENTED_EDGE ( 'NONE', *, *, #10, .T. ) ;
#80 = DIRECTION ( 'NONE',  ( 0.000000000000000000, 0.000000000000000000, 1.000000000000000000 ) ) ;
#81 = EDGE_LOOP ( 'NONE', ( #377, #471, #30, #243, #433 ) ) ;
#82 = CARTESIAN_POINT ( 'NONE',  ( 1.650000000000000133, 1.999999999999999556, 0.000000000000000000 ) ) ;
#83 = ORIENTED_EDGE ( 'NONE', *, *, #310, .T. ) ;
#84 = VECTOR ( 'NONE', #199, 999.9999999999998863 ) ;
#85 = ORIENTED_EDGE ( 'NONE', *, *, #525, .T. ) ;
#86 = AXIS2_PLACEMENT_3D ( 'NONE', #527, #483, #144 ) ;
#87 = EDGE_CURVE ( 'NONE', #188, #326, #290, .T. ) ;
#88 = LINE ( 'NONE', #437, #556 ) ;
#89 = CARTESIAN_POINT ( 'NONE',  ( 0.000000000000000000, 0.000000000000000000, 4.500000000000000000 ) ) ;
#90 = ORIENTED_EDGE ( 'NONE', *, *, #525, .F. ) ;
#91 = EDGE_CURVE ( 'NONE', #291, #188, #153, .T. ) ;
#92 = CARTESIAN_POINT ( 'NONE',  ( 1.650000000000000133, 1.999999999999999556, 9.000000000000000000 ) ) ;
#93 = DIRECTION ( 'NONE',  ( -1.084202172485504434E-16, 1.000000000000000000, 0.000000000000000000 ) ) ;
#94 = ORIENTED_EDGE ( 'NONE', *, *, #605, .T. ) ;
#95 = CARTESIAN_POINT ( 'NONE',  ( 1.350000000000000755, -1.700000000000000622, 9.000000000000000000 ) ) ;
#96 = FACE_OUTER_BOUND ( 'NONE', #421, .T. ) ;
#97 = ORIENTED_EDGE ( 'NONE', *, *, #263, .T. ) ;
#98 = VECTOR ( 'NONE', #76, 1000.000000000000114 ) ;
#99 = DIRECTION ( 'NONE',  ( -0.000000000000000000, -0.000000000000000000, -1.000000000000000000 ) ) ;
#100 = PLANE ( 'NONE',  #333 ) ;
#101 = EDGE_CURVE ( 'NONE', #334, #326, #529, .T. ) ;
#102 = LINE ( 'NONE', #341, #296 ) ;
#103 =( NAMED_UNIT ( * ) PLANE_ANGLE_UNIT ( ) SI_UNIT ( $, .RADIAN. ) );
#104 = CARTESIAN_POINT ( 'NONE',  ( 1.650000000000000133, 1.999999999999999556, 0.4999999999999880651 ) ) ;
#105 = ADVANCED_FACE ( 'NONE', ( #339 ), #100, .F. ) ;
#106 = VECTOR ( 'NONE', #620, 1000.000000000000000 ) ;
#107 = CARTESIAN_POINT ( 'NONE',  ( 1.649999999999999689, -2.500000000000000000, 0.000000000000000000 ) ) ;
#108 = PRODUCT_DEFINITION_FORMATION_WITH_SPECIFIED_SOURCE ( 'ANY', '', #247, .NOT_KNOWN. ) ;
#109 = PLANE ( 'NONE',  #439 ) ;
#110 = DIRECTION ( 'NONE',  ( 1.000000000000000000, -0.000000000000000000, -0.000000000000000000 ) ) ;
#111 = LINE ( 'NONE', #158, #585 ) ;
#112 =( NAMED_UNIT ( * ) PLANE_ANGLE_UNIT ( ) SI_UNIT ( $, .RADIAN. ) );
#113 = PRODUCT_DEFINITION_SHAPE ( 'NONE', 'NONE',  #320 ) ;
#114 = DIRECTION ( 'NONE',  ( -0.7071067811865474617, -0.000000000000000000, -0.7071067811865474617 ) ) ;
#115 = VECTOR ( 'NONE', #118, 1000.000000000000000 ) ;
#116 = ADVANCED_FACE ( 'NONE', ( #302 ), #484, .F. ) ;
#117 = UNCERTAINTY_MEASURE_WITH_UNIT (LENGTH_MEASURE( 1.000000000000000082E-05 ), #248, 'distance_accuracy_value', 'NONE');
#118 = DIRECTION ( 'NONE',  ( 0.000000000000000000, 0.000000000000000000, 1.000000000000000000 ) ) ;
#119 = MANIFOLD_SOLID_BREP ( 'Фаска2', #467 ) ;
#120 = ORIENTED_EDGE ( 'NONE', *, *, #184, .T. ) ;
#121 = SHAPE_DEFINITION_REPRESENTATION ( #113, #343 ) ;
#122 = LINE ( 'NONE', #321, #128 ) ;
#123 = VERTEX_POINT ( 'NONE', #533 ) ;
#124 = ORIENTED_EDGE ( 'NONE', *, *, #549, .T. ) ;
#125 = EDGE_CURVE ( 'NONE', #237, #34, #394, .T. ) ;
#126 = CARTESIAN_POINT ( 'NONE',  ( -1.649999999999999689, 1.699999999999999734, 8.699999999999999289 ) ) ;
#127 = ORIENTED_EDGE ( 'NONE', *, *, #10, .F. ) ;
#128 = VECTOR ( 'NONE', #502, 1000.000000000000114 ) ;
#129 = ORIENTED_EDGE ( 'NONE', *, *, #317, .F. ) ;
#130 = FACE_OUTER_BOUND ( 'NONE', #180, .T. ) ;
#131 = DIRECTION ( 'NONE',  ( -0.000000000000000000, -0.000000000000000000, -1.000000000000000000 ) ) ;
#132 = DIRECTION ( 'NONE',  ( 0.000000000000000000, 0.000000000000000000, 1.000000000000000000 ) ) ;
#133 = DIRECTION ( 'NONE',  ( 1.084202172485504434E-16, -1.000000000000000000, 0.000000000000000000 ) ) ;
#134 = ORIENTED_EDGE ( 'NONE', *, *, #496, .T. ) ;
#135 = EDGE_CURVE ( 'NONE', #369, #408, #618, .T. ) ;
#136 = ORIENTED_EDGE ( 'NONE', *, *, #310, .F. ) ;
#137 = LINE ( 'NONE', #295, #490 ) ;
#138 = VERTEX_POINT ( 'NONE', #480 ) ;
#139 = AXIS2_PLACEMENT_3D ( 'NONE', #213, #160, #257 ) ;
#140 = ORIENTED_EDGE ( 'NONE', *, *, #232, .F. ) ;
#141 = AXIS2_PLACEMENT_3D ( 'NONE', #195, #191, #423 ) ;
#142 = PLANE ( 'NONE',  #12 ) ;
#143 = ORIENTED_EDGE ( 'NONE', *, *, #31, .F. ) ;
#144 = DIRECTION ( 'NONE',  ( 1.084202172485504434E-16, -1.000000000000000000, 0.000000000000000000 ) ) ;
#145 = SURFACE_SIDE_STYLE ('',( #395 ) ) ;
#146 = ORIENTED_EDGE ( 'NONE', *, *, #458, .T. ) ;
#147 = CARTESIAN_POINT ( 'NONE',  ( 1.650000000000000355, 2.500000000000000000, 0.000000000000000000 ) ) ;
#148 = ADVANCED_FACE ( 'NONE', ( #155 ), #49, .T. ) ;
#149 = DIRECTION ( 'NONE',  ( 0.7071067811865475727, 0.000000000000000000, 0.7071067811865475727 ) ) ;
#150 = ORIENTED_EDGE ( 'NONE', *, *, #370, .T. ) ;
#151 = AXIS2_PLACEMENT_3D ( 'NONE', #493, #265, #535 ) ;
#152 = DIRECTION ( 'NONE',  ( -1.084202172485504434E-16, 1.000000000000000000, 0.000000000000000000 ) ) ;
#153 = LINE ( 'NONE', #250, #593 ) ;
#154 = LINE ( 'NONE', #65, #189 ) ;
#155 = FACE_OUTER_BOUND ( 'NONE', #223, .T. ) ;
#156 = ADVANCED_FACE ( 'NONE', ( #621 ), #196, .T. ) ;
#157 = DIRECTION ( 'NONE',  ( 1.084202172485504434E-16, -1.000000000000000000, 0.000000000000000000 ) ) ;
#158 = CARTESIAN_POINT ( 'NONE',  ( -4.183333333333346893, 0.8333333333333469151, 3.333333333333364124 ) ) ;
#159 = AXIS2_PLACEMENT_3D ( 'NONE', #68, #70, #558 ) ;
#160 = DIRECTION ( 'NONE',  ( 0.8660254037844380415, 0.5000000000000012212, -0.000000000000000000 ) ) ;
#161 = DIRECTION ( 'NONE',  ( 0.000000000000000000, 0.000000000000000000, -1.000000000000000000 ) ) ;
#162 = LINE ( 'NONE', #403, #567 ) ;
#163 = PRESENTATION_STYLE_ASSIGNMENT (( #259 ) ) ;
#164 = DIRECTION ( 'NONE',  ( 1.000000000000000000, 0.000000000000000000, 0.000000000000000000 ) ) ;
#165 = ADVANCED_FACE ( 'NONE', ( #492 ), #542, .T. ) ;
#166 =( GEOMETRIC_REPRESENTATION_CONTEXT ( 3 ) GLOBAL_UNCERTAINTY_ASSIGNED_CONTEXT ( ( #117 ) ) GLOBAL_UNIT_ASSIGNED_CONTEXT ( ( #248, #103, #203 ) ) REPRESENTATION_CONTEXT ( 'NONE', 'WORKASPACE' ) );
#167 = DIRECTION ( 'NONE',  ( -0.000000000000000000, 0.000000000000000000, 1.000000000000000000 ) ) ;
#168 = COLOUR_RGB ( '',0.5019607843137254832, 0.5019607843137254832, 0.5019607843137254832 ) ;
#169 = ORIENTED_EDGE ( 'NONE', *, *, #211, .T. ) ;
#170 = DIRECTION ( 'NONE',  ( -4.915297157388872314E-16, 1.000000000000000000, 0.000000000000000000 ) ) ;
#171 = ORIENTED_EDGE ( 'NONE', *, *, #300, .F. ) ;
#172 = EDGE_CURVE ( 'NONE', #411, #331, #447, .T. ) ;
#173 = LINE ( 'NONE', #499, #401 ) ;
#174 = VERTEX_POINT ( 'NONE', #495 ) ;
#175 = CARTESIAN_POINT ( 'NONE',  ( -1.349999999999999867, 1.999999999999999556, 9.000000000000000000 ) ) ;
#176 = ORIENTED_EDGE ( 'NONE', *, *, #194, .T. ) ;
#177 = VECTOR ( 'NONE', #42, 1000.000000000000000 ) ;
#178 = LINE ( 'NONE', #376, #517 ) ;
#179 = ADVANCED_FACE ( 'NONE', ( #16 ), #440, .T. ) ;
#180 = EDGE_LOOP ( 'NONE', ( #234, #462, #150, #574 ) ) ;
#181 = ORIENTED_EDGE ( 'NONE', *, *, #268, .T. ) ;
#182 = PLANE ( 'NONE',  #446 ) ;
#183 = ORIENTED_EDGE ( 'NONE', *, *, #613, .F. ) ;
#184 = EDGE_CURVE ( 'NONE', #526, #193, #546, .T. ) ;
#185 = EDGE_LOOP ( 'NONE', ( #577, #552, #246, #342 ) ) ;
#186 = CARTESIAN_POINT ( 'NONE',  ( 0.000000000000000000, -1.700000000000000622, 9.000000000000000000 ) ) ;
#187 = CARTESIAN_POINT ( 'NONE',  ( -1.349999999999999423, -1.700000000000000622, 9.000000000000000000 ) ) ;
#188 = VERTEX_POINT ( 'NONE', #255 ) ;
#189 = VECTOR ( 'NONE', #444, 1000.000000000000000 ) ;
#190 = AXIS2_PLACEMENT_3D ( 'NONE', #224, #132, #374 ) ;
#191 = DIRECTION ( 'NONE',  ( 0.000000000000000000, 0.7071067811865512365, 0.7071067811865439090 ) ) ;
#192 = CARTESIAN_POINT ( 'NONE',  ( -1.499999999999999334, -1.850000000000000533, 8.699999999999999289 ) ) ;
#193 = VERTEX_POINT ( 'NONE', #442 ) ;
#194 = EDGE_CURVE ( 'NONE', #237, #418, #111, .T. ) ;
#195 = CARTESIAN_POINT ( 'NONE',  ( 1.650000000000000355, 2.500000000000000000, -1.756407519426517183E-14 ) ) ;
#196 = PLANE ( 'NONE',  #57 ) ;
#197 = ORIENTED_EDGE ( 'NONE', *, *, #393, .T. ) ;
#198 = PLANE ( 'NONE',  #141 ) ;
#199 = DIRECTION ( 'NONE',  ( -0.5000000000000012212, 0.8660254037844380415, -0.000000000000000000 ) ) ;
#200 = VECTOR ( 'NONE', #226, 1000.000000000000000 ) ;
#201 = VECTOR ( 'NONE', #602, 1000.000000000000114 ) ;
#202 = DIRECTION ( 'NONE',  ( -0.7071067811865474617, -0.7071067811865474617, -0.000000000000000000 ) ) ;
#203 =( NAMED_UNIT ( * ) SI_UNIT ( $, .STERADIAN. ) SOLID_ANGLE_UNIT ( ) );
#204 = EDGE_CURVE ( 'NONE', #336, #123, #312, .T. ) ;
#205 = SURFACE_SIDE_STYLE ('',( #256 ) ) ;
#206 = CARTESIAN_POINT ( 'NONE',  ( -1.649999999999999689, 1.999999999999999556, 0.000000000000000000 ) ) ;
#207 = DIRECTION ( 'NONE',  ( -0.7071067811865475727, -7.666467083416870691E-17, 0.7071067811865475727 ) ) ;
#208 = CARTESIAN_POINT ( 'NONE',  ( -1.649999999999999689, 1.699999999999999734, 8.699999999999999289 ) ) ;
#209 = VECTOR ( 'NONE', #152, 1000.000000000000000 ) ;
#210 = CARTESIAN_POINT ( 'NONE',  ( 0.000000000000000000, 0.000000000000000000, 9.000000000000000000 ) ) ;
#211 = EDGE_CURVE ( 'NONE', #286, #336, #162, .T. ) ;
#212 = DIRECTION ( 'NONE',  ( -1.084202172485504434E-16, 1.000000000000000000, -0.000000000000000000 ) ) ;
#213 = CARTESIAN_POINT ( 'NONE',  ( 1.650000000000000133, 1.999999999999999556, 0.000000000000000000 ) ) ;
#214 = PLANE ( 'NONE',  #274 ) ;
#215 = VERTEX_POINT ( 'NONE', #107 ) ;
#216 = CARTESIAN_POINT ( 'NONE',  ( -1.349999999999999423, -2.000000000000000444, 8.699999999999999289 ) ) ;
#217 = VECTOR ( 'NONE', #157, 1000.000000000000000 ) ;
#218 = ORIENTED_EDGE ( 'NONE', *, *, #317, .T. ) ;
#219 = EDGE_CURVE ( 'NONE', #41, #570, #404, .T. ) ;
#220 = ORIENTED_EDGE ( 'NONE', *, *, #434, .F. ) ;
#221 = LINE ( 'NONE', #372, #335 ) ;
#222 = LINE ( 'NONE', #510, #200 ) ;
#223 = EDGE_LOOP ( 'NONE', ( #197, #26, #391, #364 ) ) ;
#224 = CARTESIAN_POINT ( 'NONE',  ( 0.000000000000000000, 0.000000000000000000, 0.000000000000000000 ) ) ;
#225 = CARTESIAN_POINT ( 'NONE',  ( 2.549999999999999822, 0.4411542731880160884, 0.000000000000000000 ) ) ;
#226 = DIRECTION ( 'NONE',  ( -1.084202172485504434E-16, 1.000000000000000000, -0.000000000000000000 ) ) ;
#227 = ORIENTED_EDGE ( 'NONE', *, *, #420, .T. ) ;
#228 = LINE ( 'NONE', #175, #230 ) ;
#229 = ORIENTED_EDGE ( 'NONE', *, *, #232, .T. ) ;
#230 = VECTOR ( 'NONE', #456, 1000.000000000000000 ) ;
#231 = VERTEX_POINT ( 'NONE', #104 ) ;
#232 = EDGE_CURVE ( 'NONE', #408, #237, #584, .T. ) ;
#233 = PLANE ( 'NONE',  #159 ) ;
#234 = ORIENTED_EDGE ( 'NONE', *, *, #39, .F. ) ;
#235 = EDGE_LOOP ( 'NONE', ( #477, #27, #220, #45 ) ) ;
#236 = FACE_OUTER_BOUND ( 'NONE', #81, .T. ) ;
#237 = VERTEX_POINT ( 'NONE', #307 ) ;
#238 = CARTESIAN_POINT ( 'NONE',  ( -1.649999999999999689, 1.699999999999999734, 9.000000000000000000 ) ) ;
#239 = DIRECTION ( 'NONE',  ( -0.000000000000000000, 0.000000000000000000, -1.000000000000000000 ) ) ;
#240 = VECTOR ( 'NONE', #131, 1000.000000000000000 ) ;
#241 = ADVANCED_FACE ( 'NONE', ( #351 ), #591, .T. ) ;
#242 = VECTOR ( 'NONE', #80, 1000.000000000000000 ) ;
#243 = ORIENTED_EDGE ( 'NONE', *, *, #592, .F. ) ;
#244 = PLANE ( 'NONE',  #579 ) ;
#245 = DIRECTION ( 'NONE',  ( 0.000000000000000000, 0.000000000000000000, 1.000000000000000000 ) ) ;
#246 = ORIENTED_EDGE ( 'NONE', *, *, #53, .T. ) ;
#247 = PRODUCT ( 'RB9.01.062.100 Nail', 'RB9.01.062.100 Nail', '', ( #24 ) ) ;
#248 =( LENGTH_UNIT ( ) NAMED_UNIT ( * ) SI_UNIT ( .MILLI., .METRE. ) );
#249 = FACE_OUTER_BOUND ( 'NONE', #185, .T. ) ;
#250 = CARTESIAN_POINT ( 'NONE',  ( 1.650000000000000133, 1.999999999999999556, 8.699999999999999289 ) ) ;
#251 = VECTOR ( 'NONE', #384, 1000.000000000000000 ) ;
#252 = VECTOR ( 'NONE', #494, 1000.000000000000000 ) ;
#253 = DIRECTION ( 'NONE',  ( 0.5000000000000011102, 0.8660254037844380415, 0.000000000000000000 ) ) ;
#254 = FILL_AREA_STYLE_COLOUR ( '', #168 ) ;
#255 = CARTESIAN_POINT ( 'NONE',  ( 1.650000000000000133, 1.999999999999999556, 8.699999999999999289 ) ) ;
#256 = SURFACE_STYLE_FILL_AREA ( #350 ) ;
#257 = DIRECTION ( 'NONE',  ( -0.5000000000000012212, 0.8660254037844380415, 0.000000000000000000 ) ) ;
#258 = ADVANCED_FACE ( 'NONE', ( #262 ), #590, .F. ) ;
#259 = SURFACE_STYLE_USAGE ( .BOTH. , #205 ) ;
#260 = AXIS2_PLACEMENT_3D ( 'NONE', #416, #596, #133 ) ;
#261 =( GEOMETRIC_REPRESENTATION_CONTEXT ( 3 ) GLOBAL_UNCERTAINTY_ASSIGNED_CONTEXT ( ( #545 ) ) GLOBAL_UNIT_ASSIGNED_CONTEXT ( ( #544, #112, #60 ) ) REPRESENTATION_CONTEXT ( 'NONE', 'WORKASPACE' ) );
#262 = FACE_OUTER_BOUND ( 'NONE', #340, .T. ) ;
#263 = EDGE_CURVE ( 'NONE', #526, #521, #540, .T. ) ;
#264 = APPLICATION_CONTEXT ( 'automotive_design' ) ;
#265 = DIRECTION ( 'NONE',  ( -1.000000000000000000, -1.084202172485504434E-16, 0.000000000000000000 ) ) ;
#266 = LINE ( 'NONE', #449, #427 ) ;
#267 = EDGE_LOOP ( 'NONE', ( #367, #465, #279, #83, #457 ) ) ;
#268 = EDGE_CURVE ( 'NONE', #286, #138, #497, .T. ) ;
#269 = CARTESIAN_POINT ( 'NONE',  ( -1.349999999999999867, 1.999999999999999556, 8.699999999999999289 ) ) ;
#270 = VERTEX_POINT ( 'NONE', #67 ) ;
#271 = ORIENTED_EDGE ( 'NONE', *, *, #135, .F. ) ;
#272 = AXIS2_PLACEMENT_3D ( 'NONE', #438, #436, #239 ) ;
#273 = DIRECTION ( 'NONE',  ( -0.000000000000000000, 0.7071067811865475727, 0.7071067811865475727 ) ) ;
#274 = AXIS2_PLACEMENT_3D ( 'NONE', #304, #489, #13 ) ;
#275 = ORIENTED_EDGE ( 'NONE', *, *, #370, .F. ) ;
#276 = ORIENTED_EDGE ( 'NONE', *, *, #219, .F. ) ;
#277 = CARTESIAN_POINT ( 'NONE',  ( 1.650000000000000577, -2.000000000000000444, 0.000000000000000000 ) ) ;
#278 = EDGE_LOOP ( 'NONE', ( #461, #619, #120, #601, #603, #227 ) ) ;
#279 = ORIENTED_EDGE ( 'NONE', *, *, #172, .T. ) ;
#280 = DIRECTION ( 'NONE',  ( 0.000000000000000000, 0.000000000000000000, 1.000000000000000000 ) ) ;
#281 = EDGE_LOOP ( 'NONE', ( #566, #146, #388, #329, #470 ) ) ;
#282 = ORIENTED_EDGE ( 'NONE', *, *, #448, .F. ) ;
#283 = EDGE_CURVE ( 'NONE', #505, #188, #266, .T. ) ;
#284 = DIRECTION ( 'NONE',  ( -7.666467083416831247E-17, 0.7071067811865439090, 0.7071067811865512365 ) ) ;
#285 = VECTOR ( 'NONE', #373, 1000.000000000000000 ) ;
#286 = VERTEX_POINT ( 'NONE', #17 ) ;
#287 = ORIENTED_EDGE ( 'NONE', *, *, #481, .T. ) ;
#288 = ADVANCED_FACE ( 'NONE', ( #64 ), #214, .F. ) ;
#289 = FACE_OUTER_BOUND ( 'NONE', #69, .T. ) ;
#290 = LINE ( 'NONE', #580, #251 ) ;
#291 = VERTEX_POINT ( 'NONE', #269 ) ;
#292 = DIRECTION ( 'NONE',  ( -1.000000000000000000, -1.084202172485504434E-16, 0.000000000000000000 ) ) ;
#293 = EDGE_CURVE ( 'NONE', #215, #193, #221, .T. ) ;
#294 = ORIENTED_EDGE ( 'NONE', *, *, #354, .F. ) ;
#295 = CARTESIAN_POINT ( 'NONE',  ( -1.649999999999999689, 1.999999999999999556, 0.4999999999999882871 ) ) ;
#296 = VECTOR ( 'NONE', #611, 1000.000000000000000 ) ;
#297 = ORIENTED_EDGE ( 'NONE', *, *, #194, .F. ) ;
#298 = LINE ( 'NONE', #572, #209 ) ;
#299 = DIRECTION ( 'NONE',  ( 1.000000000000000000, 0.000000000000000000, 0.000000000000000000 ) ) ;
#300 = EDGE_CURVE ( 'NONE', #408, #138, #32, .T. ) ;
#301 = DIRECTION ( 'NONE',  ( 1.000000000000000000, 0.000000000000000000, 0.000000000000000000 ) ) ;
#302 = FACE_OUTER_BOUND ( 'NONE', #50, .T. ) ;
#303 = LINE ( 'NONE', #583, #217 ) ;
#304 = CARTESIAN_POINT ( 'NONE',  ( -1.649999999999999245, -2.000000000000000444, 9.000000000000000000 ) ) ;
#305 = VECTOR ( 'NONE', #356, 999.9999999999998863 ) ;
#306 = VECTOR ( 'NONE', #202, 1000.000000000000114 ) ;
#307 = CARTESIAN_POINT ( 'NONE',  ( -1.349999999999999423, -2.000000000000000444, 0.4999999999999865663 ) ) ;
#308 = CARTESIAN_POINT ( 'NONE',  ( 2.550000000000000266, -0.4411542731880159773, 0.000000000000000000 ) ) ;
#309 = CARTESIAN_POINT ( 'NONE',  ( 1.650000000000000355, 2.500000000000000000, 0.000000000000000000 ) ) ;
#310 = EDGE_CURVE ( 'NONE', #331, #231, #173, .T. ) ;
#311 = LINE ( 'NONE', #8, #315 ) ;
#312 = LINE ( 'NONE', #589, #429 ) ;
#313 = EDGE_CURVE ( 'NONE', #270, #291, #228, .T. ) ;
#314 =( NAMED_UNIT ( * ) SI_UNIT ( $, .STERADIAN. ) SOLID_ANGLE_UNIT ( ) );
#315 = VECTOR ( 'NONE', #212, 1000.000000000000000 ) ;
#316 = DIRECTION ( 'NONE',  ( -0.000000000000000000, 0.000000000000000000, 1.000000000000000000 ) ) ;
#317 = EDGE_CURVE ( 'NONE', #464, #474, #507, .T. ) ;
#318 = LINE ( 'NONE', #277, #242 ) ;
#319 = ORIENTED_EDGE ( 'NONE', *, *, #553, .T. ) ;
#320 = PRODUCT_DEFINITION ( 'UNKNOWN', '', #108, #375 ) ;
#321 = CARTESIAN_POINT ( 'NONE',  ( -1.349999999999999423, -1.700000000000000622, 9.000000000000000000 ) ) ;
#322 = ORIENTED_EDGE ( 'NONE', *, *, #313, .T. ) ;
#323 = PLANE ( 'NONE',  #260 ) ;
#324 = DIRECTION ( 'NONE',  ( 0.5773502691896238437, 0.5773502691896238437, -0.5773502691896297279 ) ) ;
#325 = LINE ( 'NONE', #550, #201 ) ;
#326 = VERTEX_POINT ( 'NONE', #365 ) ;
#327 = ADVANCED_FACE ( 'NONE', ( #19 ), #233, .F. ) ;
#328 = CARTESIAN_POINT ( 'NONE',  ( 0.000000000000000000, 1.699999999999999734, 9.000000000000000000 ) ) ;
#329 = ORIENTED_EDGE ( 'NONE', *, *, #219, .T. ) ;
#330 = ADVANCED_FACE ( 'NONE', ( #463 ), #323, .T. ) ;
#331 = VERTEX_POINT ( 'NONE', #82 ) ;
#332 = LINE ( 'NONE', #435, #106 ) ;
#333 = AXIS2_PLACEMENT_3D ( 'NONE', #573, #476, #93 ) ;
#334 = VERTEX_POINT ( 'NONE', #606 ) ;
#335 = VECTOR ( 'NONE', #608, 1000.000000000000000 ) ;
#336 = VERTEX_POINT ( 'NONE', #126 ) ;
#337 = EDGE_CURVE ( 'NONE', #411, #334, #178, .T. ) ;
#338 = DIRECTION ( 'NONE',  ( -7.666467083416831247E-17, 0.7071067811865439090, -0.7071067811865512365 ) ) ;
#339 = FACE_OUTER_BOUND ( 'NONE', #278, .T. ) ;
#340 = EDGE_LOOP ( 'NONE', ( #127, #614, #597, #97, #407, #345, #275, #276 ) ) ;
#341 = CARTESIAN_POINT ( 'NONE',  ( -1.649999999999999245, -2.000000000000000444, 8.699999999999999289 ) ) ;
#342 = ORIENTED_EDGE ( 'NONE', *, *, #543, .F. ) ;
#343 = ADVANCED_BREP_SHAPE_REPRESENTATION ( 'RB9.01.062.100 Nail', ( #119, #190 ), #538 ) ;
#344 = DIRECTION ( 'NONE',  ( -0.000000000000000000, -0.7071067811865475727, 0.7071067811865475727 ) ) ;
#345 = ORIENTED_EDGE ( 'NONE', *, *, #172, .F. ) ;
#346 = CARTESIAN_POINT ( 'NONE',  ( 1.650000000000000577, -1.700000000000000622, 9.000000000000000000 ) ) ;
#347 = PRESENTATION_STYLE_ASSIGNMENT (( #5 ) ) ;
#348 = ADVANCED_FACE ( 'NONE', ( #554 ), #560, .T. ) ;
#349 = PLANE ( 'NONE',  #151 ) ;
#350 = FILL_AREA_STYLE ('',( #254 ) ) ;
#351 = FACE_OUTER_BOUND ( 'NONE', #561, .T. ) ;
#352 = AXIS2_PLACEMENT_3D ( 'NONE', #210, #167, #7 ) ;
#353 = COLOUR_RGB ( '',0.5019607843137254832, 0.5019607843137254832, 0.5019607843137254832 ) ;
#354 = EDGE_CURVE ( 'NONE', #193, #418, #35, .T. ) ;
#355 = CARTESIAN_POINT ( 'NONE',  ( -1.649999999999999245, -1.700000000000000622, 9.000000000000000000 ) ) ;
#356 = DIRECTION ( 'NONE',  ( -0.5000000000000012212, 0.8660254037844380415, -0.000000000000000000 ) ) ;
#357 = DIRECTION ( 'NONE',  ( 0.000000000000000000, -0.7071067811865512365, 0.7071067811865439090 ) ) ;
#358 = DIRECTION ( 'NONE',  ( -1.084202172485504434E-16, 1.000000000000000000, 0.000000000000000000 ) ) ;
#359 = CARTESIAN_POINT ( 'NONE',  ( -1.349999999999999423, -2.000000000000000444, 9.000000000000000000 ) ) ;
#360 = EDGE_CURVE ( 'NONE', #41, #34, #318, .T. ) ;
#361 = STYLED_ITEM ( 'NONE', ( #347 ), #119 ) ;
#362 = VECTOR ( 'NONE', #110, 1000.000000000000000 ) ;
#363 = DIRECTION ( 'NONE',  ( -0.5773502691896258421, 0.5773502691896257311, 0.5773502691896256200 ) ) ;
#364 = ORIENTED_EDGE ( 'NONE', *, *, #543, .T. ) ;
#365 = CARTESIAN_POINT ( 'NONE',  ( 1.650000000000000133, 1.999999999999999556, 4.500000000000000000 ) ) ;
#366 = LINE ( 'NONE', #20, #285 ) ;
#367 = ORIENTED_EDGE ( 'NONE', *, *, #101, .F. ) ;
#368 = CARTESIAN_POINT ( 'NONE',  ( -1.649999999999999245, -1.700000000000000622, 8.699999999999999289 ) ) ;
#369 = VERTEX_POINT ( 'NONE', #368 ) ;
#370 = EDGE_CURVE ( 'NONE', #570, #411, #469, .T. ) ;
#371 = VECTOR ( 'NONE', #66, 1000.000000000000114 ) ;
#372 = CARTESIAN_POINT ( 'NONE',  ( 1.649999999999999689, -2.500000000000000000, 0.000000000000000000 ) ) ;
#373 = DIRECTION ( 'NONE',  ( -4.915297157388872314E-16, 1.000000000000000000, -0.000000000000000000 ) ) ;
#374 = DIRECTION ( 'NONE',  ( 1.000000000000000000, 0.000000000000000000, 0.000000000000000000 ) ) ;
#375 = PRODUCT_DEFINITION_CONTEXT ( 'detailed design', #264, 'design' ) ;
#376 = CARTESIAN_POINT ( 'NONE',  ( 2.549999999999999822, 0.4411542731880160884, 0.000000000000000000 ) ) ;
#377 = ORIENTED_EDGE ( 'NONE', *, *, #487, .F. ) ;
#378 = EDGE_LOOP ( 'NONE', ( #79, #405, #430 ) ) ;
#379 = DIRECTION ( 'NONE',  ( 1.084202172485504434E-16, -1.000000000000000000, 0.000000000000000000 ) ) ;
#380 = ORIENTED_EDGE ( 'NONE', *, *, #53, .F. ) ;
#381 = EDGE_CURVE ( 'NONE', #570, #610, #548, .T. ) ;
#382 = ORIENTED_EDGE ( 'NONE', *, *, #592, .T. ) ;
#383 = CARTESIAN_POINT ( 'NONE',  ( -1.349999999999999867, 1.849999999999999645, 8.849999999999999645 ) ) ;
#384 = DIRECTION ( 'NONE',  ( -0.000000000000000000, -0.000000000000000000, -1.000000000000000000 ) ) ;
#385 = ORIENTED_EDGE ( 'NONE', *, *, #125, .F. ) ;
#386 = FACE_OUTER_BOUND ( 'NONE', #378, .T. ) ;
#387 = DIRECTION ( 'NONE',  ( -0.5773502691896258421, 0.5773502691896258421, 0.5773502691896258421 ) ) ;
#388 = ORIENTED_EDGE ( 'NONE', *, *, #360, .F. ) ;
#389 = LINE ( 'NONE', #383, #604 ) ;
#390 = CARTESIAN_POINT ( 'NONE',  ( 2.550000000000000266, -0.4411542731880159773, 0.000000000000000000 ) ) ;
#391 = ORIENTED_EDGE ( 'NONE', *, *, #101, .T. ) ;
#392 = CARTESIAN_POINT ( 'NONE',  ( 1.350000000000000311, 1.699999999999999734, 9.000000000000000000 ) ) ;
#393 = EDGE_CURVE ( 'NONE', #174, #610, #325, .T. ) ;
#394 = LINE ( 'NONE', #486, #516 ) ;
#395 = SURFACE_STYLE_FILL_AREA ( #473 ) ;
#396 = LINE ( 'NONE', #355, #547 ) ;
#397 = DIRECTION ( 'NONE',  ( 0.000000000000000000, 0.000000000000000000, -1.000000000000000000 ) ) ;
#398 = ADVANCED_FACE ( 'NONE', ( #130 ), #509, .T. ) ;
#399 = CARTESIAN_POINT ( 'NONE',  ( 0.000000000000000000, 0.000000000000000000, 0.000000000000000000 ) ) ;
#400 = VECTOR ( 'NONE', #582, 1000.000000000000114 ) ;
#401 = VECTOR ( 'NONE', #280, 1000.000000000000000 ) ;
#402 = DIRECTION ( 'NONE',  ( -0.5773502691896238437, 0.5773502691896238437, 0.5773502691896297279 ) ) ;
#403 = CARTESIAN_POINT ( 'NONE',  ( -1.649999999999999689, 1.699999999999999734, 8.699999999999999289 ) ) ;
#404 = LINE ( 'NONE', #445, #371 ) ;
#405 = ORIENTED_EDGE ( 'NONE', *, *, #360, .T. ) ;
#406 = CARTESIAN_POINT ( 'NONE',  ( 2.549999999999999822, 0.4411542731880160884, 0.000000000000000000 ) ) ;
#407 = ORIENTED_EDGE ( 'NONE', *, *, #588, .F. ) ;
#408 = VERTEX_POINT ( 'NONE', #216 ) ;
#409 = DIRECTION ( 'NONE',  ( 0.000000000000000000, 0.000000000000000000, 1.000000000000000000 ) ) ;
#410 = CARTESIAN_POINT ( 'NONE',  ( 1.650000000000000577, -2.000000000000000444, 0.000000000000000000 ) ) ;
#411 = VERTEX_POINT ( 'NONE', #406 ) ;
#412 = EDGE_CURVE ( 'NONE', #369, #138, #122, .T. ) ;
#413 = CARTESIAN_POINT ( 'NONE',  ( 0.9000000000000003553, -1.250000000000000222, 9.449999999999999289 ) ) ;
#414 = DIRECTION ( 'NONE',  ( 7.666467083416831247E-17, -0.7071067811865439090, -0.7071067811865512365 ) ) ;
#415 = STYLED_ITEM ( 'NONE', ( #163 ), #343 ) ;
#416 = CARTESIAN_POINT ( 'NONE',  ( 1.350000000000000533, 1.463672932855431479E-16, 9.000000000000000000 ) ) ;
#417 = ORIENTED_EDGE ( 'NONE', *, *, #135, .T. ) ;
#418 = VERTEX_POINT ( 'NONE', #578 ) ;
#419 = DIRECTION ( 'NONE',  ( -4.915297157388872314E-16, 1.000000000000000000, -0.000000000000000000 ) ) ;
#420 = EDGE_CURVE ( 'NONE', #369, #336, #332, .T. ) ;
#421 = EDGE_LOOP ( 'NONE', ( #515, #94, #500 ) ) ;
#422 = ORIENTED_EDGE ( 'NONE', *, *, #91, .T. ) ;
#423 = DIRECTION ( 'NONE',  ( -1.000000000000000000, 0.000000000000000000, 0.000000000000000000 ) ) ;
#424 = PLANE ( 'NONE',  #46 ) ;
#425 = ORIENTED_EDGE ( 'NONE', *, *, #283, .F. ) ;
#426 = DIRECTION ( 'NONE',  ( -1.000000000000000000, 0.000000000000000000, -0.000000000000000000 ) ) ;
#427 = VECTOR ( 'NONE', #536, 1000.000000000000000 ) ;
#428 = DIRECTION ( 'NONE',  ( 1.000000000000000000, 0.000000000000000000, -0.000000000000000000 ) ) ;
#429 = VECTOR ( 'NONE', #397, 1000.000000000000000 ) ;
#430 = ORIENTED_EDGE ( 'NONE', *, *, #31, .T. ) ;
#431 = CARTESIAN_POINT ( 'NONE',  ( 1.649999999999999689, -2.500000000000000000, -1.756407519426517183E-14 ) ) ;
#432 = DIRECTION ( 'NONE',  ( 1.000000000000000000, 0.000000000000000000, -0.000000000000000000 ) ) ;
#433 = ORIENTED_EDGE ( 'NONE', *, *, #263, .F. ) ;
#434 = EDGE_CURVE ( 'NONE', #286, #291, #389, .T. ) ;
#435 = CARTESIAN_POINT ( 'NONE',  ( -1.649999999999999689, 1.999999999999999556, 8.699999999999999289 ) ) ;
#436 = DIRECTION ( 'NONE',  ( 0.7071067811865475727, 0.7071067811865475727, 0.000000000000000000 ) ) ;
#437 = CARTESIAN_POINT ( 'NONE',  ( -1.649999999999999467, 2.500000000000000000, -1.738518183580506360E-14 ) ) ;
#438 = CARTESIAN_POINT ( 'NONE',  ( -1.349999999999999423, -2.000000000000000444, 9.000000000000000000 ) ) ;
#439 = AXIS2_PLACEMENT_3D ( 'NONE', #63, #2, #161 ) ;
#440 = PLANE ( 'NONE',  #352 ) ;
#441 = CARTESIAN_POINT ( 'NONE',  ( 2.550000000000000266, -0.4411542731880159773, 4.500000000000000000 ) ) ;
#442 = CARTESIAN_POINT ( 'NONE',  ( -1.650000000000000133, -2.500000000000000000, 0.000000000000000000 ) ) ;
#443 = PRODUCT_RELATED_PRODUCT_CATEGORY ( 'part', '', ( #247 ) ) ;
#444 = DIRECTION ( 'NONE',  ( 7.666467083416831247E-17, -0.7071067811865439090, 0.7071067811865512365 ) ) ;
#445 = CARTESIAN_POINT ( 'NONE',  ( 2.550000000000000266, -0.4411542731880159773, 0.000000000000000000 ) ) ;
#446 = AXIS2_PLACEMENT_3D ( 'NONE', #522, #292, #379 ) ;
#447 = LINE ( 'NONE', #61, #305 ) ;
#448 = EDGE_CURVE ( 'NONE', #474, #505, #298, .T. ) ;
#449 = CARTESIAN_POINT ( 'NONE',  ( 0.7833333333333339921, 1.133333333333333082, 9.566666666666666430 ) ) ;
#450 = EDGE_LOOP ( 'NONE', ( #124, #181, #134, #565 ) ) ;
#451 = ADVANCED_FACE ( 'NONE', ( #289 ), #568, .T. ) ;
#452 = DIRECTION ( 'NONE',  ( 1.000000000000000000, 4.915297157388872314E-16, -0.000000000000000000 ) ) ;
#453 = CARTESIAN_POINT ( 'NONE',  ( 1.650000000000000577, -2.000000000000000444, 0.4999999999999872324 ) ) ;
#454 = ORIENTED_EDGE ( 'NONE', *, *, #496, .F. ) ;
#455 = VECTOR ( 'NONE', #301, 1000.000000000000000 ) ;
#456 = DIRECTION ( 'NONE',  ( 0.000000000000000000, 0.000000000000000000, 1.000000000000000000 ) ) ;
#457 = ORIENTED_EDGE ( 'NONE', *, *, #481, .F. ) ;
#458 = EDGE_CURVE ( 'NONE', #174, #34, #617, .T. ) ;
#459 = ORIENTED_EDGE ( 'NONE', *, *, #293, .F. ) ;
#460 = CARTESIAN_POINT ( 'NONE',  ( 2.549999999999999822, 0.4411542731880160884, 0.000000000000000000 ) ) ;
#461 = ORIENTED_EDGE ( 'NONE', *, *, #204, .T. ) ;
#462 = ORIENTED_EDGE ( 'NONE', *, *, #381, .F. ) ;
#463 = FACE_OUTER_BOUND ( 'NONE', #514, .T. ) ;
#464 = VERTEX_POINT ( 'NONE', #532 ) ;
#465 = ORIENTED_EDGE ( 'NONE', *, *, #337, .F. ) ;
#466 = ADVANCED_FACE ( 'NONE', ( #386 ), #575, .F. ) ;
#467 = CLOSED_SHELL ( 'NONE', ( #534, #581, #327, #288, #466, #105, #179, #258, #562, #501, #156, #165, #398, #148, #330, #598, #348, #451, #116, #62, #78, #241 ) ) ;
#468 = AXIS2_PLACEMENT_3D ( 'NONE', #186, #344, #54 ) ;
#469 = LINE ( 'NONE', #460, #587 ) ;
#470 = ORIENTED_EDGE ( 'NONE', *, *, #381, .T. ) ;
#471 = ORIENTED_EDGE ( 'NONE', *, *, #44, .T. ) ;
#472 = DIRECTION ( 'NONE',  ( -0.000000000000000000, -0.000000000000000000, -1.000000000000000000 ) ) ;
#473 = FILL_AREA_STYLE ('',( #43 ) ) ;
#474 = VERTEX_POINT ( 'NONE', #95 ) ;
#475 = CARTESIAN_POINT ( 'NONE',  ( 1.650000000000000577, -2.000000000000000444, 4.500000000000000000 ) ) ;
#476 = DIRECTION ( 'NONE',  ( 1.000000000000000000, 1.084202172485504434E-16, -0.000000000000000000 ) ) ;
#477 = ORIENTED_EDGE ( 'NONE', *, *, #283, .T. ) ;
#478 = DIRECTION ( 'NONE',  ( -1.000000000000000000, 0.000000000000000000, 0.000000000000000000 ) ) ;
#479 = VECTOR ( 'NONE', #99, 1000.000000000000000 ) ;
#480 = CARTESIAN_POINT ( 'NONE',  ( -1.349999999999999423, -1.700000000000000622, 9.000000000000000000 ) ) ;
#481 = EDGE_CURVE ( 'NONE', #326, #231, #1, .T. ) ;
#482 = ORIENTED_EDGE ( 'NONE', *, *, #458, .F. ) ;
#483 = DIRECTION ( 'NONE',  ( -1.000000000000000000, -1.084202172485504434E-16, 0.000000000000000000 ) ) ;
#484 = PLANE ( 'NONE',  #272 ) ;
#485 = CARTESIAN_POINT ( 'NONE',  ( -1.649999999999999467, 2.500000000000000000, 0.000000000000000000 ) ) ;
#486 = CARTESIAN_POINT ( 'NONE',  ( -1.649999999999999245, -2.000000000000000444, 0.4999999999999865663 ) ) ;
#487 = EDGE_CURVE ( 'NONE', #123, #526, #88, .T. ) ;
#488 =( LENGTH_UNIT ( ) NAMED_UNIT ( * ) SI_UNIT ( .MILLI., .METRE. ) );
#489 = DIRECTION ( 'NONE',  ( 0.000000000000000000, 1.000000000000000000, 0.000000000000000000 ) ) ;
#490 = VECTOR ( 'NONE', #478, 1000.000000000000000 ) ;
#491 = LINE ( 'NONE', #208, #306 ) ;
#492 = FACE_OUTER_BOUND ( 'NONE', #267, .T. ) ;
#493 = CARTESIAN_POINT ( 'NONE',  ( 1.650000000000000133, 1.999999999999999556, 9.000000000000000000 ) ) ;
#494 = DIRECTION ( 'NONE',  ( 1.084202172485504434E-16, -1.000000000000000000, 0.000000000000000000 ) ) ;
#495 = CARTESIAN_POINT ( 'NONE',  ( 1.650000000000000577, -2.000000000000000444, 4.500000000000000000 ) ) ;
#496 = EDGE_CURVE ( 'NONE', #138, #474, #38, .T. ) ;
#497 = LINE ( 'NONE', #359, #252 ) ;
#498 = ORIENTED_EDGE ( 'NONE', *, *, #313, .F. ) ;
#499 = CARTESIAN_POINT ( 'NONE',  ( 1.650000000000000133, 1.999999999999999556, 0.000000000000000000 ) ) ;
#500 = ORIENTED_EDGE ( 'NONE', *, *, #211, .F. ) ;
#501 = ADVANCED_FACE ( 'NONE', ( #236 ), #198, .T. ) ;
#502 = DIRECTION ( 'NONE',  ( 0.7071067811865474617, -0.000000000000000000, 0.7071067811865474617 ) ) ;
#503 = CARTESIAN_POINT ( 'NONE',  ( -4.383333333333345294, -1.033333333333345649, 3.533333333333364745 ) ) ;
#504 = AXIS2_PLACEMENT_3D ( 'NONE', #89, #245, #432 ) ;
#505 = VERTEX_POINT ( 'NONE', #392 ) ;
#506 = AXIS2_PLACEMENT_3D ( 'NONE', #328, #273, #599 ) ;
#507 = LINE ( 'NONE', #413, #47 ) ;
#508 = LINE ( 'NONE', #559, #240 ) ;
#509 = PLANE ( 'NONE',  #14 ) ;
#510 = CARTESIAN_POINT ( 'NONE',  ( 1.650000000000000133, 1.999999999999999556, 0.000000000000000000 ) ) ;
#511 = ORIENTED_EDGE ( 'NONE', *, *, #605, .F. ) ;
#512 = UNCERTAINTY_MEASURE_WITH_UNIT (LENGTH_MEASURE( 1.000000000000000082E-05 ), #488, 'distance_accuracy_value', 'NONE');
#513 = CARTESIAN_POINT ( 'NONE',  ( -1.649999999999999245, -2.500000000000000000, -1.774296855272528006E-14 ) ) ;
#514 = EDGE_LOOP ( 'NONE', ( #129, #37, #425, #282 ) ) ;
#515 = ORIENTED_EDGE ( 'NONE', *, *, #434, .T. ) ;
#516 = VECTOR ( 'NONE', #428, 1000.000000000000000 ) ;
#517 = VECTOR ( 'NONE', #409, 1000.000000000000000 ) ;
#518 = CARTESIAN_POINT ( 'NONE',  ( 1.650000000000000577, -2.000000000000000444, 9.000000000000000000 ) ) ;
#519 = MECHANICAL_DESIGN_GEOMETRIC_PRESENTATION_REPRESENTATION (  '', ( #415 ), #261 ) ;
#520 = CARTESIAN_POINT ( 'NONE',  ( 1.649999999999999689, -2.500000000000000000, -1.756407519426517183E-14 ) ) ;
#521 = VERTEX_POINT ( 'NONE', #147 ) ;
#522 = CARTESIAN_POINT ( 'NONE',  ( 1.650000000000000133, 1.999999999999999556, 9.000000000000000000 ) ) ;
#523 = EDGE_LOOP ( 'NONE', ( #595, #622, #511, #498 ) ) ;
#524 = LINE ( 'NONE', #238, #528 ) ;
#525 = EDGE_CURVE ( 'NONE', #464, #408, #102, .T. ) ;
#526 = VERTEX_POINT ( 'NONE', #485 ) ;
#527 = CARTESIAN_POINT ( 'NONE',  ( 1.650000000000000133, 1.999999999999999556, 9.000000000000000000 ) ) ;
#528 = VECTOR ( 'NONE', #426, 1000.000000000000000 ) ;
#529 = LINE ( 'NONE', #569, #84 ) ;
#530 = APPLICATION_CONTEXT ( 'automotive_design' ) ;
#531 = ORIENTED_EDGE ( 'NONE', *, *, #412, .F. ) ;
#532 = CARTESIAN_POINT ( 'NONE',  ( 1.650000000000000577, -2.000000000000000444, 8.699999999999999289 ) ) ;
#533 = CARTESIAN_POINT ( 'NONE',  ( -1.649999999999999689, 1.699999999999999734, 0.7999999999999913847 ) ) ;
#534 = ADVANCED_FACE ( 'NONE', ( #249 ), #182, .F. ) ;
#535 = DIRECTION ( 'NONE',  ( 1.084202172485504434E-16, -1.000000000000000000, 0.000000000000000000 ) ) ;
#536 = DIRECTION ( 'NONE',  ( 0.5773502691896257311, 0.5773502691896258421, -0.5773502691896258421 ) ) ;
#537 = DIRECTION ( 'NONE',  ( 1.084202172485504434E-16, -1.000000000000000000, 0.000000000000000000 ) ) ;
#538 =( GEOMETRIC_REPRESENTATION_CONTEXT ( 3 ) GLOBAL_UNCERTAINTY_ASSIGNED_CONTEXT ( ( #512 ) ) GLOBAL_UNIT_ASSIGNED_CONTEXT ( ( #488, #539, #314 ) ) REPRESENTATION_CONTEXT ( 'NONE', 'WORKASPACE' ) );
#539 =( NAMED_UNIT ( * ) PLANE_ANGLE_UNIT ( ) SI_UNIT ( $, .RADIAN. ) );
#540 = LINE ( 'NONE', #309, #362 ) ;
#541 = DIRECTION ( 'NONE',  ( 0.000000000000000000, 0.000000000000000000, 1.000000000000000000 ) ) ;
#542 = PLANE ( 'NONE',  #139 ) ;
#543 = EDGE_CURVE ( 'NONE', #326, #174, #564, .T. ) ;
#544 =( LENGTH_UNIT ( ) NAMED_UNIT ( * ) SI_UNIT ( .MILLI., .METRE. ) );
#545 = UNCERTAINTY_MEASURE_WITH_UNIT (LENGTH_MEASURE( 1.000000000000000082E-05 ), #544, 'distance_accuracy_value', 'NONE');
#546 = LINE ( 'NONE', #206, #71 ) ;
#547 = VECTOR ( 'NONE', #541, 1000.000000000000000 ) ;
#548 = LINE ( 'NONE', #28, #115 ) ;
#549 = EDGE_CURVE ( 'NONE', #505, #286, #524, .T. ) ;
#550 = CARTESIAN_POINT ( 'NONE',  ( 2.550000000000000266, -0.4411542731880159773, 4.500000000000000000 ) ) ;
#551 = LINE ( 'NONE', #503, #3 ) ;
#552 = ORIENTED_EDGE ( 'NONE', *, *, #571, .T. ) ;
#553 = EDGE_CURVE ( 'NONE', #231, #270, #137, .T. ) ;
#554 = FACE_OUTER_BOUND ( 'NONE', #235, .T. ) ;
#555 = EDGE_LOOP ( 'NONE', ( #143, #385, #176, #294, #459 ) ) ;
#556 = VECTOR ( 'NONE', #338, 1000.000000000000000 ) ;
#557 = APPLICATION_PROTOCOL_DEFINITION ( 'draft international standard', 'automotive_design', 1998, #264 ) ;
#558 = DIRECTION ( 'NONE',  ( 0.000000000000000000, -0.000000000000000000, -1.000000000000000000 ) ) ;
#559 = CARTESIAN_POINT ( 'NONE',  ( 1.650000000000000577, -2.000000000000000444, 9.000000000000000000 ) ) ;
#560 = PLANE ( 'NONE',  #506 ) ;
#561 = EDGE_LOOP ( 'NONE', ( #169, #33, #18, #36 ) ) ;
#562 = ADVANCED_FACE ( 'NONE', ( #48 ), #244, .T. ) ;
#563 = ORIENTED_EDGE ( 'NONE', *, *, #125, .T. ) ;
#564 = LINE ( 'NONE', #475, #177 ) ;
#565 = ORIENTED_EDGE ( 'NONE', *, *, #448, .T. ) ;
#566 = ORIENTED_EDGE ( 'NONE', *, *, #393, .F. ) ;
#567 = VECTOR ( 'NONE', #114, 1000.000000000000114 ) ;
#568 = PLANE ( 'NONE',  #468 ) ;
#569 = CARTESIAN_POINT ( 'NONE',  ( 1.650000000000000133, 1.999999999999999556, 4.500000000000000000 ) ) ;
#570 = VERTEX_POINT ( 'NONE', #308 ) ;
#571 = EDGE_CURVE ( 'NONE', #188, #464, #303, .T. ) ;
#572 = CARTESIAN_POINT ( 'NONE',  ( 1.350000000000000311, 1.999999999999999556, 9.000000000000000000 ) ) ;
#573 = CARTESIAN_POINT ( 'NONE',  ( -1.649999999999999689, 1.999999999999999556, 9.000000000000000000 ) ) ;
#574 = ORIENTED_EDGE ( 'NONE', *, *, #337, .T. ) ;
#575 = PLANE ( 'NONE',  #86 ) ;
#576 = DIRECTION ( 'NONE',  ( 0.8660254037844380415, -0.5000000000000011102, 0.000000000000000000 ) ) ;
#577 = ORIENTED_EDGE ( 'NONE', *, *, #87, .F. ) ;
#578 = CARTESIAN_POINT ( 'NONE',  ( -1.649999999999999245, -1.700000000000000622, 0.7999999999999899414 ) ) ;
#579 = AXIS2_PLACEMENT_3D ( 'NONE', #431, #357, #6 ) ;
#580 = CARTESIAN_POINT ( 'NONE',  ( 1.650000000000000133, 1.999999999999999556, 9.000000000000000000 ) ) ;
#581 = ADVANCED_FACE ( 'NONE', ( #15 ), #349, .F. ) ;
#582 = DIRECTION ( 'NONE',  ( 0.7071067811865474617, -0.7071067811865474617, -0.000000000000000000 ) ) ;
#583 = CARTESIAN_POINT ( 'NONE',  ( 1.650000000000000577, -2.000000000000000444, 8.699999999999999289 ) ) ;
#584 = LINE ( 'NONE', #9, #74 ) ;
#585 = VECTOR ( 'NONE', #402, 1000.000000000000114 ) ;
#586 = DIRECTION ( 'NONE',  ( 0.000000000000000000, 0.000000000000000000, -1.000000000000000000 ) ) ;
#587 = VECTOR ( 'NONE', #419, 1000.000000000000000 ) ;
#588 = EDGE_CURVE ( 'NONE', #331, #521, #311, .T. ) ;
#589 = CARTESIAN_POINT ( 'NONE',  ( -1.649999999999999689, 1.699999999999999734, 9.000000000000000000 ) ) ;
#590 = PLANE ( 'NONE',  #22 ) ;
#591 = PLANE ( 'NONE',  #73 ) ;
#592 = EDGE_CURVE ( 'NONE', #521, #231, #154, .T. ) ;
#593 = VECTOR ( 'NONE', #299, 1000.000000000000000 ) ;
#594 = VECTOR ( 'NONE', #284, 1000.000000000000000 ) ;
#595 = ORIENTED_EDGE ( 'NONE', *, *, #44, .F. ) ;
#596 = DIRECTION ( 'NONE',  ( 0.7071067811865475727, 7.666467083416870691E-17, 0.7071067811865475727 ) ) ;
#597 = ORIENTED_EDGE ( 'NONE', *, *, #184, .F. ) ;
#598 = ADVANCED_FACE ( 'NONE', ( #11 ), #109, .F. ) ;
#599 = DIRECTION ( 'NONE',  ( 1.000000000000000000, 0.000000000000000000, 0.000000000000000000 ) ) ;
#600 = ORIENTED_EDGE ( 'NONE', *, *, #300, .T. ) ;
#601 = ORIENTED_EDGE ( 'NONE', *, *, #354, .T. ) ;
#602 = DIRECTION ( 'NONE',  ( 0.5000000000000011102, 0.8660254037844379305, -0.000000000000000000 ) ) ;
#603 = ORIENTED_EDGE ( 'NONE', *, *, #613, .T. ) ;
#604 = VECTOR ( 'NONE', #51, 1000.000000000000114 ) ;
#605 = EDGE_CURVE ( 'NONE', #291, #336, #491, .T. ) ;
#606 = CARTESIAN_POINT ( 'NONE',  ( 2.549999999999999822, 0.4411542731880160884, 4.500000000000000000 ) ) ;
#607 = LINE ( 'NONE', #520, #21 ) ;
#608 = DIRECTION ( 'NONE',  ( -1.000000000000000000, 0.000000000000000000, 0.000000000000000000 ) ) ;
#609 = ORIENTED_EDGE ( 'NONE', *, *, #588, .T. ) ;
#610 = VERTEX_POINT ( 'NONE', #441 ) ;
#611 = DIRECTION ( 'NONE',  ( -1.000000000000000000, 0.000000000000000000, 0.000000000000000000 ) ) ;
#612 = FACE_OUTER_BOUND ( 'NONE', #23, .T. ) ;
#613 = EDGE_CURVE ( 'NONE', #418, #369, #396, .T. ) ;
#614 = ORIENTED_EDGE ( 'NONE', *, *, #293, .T. ) ;
#615 = MECHANICAL_DESIGN_GEOMETRIC_PRESENTATION_REPRESENTATION (  '', ( #361 ), #166 ) ;
#616 = PRESENTATION_LAYER_ASSIGNMENT (  '', '', ( #361 ) ) ;
#617 = LINE ( 'NONE', #518, #479 ) ;
#618 = LINE ( 'NONE', #192, #400 ) ;
#619 = ORIENTED_EDGE ( 'NONE', *, *, #487, .T. ) ;
#620 = DIRECTION ( 'NONE',  ( -1.084202172485504434E-16, 1.000000000000000000, 0.000000000000000000 ) ) ;
#621 = FACE_OUTER_BOUND ( 'NONE', #281, .T. ) ;
#622 = ORIENTED_EDGE ( 'NONE', *, *, #204, .F. ) ;
ENDSEC;
END-ISO-10303-21;
